G04 #@! TF.GenerationSoftware,KiCad,Pcbnew,8.0.7-8.0.7-0~ubuntu22.04.1*
G04 #@! TF.CreationDate,2025-01-08T14:25:37-08:00*
G04 #@! TF.ProjectId,RFBackscatterV1,52464261-636b-4736-9361-747465725631,rev?*
G04 #@! TF.SameCoordinates,Original*
G04 #@! TF.FileFunction,Copper,L2,Bot*
G04 #@! TF.FilePolarity,Positive*
%FSLAX46Y46*%
G04 Gerber Fmt 4.6, Leading zero omitted, Abs format (unit mm)*
G04 Created by KiCad (PCBNEW 8.0.7-8.0.7-0~ubuntu22.04.1) date 2025-01-08 14:25:37*
%MOMM*%
%LPD*%
G01*
G04 APERTURE LIST*
G04 #@! TA.AperFunction,ComponentPad*
%ADD10C,2.108200*%
G04 #@! TD*
G04 #@! TA.AperFunction,ViaPad*
%ADD11C,0.800000*%
G04 #@! TD*
G04 APERTURE END LIST*
D10*
X179530000Y-81430000D03*
X174450000Y-81430000D03*
X174450000Y-76350000D03*
X179530000Y-76350000D03*
X176990000Y-78890000D03*
D11*
X161000000Y-71200000D03*
G04 #@! TA.AperFunction,Conductor*
G36*
X181173039Y-45019685D02*
G01*
X181218794Y-45072489D01*
X181230000Y-45124000D01*
X181230000Y-75769713D01*
X181210315Y-75836752D01*
X181157511Y-75882507D01*
X181088353Y-75892451D01*
X181024797Y-75863426D01*
X180991439Y-75817166D01*
X180918995Y-75642270D01*
X180794475Y-75439075D01*
X180245922Y-75987628D01*
X180239039Y-75971011D01*
X180151478Y-75839966D01*
X180040034Y-75728522D01*
X179908989Y-75640961D01*
X179892368Y-75634076D01*
X180440923Y-75085523D01*
X180237729Y-74961004D01*
X180011730Y-74867393D01*
X180011718Y-74867389D01*
X179773870Y-74810287D01*
X179530000Y-74791094D01*
X179286129Y-74810287D01*
X179048281Y-74867389D01*
X179048269Y-74867393D01*
X178822270Y-74961004D01*
X178619075Y-75085523D01*
X179167629Y-75634077D01*
X179151011Y-75640961D01*
X179019966Y-75728522D01*
X178908522Y-75839966D01*
X178820961Y-75971011D01*
X178814077Y-75987629D01*
X178265523Y-75439075D01*
X178141004Y-75642270D01*
X178047393Y-75868269D01*
X178047389Y-75868281D01*
X177990287Y-76106129D01*
X177971094Y-76350000D01*
X177990287Y-76593870D01*
X178047389Y-76831718D01*
X178047393Y-76831730D01*
X178141004Y-77057729D01*
X178265523Y-77260923D01*
X178814077Y-76712369D01*
X178820961Y-76728989D01*
X178908522Y-76860034D01*
X179019966Y-76971478D01*
X179151011Y-77059039D01*
X179167629Y-77065922D01*
X178619075Y-77614475D01*
X178619075Y-77614476D01*
X178822270Y-77738995D01*
X179048269Y-77832606D01*
X179048281Y-77832610D01*
X179286129Y-77889712D01*
X179530000Y-77908905D01*
X179773870Y-77889712D01*
X180011718Y-77832610D01*
X180011730Y-77832606D01*
X180237729Y-77738995D01*
X180440922Y-77614476D01*
X180440923Y-77614475D01*
X179892370Y-77065922D01*
X179908989Y-77059039D01*
X180040034Y-76971478D01*
X180151478Y-76860034D01*
X180239039Y-76728989D01*
X180245922Y-76712370D01*
X180794475Y-77260923D01*
X180794476Y-77260922D01*
X180918995Y-77057728D01*
X180918997Y-77057725D01*
X180991439Y-76882834D01*
X181035280Y-76828430D01*
X181101574Y-76806365D01*
X181169273Y-76823644D01*
X181216884Y-76874781D01*
X181230000Y-76930286D01*
X181230000Y-80849713D01*
X181210315Y-80916752D01*
X181157511Y-80962507D01*
X181088353Y-80972451D01*
X181024797Y-80943426D01*
X180991439Y-80897166D01*
X180918995Y-80722270D01*
X180794475Y-80519075D01*
X180245922Y-81067628D01*
X180239039Y-81051011D01*
X180151478Y-80919966D01*
X180040034Y-80808522D01*
X179908989Y-80720961D01*
X179892368Y-80714076D01*
X180440923Y-80165523D01*
X180237729Y-80041004D01*
X180011730Y-79947393D01*
X180011718Y-79947389D01*
X179773870Y-79890287D01*
X179530000Y-79871094D01*
X179286129Y-79890287D01*
X179048281Y-79947389D01*
X179048269Y-79947393D01*
X178822270Y-80041004D01*
X178619075Y-80165523D01*
X179167629Y-80714077D01*
X179151011Y-80720961D01*
X179019966Y-80808522D01*
X178908522Y-80919966D01*
X178820961Y-81051011D01*
X178814077Y-81067629D01*
X178265523Y-80519075D01*
X178141004Y-80722270D01*
X178047393Y-80948269D01*
X178047389Y-80948281D01*
X177990287Y-81186129D01*
X177971094Y-81430000D01*
X177990287Y-81673870D01*
X178047389Y-81911718D01*
X178047393Y-81911730D01*
X178141004Y-82137729D01*
X178265523Y-82340923D01*
X178814077Y-81792369D01*
X178820961Y-81808989D01*
X178908522Y-81940034D01*
X179019966Y-82051478D01*
X179151011Y-82139039D01*
X179167629Y-82145922D01*
X178619075Y-82694475D01*
X178619075Y-82694476D01*
X178822270Y-82818995D01*
X179048269Y-82912606D01*
X179048281Y-82912610D01*
X179286129Y-82969712D01*
X179530000Y-82988905D01*
X179773870Y-82969712D01*
X180011718Y-82912610D01*
X180011730Y-82912606D01*
X180237729Y-82818995D01*
X180440922Y-82694476D01*
X180440923Y-82694475D01*
X179892370Y-82145922D01*
X179908989Y-82139039D01*
X180040034Y-82051478D01*
X180151478Y-81940034D01*
X180239039Y-81808989D01*
X180245922Y-81792370D01*
X180794475Y-82340923D01*
X180794476Y-82340922D01*
X180918995Y-82137728D01*
X180918997Y-82137725D01*
X180991439Y-81962834D01*
X181035280Y-81908430D01*
X181101574Y-81886365D01*
X181169273Y-81903644D01*
X181216884Y-81954781D01*
X181230000Y-82010286D01*
X181230000Y-86736000D01*
X181210315Y-86803039D01*
X181157511Y-86848794D01*
X181106000Y-86860000D01*
X146524000Y-86860000D01*
X146456961Y-86840315D01*
X146411206Y-86787511D01*
X146400000Y-86736000D01*
X146400000Y-81430000D01*
X172891094Y-81430000D01*
X172910287Y-81673870D01*
X172967389Y-81911718D01*
X172967393Y-81911730D01*
X173061004Y-82137729D01*
X173185523Y-82340923D01*
X173734077Y-81792369D01*
X173740961Y-81808989D01*
X173828522Y-81940034D01*
X173939966Y-82051478D01*
X174071011Y-82139039D01*
X174087629Y-82145922D01*
X173539075Y-82694475D01*
X173539075Y-82694476D01*
X173742270Y-82818995D01*
X173968269Y-82912606D01*
X173968281Y-82912610D01*
X174206129Y-82969712D01*
X174450000Y-82988905D01*
X174693870Y-82969712D01*
X174931718Y-82912610D01*
X174931730Y-82912606D01*
X175157729Y-82818995D01*
X175360922Y-82694476D01*
X175360923Y-82694475D01*
X174812370Y-82145922D01*
X174828989Y-82139039D01*
X174960034Y-82051478D01*
X175071478Y-81940034D01*
X175159039Y-81808989D01*
X175165922Y-81792370D01*
X175714475Y-82340923D01*
X175714476Y-82340922D01*
X175838995Y-82137729D01*
X175932606Y-81911730D01*
X175932610Y-81911718D01*
X175989712Y-81673870D01*
X176008905Y-81430000D01*
X175989712Y-81186129D01*
X175932610Y-80948281D01*
X175932606Y-80948269D01*
X175838995Y-80722270D01*
X175714475Y-80519075D01*
X175165922Y-81067628D01*
X175159039Y-81051011D01*
X175071478Y-80919966D01*
X174960034Y-80808522D01*
X174828989Y-80720961D01*
X174812368Y-80714076D01*
X175360923Y-80165523D01*
X175157729Y-80041004D01*
X174931730Y-79947393D01*
X174931718Y-79947389D01*
X174693870Y-79890287D01*
X174450000Y-79871094D01*
X174206129Y-79890287D01*
X173968281Y-79947389D01*
X173968269Y-79947393D01*
X173742270Y-80041004D01*
X173539075Y-80165523D01*
X174087629Y-80714077D01*
X174071011Y-80720961D01*
X173939966Y-80808522D01*
X173828522Y-80919966D01*
X173740961Y-81051011D01*
X173734077Y-81067629D01*
X173185523Y-80519075D01*
X173061004Y-80722270D01*
X172967393Y-80948269D01*
X172967389Y-80948281D01*
X172910287Y-81186129D01*
X172891094Y-81430000D01*
X146400000Y-81430000D01*
X146400000Y-78890000D01*
X175430593Y-78890000D01*
X175449792Y-79133948D01*
X175506915Y-79371883D01*
X175506915Y-79371884D01*
X175600555Y-79597952D01*
X175600557Y-79597955D01*
X175728409Y-79806590D01*
X175728410Y-79806593D01*
X175728413Y-79806596D01*
X175887333Y-79992667D01*
X176031370Y-80115687D01*
X176073406Y-80151589D01*
X176073408Y-80151589D01*
X176282044Y-80279442D01*
X176282047Y-80279444D01*
X176508116Y-80373084D01*
X176712301Y-80422104D01*
X176746055Y-80430208D01*
X176990000Y-80449407D01*
X177233945Y-80430208D01*
X177471883Y-80373084D01*
X177471884Y-80373084D01*
X177697952Y-80279444D01*
X177697953Y-80279443D01*
X177697956Y-80279442D01*
X177906596Y-80151587D01*
X178092667Y-79992667D01*
X178251587Y-79806596D01*
X178379442Y-79597956D01*
X178473084Y-79371883D01*
X178530208Y-79133945D01*
X178549407Y-78890000D01*
X178530208Y-78646055D01*
X178473084Y-78408117D01*
X178473084Y-78408116D01*
X178473084Y-78408115D01*
X178379444Y-78182047D01*
X178379442Y-78182044D01*
X178251590Y-77973409D01*
X178251589Y-77973406D01*
X178215687Y-77931370D01*
X178092667Y-77787333D01*
X177969645Y-77682262D01*
X177906593Y-77628410D01*
X177906590Y-77628409D01*
X177697955Y-77500557D01*
X177697952Y-77500555D01*
X177471883Y-77406915D01*
X177233948Y-77349792D01*
X176990000Y-77330593D01*
X176746051Y-77349792D01*
X176508116Y-77406915D01*
X176508115Y-77406915D01*
X176282047Y-77500555D01*
X176282044Y-77500557D01*
X176073409Y-77628409D01*
X176073406Y-77628410D01*
X175887333Y-77787333D01*
X175728410Y-77973406D01*
X175728409Y-77973409D01*
X175600557Y-78182044D01*
X175600555Y-78182047D01*
X175506915Y-78408115D01*
X175506915Y-78408116D01*
X175449792Y-78646051D01*
X175430593Y-78890000D01*
X146400000Y-78890000D01*
X146400000Y-76350000D01*
X172891094Y-76350000D01*
X172910287Y-76593870D01*
X172967389Y-76831718D01*
X172967393Y-76831730D01*
X173061004Y-77057729D01*
X173185523Y-77260923D01*
X173734077Y-76712369D01*
X173740961Y-76728989D01*
X173828522Y-76860034D01*
X173939966Y-76971478D01*
X174071011Y-77059039D01*
X174087629Y-77065922D01*
X173539075Y-77614475D01*
X173539075Y-77614476D01*
X173742270Y-77738995D01*
X173968269Y-77832606D01*
X173968281Y-77832610D01*
X174206129Y-77889712D01*
X174450000Y-77908905D01*
X174693870Y-77889712D01*
X174931718Y-77832610D01*
X174931730Y-77832606D01*
X175157729Y-77738995D01*
X175360922Y-77614476D01*
X175360923Y-77614475D01*
X174812370Y-77065922D01*
X174828989Y-77059039D01*
X174960034Y-76971478D01*
X175071478Y-76860034D01*
X175159039Y-76728989D01*
X175165922Y-76712370D01*
X175714475Y-77260923D01*
X175714476Y-77260922D01*
X175838995Y-77057729D01*
X175932606Y-76831730D01*
X175932610Y-76831718D01*
X175989712Y-76593870D01*
X176008905Y-76350000D01*
X175989712Y-76106129D01*
X175932610Y-75868281D01*
X175932606Y-75868269D01*
X175838995Y-75642270D01*
X175714475Y-75439075D01*
X175165922Y-75987628D01*
X175159039Y-75971011D01*
X175071478Y-75839966D01*
X174960034Y-75728522D01*
X174828989Y-75640961D01*
X174812368Y-75634076D01*
X175360923Y-75085523D01*
X175157729Y-74961004D01*
X174931730Y-74867393D01*
X174931718Y-74867389D01*
X174693870Y-74810287D01*
X174450000Y-74791094D01*
X174206129Y-74810287D01*
X173968281Y-74867389D01*
X173968269Y-74867393D01*
X173742270Y-74961004D01*
X173539075Y-75085523D01*
X174087629Y-75634077D01*
X174071011Y-75640961D01*
X173939966Y-75728522D01*
X173828522Y-75839966D01*
X173740961Y-75971011D01*
X173734077Y-75987629D01*
X173185523Y-75439075D01*
X173061004Y-75642270D01*
X172967393Y-75868269D01*
X172967389Y-75868281D01*
X172910287Y-76106129D01*
X172891094Y-76350000D01*
X146400000Y-76350000D01*
X146400000Y-45124000D01*
X146419685Y-45056961D01*
X146472489Y-45011206D01*
X146524000Y-45000000D01*
X181106000Y-45000000D01*
X181173039Y-45019685D01*
G37*
G04 #@! TD.AperFunction*
M02*
