%TF.GenerationSoftware,KiCad,Pcbnew,7.0.8*%
%TF.CreationDate,2024-07-12T13:32:42-07:00*%
%TF.ProjectId,RFBackscatterV1,52464261-636b-4736-9361-747465725631,rev?*%
%TF.SameCoordinates,Original*%
%TF.FileFunction,Copper,L2,Bot*%
%TF.FilePolarity,Positive*%
%FSLAX46Y46*%
G04 Gerber Fmt 4.6, Leading zero omitted, Abs format (unit mm)*
G04 Created by KiCad (PCBNEW 7.0.8) date 2024-07-12 13:32:42*
%MOMM*%
%LPD*%
G01*
G04 APERTURE LIST*
%TA.AperFunction,ComponentPad*%
%ADD10C,2.108200*%
%TD*%
%TA.AperFunction,ViaPad*%
%ADD11C,0.800000*%
%TD*%
G04 APERTURE END LIST*
D10*
%TO.P,J1,1,1*%
%TO.N,Net-(C1-Pad2)*%
X170180000Y-92417900D03*
%TO.P,J1,2,2*%
%TO.N,Net-(C3-Pad2)*%
X172720000Y-94957900D03*
%TO.P,J1,3,3*%
X172720000Y-89877900D03*
%TO.P,J1,4,4*%
X167640000Y-89877900D03*
%TO.P,J1,5,5*%
X167640000Y-94957900D03*
%TD*%
D11*
%TO.N,GND*%
X170750000Y-86950000D03*
X173300000Y-79100000D03*
X172700000Y-83000000D03*
%TD*%
%TA.AperFunction,Conductor*%
%TO.N,GND*%
G36*
X181742539Y-72270185D02*
G01*
X181788294Y-72322989D01*
X181799500Y-72374500D01*
X181799500Y-96775500D01*
X181779815Y-96842539D01*
X181727011Y-96888294D01*
X181675500Y-96899500D01*
X161774500Y-96899500D01*
X161707461Y-96879815D01*
X161661706Y-96827011D01*
X161650500Y-96775500D01*
X161650500Y-94957900D01*
X166080593Y-94957900D01*
X166099792Y-95201848D01*
X166156915Y-95439783D01*
X166156915Y-95439784D01*
X166250555Y-95665852D01*
X166250557Y-95665855D01*
X166378409Y-95874490D01*
X166378410Y-95874493D01*
X166378413Y-95874496D01*
X166537333Y-96060567D01*
X166681370Y-96183587D01*
X166723406Y-96219489D01*
X166723409Y-96219490D01*
X166932044Y-96347342D01*
X166932047Y-96347344D01*
X167158116Y-96440984D01*
X167362301Y-96490004D01*
X167396055Y-96498108D01*
X167640000Y-96517307D01*
X167883945Y-96498108D01*
X168121883Y-96440984D01*
X168121884Y-96440984D01*
X168347952Y-96347344D01*
X168347953Y-96347343D01*
X168347956Y-96347342D01*
X168556596Y-96219487D01*
X168742667Y-96060567D01*
X168901587Y-95874496D01*
X169029442Y-95665856D01*
X169123084Y-95439783D01*
X169180208Y-95201845D01*
X169199407Y-94957900D01*
X171160593Y-94957900D01*
X171179792Y-95201848D01*
X171236915Y-95439783D01*
X171236915Y-95439784D01*
X171330555Y-95665852D01*
X171330557Y-95665855D01*
X171458409Y-95874490D01*
X171458410Y-95874493D01*
X171458413Y-95874496D01*
X171617333Y-96060567D01*
X171761370Y-96183587D01*
X171803406Y-96219489D01*
X171803409Y-96219490D01*
X172012044Y-96347342D01*
X172012047Y-96347344D01*
X172238116Y-96440984D01*
X172442301Y-96490004D01*
X172476055Y-96498108D01*
X172720000Y-96517307D01*
X172963945Y-96498108D01*
X173201883Y-96440984D01*
X173201884Y-96440984D01*
X173427952Y-96347344D01*
X173427953Y-96347343D01*
X173427956Y-96347342D01*
X173636596Y-96219487D01*
X173822667Y-96060567D01*
X173981587Y-95874496D01*
X174109442Y-95665856D01*
X174203084Y-95439783D01*
X174260208Y-95201845D01*
X174279407Y-94957900D01*
X174260208Y-94713955D01*
X174203084Y-94476017D01*
X174203084Y-94476016D01*
X174203084Y-94476015D01*
X174109444Y-94249947D01*
X174109442Y-94249944D01*
X173981590Y-94041309D01*
X173981589Y-94041306D01*
X173926927Y-93977306D01*
X173822667Y-93855233D01*
X173699645Y-93750162D01*
X173636593Y-93696310D01*
X173636590Y-93696309D01*
X173427955Y-93568457D01*
X173427952Y-93568455D01*
X173201883Y-93474815D01*
X172963948Y-93417692D01*
X172720000Y-93398493D01*
X172476051Y-93417692D01*
X172238116Y-93474815D01*
X172238115Y-93474815D01*
X172012047Y-93568455D01*
X172012044Y-93568457D01*
X171803409Y-93696309D01*
X171803406Y-93696310D01*
X171617333Y-93855233D01*
X171458410Y-94041306D01*
X171458409Y-94041309D01*
X171330557Y-94249944D01*
X171330555Y-94249947D01*
X171236915Y-94476015D01*
X171236915Y-94476016D01*
X171179792Y-94713951D01*
X171160593Y-94957900D01*
X169199407Y-94957900D01*
X169180208Y-94713955D01*
X169123084Y-94476017D01*
X169123084Y-94476016D01*
X169123084Y-94476015D01*
X169029444Y-94249947D01*
X169029442Y-94249944D01*
X168901590Y-94041309D01*
X168901589Y-94041306D01*
X168846927Y-93977306D01*
X168742667Y-93855233D01*
X168619645Y-93750162D01*
X168556593Y-93696310D01*
X168556590Y-93696309D01*
X168347955Y-93568457D01*
X168347952Y-93568455D01*
X168121883Y-93474815D01*
X167883948Y-93417692D01*
X167640000Y-93398493D01*
X167396051Y-93417692D01*
X167158116Y-93474815D01*
X167158115Y-93474815D01*
X166932047Y-93568455D01*
X166932044Y-93568457D01*
X166723409Y-93696309D01*
X166723406Y-93696310D01*
X166537333Y-93855233D01*
X166378410Y-94041306D01*
X166378409Y-94041309D01*
X166250557Y-94249944D01*
X166250555Y-94249947D01*
X166156915Y-94476015D01*
X166156915Y-94476016D01*
X166099792Y-94713951D01*
X166080593Y-94957900D01*
X161650500Y-94957900D01*
X161650500Y-92417900D01*
X168620593Y-92417900D01*
X168639792Y-92661848D01*
X168696915Y-92899783D01*
X168696915Y-92899784D01*
X168790555Y-93125852D01*
X168790557Y-93125855D01*
X168918409Y-93334490D01*
X168918410Y-93334493D01*
X168918413Y-93334496D01*
X169077333Y-93520567D01*
X169221370Y-93643587D01*
X169263406Y-93679489D01*
X169263408Y-93679489D01*
X169472044Y-93807342D01*
X169472047Y-93807344D01*
X169698116Y-93900984D01*
X169902301Y-93950004D01*
X169936055Y-93958108D01*
X170180000Y-93977307D01*
X170423945Y-93958108D01*
X170661883Y-93900984D01*
X170661884Y-93900984D01*
X170887952Y-93807344D01*
X170887953Y-93807343D01*
X170887956Y-93807342D01*
X171096596Y-93679487D01*
X171282667Y-93520567D01*
X171441587Y-93334496D01*
X171569442Y-93125856D01*
X171663084Y-92899783D01*
X171720208Y-92661845D01*
X171739407Y-92417900D01*
X171720208Y-92173955D01*
X171663084Y-91936017D01*
X171663084Y-91936016D01*
X171663084Y-91936015D01*
X171569444Y-91709947D01*
X171569442Y-91709944D01*
X171441590Y-91501309D01*
X171441589Y-91501306D01*
X171386927Y-91437306D01*
X171282667Y-91315233D01*
X171159645Y-91210162D01*
X171096593Y-91156310D01*
X171096590Y-91156309D01*
X170887955Y-91028457D01*
X170887952Y-91028455D01*
X170661883Y-90934815D01*
X170423948Y-90877692D01*
X170180000Y-90858493D01*
X169936051Y-90877692D01*
X169698116Y-90934815D01*
X169698115Y-90934815D01*
X169472047Y-91028455D01*
X169472044Y-91028457D01*
X169263409Y-91156309D01*
X169263406Y-91156310D01*
X169077333Y-91315233D01*
X168918410Y-91501306D01*
X168918409Y-91501309D01*
X168790557Y-91709944D01*
X168790555Y-91709947D01*
X168696915Y-91936015D01*
X168696915Y-91936016D01*
X168639792Y-92173951D01*
X168620593Y-92417900D01*
X161650500Y-92417900D01*
X161650500Y-89877900D01*
X166080593Y-89877900D01*
X166099792Y-90121848D01*
X166156915Y-90359783D01*
X166156915Y-90359784D01*
X166250555Y-90585852D01*
X166250557Y-90585855D01*
X166378409Y-90794490D01*
X166378410Y-90794493D01*
X166378413Y-90794496D01*
X166537333Y-90980567D01*
X166681370Y-91103587D01*
X166723406Y-91139489D01*
X166723408Y-91139489D01*
X166932044Y-91267342D01*
X166932047Y-91267344D01*
X167158116Y-91360984D01*
X167362301Y-91410004D01*
X167396055Y-91418108D01*
X167640000Y-91437307D01*
X167883945Y-91418108D01*
X168121883Y-91360984D01*
X168121884Y-91360984D01*
X168347952Y-91267344D01*
X168347953Y-91267343D01*
X168347956Y-91267342D01*
X168556596Y-91139487D01*
X168742667Y-90980567D01*
X168901587Y-90794496D01*
X169029442Y-90585856D01*
X169123084Y-90359783D01*
X169180208Y-90121845D01*
X169199407Y-89877900D01*
X171160593Y-89877900D01*
X171179792Y-90121848D01*
X171236915Y-90359783D01*
X171236915Y-90359784D01*
X171330555Y-90585852D01*
X171330557Y-90585855D01*
X171458409Y-90794490D01*
X171458410Y-90794493D01*
X171458413Y-90794496D01*
X171617333Y-90980567D01*
X171761370Y-91103587D01*
X171803406Y-91139489D01*
X171803408Y-91139489D01*
X172012044Y-91267342D01*
X172012047Y-91267344D01*
X172238116Y-91360984D01*
X172442301Y-91410004D01*
X172476055Y-91418108D01*
X172720000Y-91437307D01*
X172963945Y-91418108D01*
X173201883Y-91360984D01*
X173201884Y-91360984D01*
X173427952Y-91267344D01*
X173427953Y-91267343D01*
X173427956Y-91267342D01*
X173636596Y-91139487D01*
X173822667Y-90980567D01*
X173981587Y-90794496D01*
X174109442Y-90585856D01*
X174203084Y-90359783D01*
X174260208Y-90121845D01*
X174279407Y-89877900D01*
X174260208Y-89633955D01*
X174203084Y-89396017D01*
X174203084Y-89396016D01*
X174203084Y-89396015D01*
X174109444Y-89169947D01*
X174109442Y-89169944D01*
X173981590Y-88961309D01*
X173981589Y-88961306D01*
X173945687Y-88919270D01*
X173822667Y-88775233D01*
X173699645Y-88670162D01*
X173636593Y-88616310D01*
X173636590Y-88616309D01*
X173427955Y-88488457D01*
X173427952Y-88488455D01*
X173201883Y-88394815D01*
X172963948Y-88337692D01*
X172720000Y-88318493D01*
X172476051Y-88337692D01*
X172238116Y-88394815D01*
X172238115Y-88394815D01*
X172012047Y-88488455D01*
X172012044Y-88488457D01*
X171803409Y-88616309D01*
X171803406Y-88616310D01*
X171617333Y-88775233D01*
X171458410Y-88961306D01*
X171458409Y-88961309D01*
X171330557Y-89169944D01*
X171330555Y-89169947D01*
X171236915Y-89396015D01*
X171236915Y-89396016D01*
X171179792Y-89633951D01*
X171160593Y-89877900D01*
X169199407Y-89877900D01*
X169180208Y-89633955D01*
X169123084Y-89396017D01*
X169123084Y-89396016D01*
X169123084Y-89396015D01*
X169029444Y-89169947D01*
X169029442Y-89169944D01*
X168901590Y-88961309D01*
X168901589Y-88961306D01*
X168865687Y-88919270D01*
X168742667Y-88775233D01*
X168619645Y-88670162D01*
X168556593Y-88616310D01*
X168556590Y-88616309D01*
X168347955Y-88488457D01*
X168347952Y-88488455D01*
X168121883Y-88394815D01*
X167883948Y-88337692D01*
X167640000Y-88318493D01*
X167396051Y-88337692D01*
X167158116Y-88394815D01*
X167158115Y-88394815D01*
X166932047Y-88488455D01*
X166932044Y-88488457D01*
X166723409Y-88616309D01*
X166723406Y-88616310D01*
X166537333Y-88775233D01*
X166378410Y-88961306D01*
X166378409Y-88961309D01*
X166250557Y-89169944D01*
X166250555Y-89169947D01*
X166156915Y-89396015D01*
X166156915Y-89396016D01*
X166099792Y-89633951D01*
X166080593Y-89877900D01*
X161650500Y-89877900D01*
X161650500Y-72374500D01*
X161670185Y-72307461D01*
X161722989Y-72261706D01*
X161774500Y-72250500D01*
X181675500Y-72250500D01*
X181742539Y-72270185D01*
G37*
%TD.AperFunction*%
%TD*%
M02*
