%TF.GenerationSoftware,KiCad,Pcbnew,7.0.8*%
%TF.CreationDate,2024-07-12T13:32:41-07:00*%
%TF.ProjectId,RFBackscatterV1,52464261-636b-4736-9361-747465725631,rev?*%
%TF.SameCoordinates,Original*%
%TF.FileFunction,Copper,L1,Top*%
%TF.FilePolarity,Positive*%
%FSLAX46Y46*%
G04 Gerber Fmt 4.6, Leading zero omitted, Abs format (unit mm)*
G04 Created by KiCad (PCBNEW 7.0.8) date 2024-07-12 13:32:41*
%MOMM*%
%LPD*%
G01*
G04 APERTURE LIST*
G04 Aperture macros list*
%AMRoundRect*
0 Rectangle with rounded corners*
0 $1 Rounding radius*
0 $2 $3 $4 $5 $6 $7 $8 $9 X,Y pos of 4 corners*
0 Add a 4 corners polygon primitive as box body*
4,1,4,$2,$3,$4,$5,$6,$7,$8,$9,$2,$3,0*
0 Add four circle primitives for the rounded corners*
1,1,$1+$1,$2,$3*
1,1,$1+$1,$4,$5*
1,1,$1+$1,$6,$7*
1,1,$1+$1,$8,$9*
0 Add four rect primitives between the rounded corners*
20,1,$1+$1,$2,$3,$4,$5,0*
20,1,$1+$1,$4,$5,$6,$7,0*
20,1,$1+$1,$6,$7,$8,$9,0*
20,1,$1+$1,$8,$9,$2,$3,0*%
G04 Aperture macros list end*
%TA.AperFunction,EtchedComponent*%
%ADD10C,0.200000*%
%TD*%
%TA.AperFunction,ComponentPad*%
%ADD11C,2.108200*%
%TD*%
%TA.AperFunction,SMDPad,CuDef*%
%ADD12R,0.406400X1.397000*%
%TD*%
%TA.AperFunction,SMDPad,CuDef*%
%ADD13R,0.304800X0.508000*%
%TD*%
%TA.AperFunction,SMDPad,CuDef*%
%ADD14R,2.000000X2.000000*%
%TD*%
%TA.AperFunction,SMDPad,CuDef*%
%ADD15R,0.503199X0.549999*%
%TD*%
%TA.AperFunction,SMDPad,CuDef*%
%ADD16R,0.549999X0.503199*%
%TD*%
%TA.AperFunction,SMDPad,CuDef*%
%ADD17RoundRect,0.037500X-0.127500X-0.037500X0.127500X-0.037500X0.127500X0.037500X-0.127500X0.037500X0*%
%TD*%
%TA.AperFunction,SMDPad,CuDef*%
%ADD18RoundRect,0.037500X-0.245000X-0.037500X0.245000X-0.037500X0.245000X0.037500X-0.245000X0.037500X0*%
%TD*%
%TA.AperFunction,SMDPad,CuDef*%
%ADD19RoundRect,0.037500X0.037500X-0.245000X0.037500X0.245000X-0.037500X0.245000X-0.037500X-0.245000X0*%
%TD*%
%TA.AperFunction,ViaPad*%
%ADD20C,0.800000*%
%TD*%
%TA.AperFunction,Conductor*%
%ADD21C,0.250000*%
%TD*%
%TA.AperFunction,Conductor*%
%ADD22C,0.200000*%
%TD*%
G04 APERTURE END LIST*
%TO.C,U2*%
D10*
X170204076Y-85004001D02*
X170004076Y-85004001D01*
X170004076Y-84804001D01*
X170204076Y-84804001D01*
X170204076Y-85004001D01*
%TA.AperFunction,EtchedComponent*%
G36*
X170204076Y-85004001D02*
G01*
X170004076Y-85004001D01*
X170004076Y-84804001D01*
X170204076Y-84804001D01*
X170204076Y-85004001D01*
G37*
%TD.AperFunction*%
%TD*%
D11*
%TO.P,J1,1,1*%
%TO.N,Net-(C1-Pad2)*%
X170180000Y-92417900D03*
%TO.P,J1,2,2*%
%TO.N,Net-(C3-Pad2)*%
X172720000Y-94957900D03*
%TO.P,J1,3,3*%
X172720000Y-89877900D03*
%TO.P,J1,4,4*%
X167640000Y-89877900D03*
%TO.P,J1,5,5*%
X167640000Y-94957900D03*
%TD*%
D12*
%TO.P,U1,1,NC*%
%TO.N,unconnected-(U1-NC-Pad1)*%
X169371574Y-80754001D03*
D13*
%TO.P,U1,2,GND*%
%TO.N,GND*%
X170072600Y-81200000D03*
D12*
%TO.P,U1,3,CLK_Out*%
%TO.N,Net-(U1-CLK_Out)*%
X170971576Y-80754001D03*
D13*
%TO.P,U1,4,Vdd*%
%TO.N,+1V8*%
X170277575Y-80308002D03*
%TD*%
D14*
%TO.P,GND,1,1*%
%TO.N,GND*%
X163500000Y-82150000D03*
%TD*%
%TO.P,GND,1,1*%
%TO.N,GND*%
X176100000Y-85765200D03*
%TD*%
%TO.P,C_O,1,1*%
%TO.N,Net-(U1-CLK_Out)*%
X176050000Y-80750000D03*
%TD*%
%TO.P,O2,1,1*%
%TO.N,Net-(C1-Pad2)*%
X163450000Y-87400000D03*
%TD*%
%TO.P,VDD,1,1*%
%TO.N,+1V8*%
X170050000Y-74550000D03*
%TD*%
D15*
%TO.P,C3,1*%
%TO.N,GND*%
X163073401Y-93250000D03*
%TO.P,C3,2*%
%TO.N,Net-(C3-Pad2)*%
X164026599Y-93250000D03*
%TD*%
D14*
%TO.P,GND,1,1*%
%TO.N,GND*%
X165900000Y-74550000D03*
%TD*%
D16*
%TO.P,C4,1*%
%TO.N,+1V8*%
X172750000Y-74523401D03*
%TO.P,C4,2*%
%TO.N,GND*%
X172750000Y-75476599D03*
%TD*%
%TO.P,C2,1*%
%TO.N,Net-(U1-CLK_Out)*%
X171700000Y-78876599D03*
%TO.P,C2,2*%
%TO.N,GND*%
X171700000Y-77923401D03*
%TD*%
%TO.P,C1,2*%
%TO.N,Net-(C1-Pad2)*%
X169600000Y-87553198D03*
%TO.P,C1,1*%
%TO.N,Net-(U2-OUTPUT2)*%
X169600000Y-86600000D03*
%TD*%
D17*
%TO.P,U2,1,OUTPUT1*%
%TO.N,unconnected-(U2-OUTPUT1-Pad1)*%
X169604076Y-84554001D03*
D18*
%TO.P,U2,2,GND*%
%TO.N,GND*%
X169721576Y-84904001D03*
D19*
X170104076Y-84554001D03*
X170104076Y-85254001D03*
D17*
%TO.P,U2,3,OUTPUT2*%
%TO.N,Net-(U2-OUTPUT2)*%
X169604076Y-85254001D03*
%TO.P,U2,4,VCTL2*%
%TO.N,+1V8*%
X170604076Y-85254001D03*
%TO.P,U2,5,INPUT*%
%TO.N,GND*%
X170604076Y-84904001D03*
%TO.P,U2,6,VCTL1*%
%TO.N,Net-(U1-CLK_Out)*%
X170604076Y-84554001D03*
%TD*%
D20*
%TO.N,GND*%
X170750000Y-86950000D03*
X173300000Y-79100000D03*
X172700000Y-83000000D03*
%TD*%
D21*
%TO.N,GND*%
X171700000Y-77923401D02*
X172123401Y-77923401D01*
X172123401Y-77923401D02*
X173300000Y-79100000D01*
%TO.N,+1V8*%
X176900000Y-83100000D02*
X175800000Y-83100000D01*
X177900000Y-82100000D02*
X176900000Y-83100000D01*
X175800000Y-83100000D02*
X173623000Y-85277000D01*
X177900000Y-79550000D02*
X177900000Y-82100000D01*
X177400000Y-79050000D02*
X177900000Y-79550000D01*
X173623000Y-85277000D02*
X171100000Y-85277000D01*
X174550000Y-79050000D02*
X177400000Y-79050000D01*
X170050000Y-74550000D02*
X174550000Y-79050000D01*
X172723401Y-74550000D02*
X172750000Y-74523401D01*
X170050000Y-74550000D02*
X172723401Y-74550000D01*
X170277575Y-80308002D02*
X170277575Y-75822425D01*
%TO.N,GND*%
X171934800Y-85765200D02*
X170750000Y-86950000D01*
X176100000Y-85765200D02*
X171934800Y-85765200D01*
%TO.N,Net-(U1-CLK_Out)*%
X170975577Y-80750000D02*
X170971576Y-80754001D01*
X176050000Y-80750000D02*
X170975577Y-80750000D01*
%TO.N,+1V8*%
X170050000Y-75594850D02*
X170050000Y-74550000D01*
X170277575Y-75822425D02*
X170050000Y-75594850D01*
%TO.N,GND*%
X172700000Y-84000000D02*
X171800000Y-84900000D01*
X172700000Y-83000000D02*
X172700000Y-84000000D01*
X170750000Y-87100000D02*
X170800000Y-87150000D01*
X170750000Y-86950000D02*
X170750000Y-87100000D01*
D22*
X170700000Y-84900000D02*
X171800000Y-84900000D01*
%TO.N,+1V8*%
X171100000Y-85250000D02*
X170650000Y-85250000D01*
D21*
%TO.N,Net-(U1-CLK_Out)*%
X170971576Y-80754001D02*
X170971576Y-79605023D01*
X170971576Y-79605023D02*
X171700000Y-78876599D01*
%TO.N,Net-(U2-OUTPUT2)*%
X169600000Y-85308077D02*
X169604076Y-85304001D01*
X169600000Y-86600000D02*
X169600000Y-85308077D01*
%TO.N,Net-(C1-Pad2)*%
X169596802Y-87550000D02*
X169600000Y-87553198D01*
X164526599Y-87550000D02*
X169596802Y-87550000D01*
X169600000Y-91837900D02*
X170180000Y-92417900D01*
X169600000Y-87553198D02*
X169600000Y-91637900D01*
%TO.N,GND*%
X170071576Y-84254001D02*
X170071576Y-82154001D01*
X170071576Y-82254001D02*
X170071576Y-81254001D01*
%TO.N,Net-(U1-CLK_Out)*%
X170971576Y-84136501D02*
X170604076Y-84504001D01*
X170971576Y-80754001D02*
X170971576Y-84136501D01*
%TO.N,GND*%
X170100000Y-81200000D02*
X170100000Y-81204001D01*
X170072600Y-81200000D02*
X170100000Y-81200000D01*
%TD*%
%TA.AperFunction,Conductor*%
%TO.N,GND*%
G36*
X181742539Y-72270185D02*
G01*
X181788294Y-72322989D01*
X181799500Y-72374500D01*
X181799500Y-96775500D01*
X181779815Y-96842539D01*
X181727011Y-96888294D01*
X181675500Y-96899500D01*
X175646381Y-96899500D01*
X175579342Y-96879815D01*
X175533587Y-96827011D01*
X175523643Y-96757853D01*
X175552668Y-96694297D01*
X175579341Y-96671185D01*
X175658537Y-96620288D01*
X175658537Y-96620287D01*
X175658543Y-96620284D01*
X175711347Y-96574529D01*
X175805567Y-96465795D01*
X175865338Y-96334918D01*
X175885023Y-96267879D01*
X175885024Y-96267875D01*
X175905500Y-96125459D01*
X175905500Y-88424000D01*
X175893947Y-88316544D01*
X175882741Y-88265033D01*
X175864055Y-88208891D01*
X175848616Y-88162502D01*
X175848613Y-88162496D01*
X175770828Y-88041462D01*
X175770825Y-88041457D01*
X175754007Y-88022048D01*
X175725076Y-87988659D01*
X175725072Y-87988656D01*
X175725070Y-87988653D01*
X175616336Y-87894433D01*
X175616333Y-87894431D01*
X175616331Y-87894430D01*
X175485465Y-87834664D01*
X175485460Y-87834662D01*
X175485459Y-87834662D01*
X175462858Y-87828025D01*
X175418425Y-87814978D01*
X175418419Y-87814976D01*
X175317342Y-87800444D01*
X175276000Y-87794500D01*
X173559135Y-87794500D01*
X173481845Y-87800444D01*
X173481840Y-87800444D01*
X173481837Y-87800445D01*
X173444363Y-87806243D01*
X173368889Y-87823935D01*
X173368883Y-87823937D01*
X173239318Y-87886496D01*
X173181370Y-87925516D01*
X173181358Y-87925526D01*
X173074672Y-88022047D01*
X173074671Y-88022048D01*
X172999488Y-88144736D01*
X172971840Y-88208878D01*
X172971836Y-88208886D01*
X172964420Y-88236303D01*
X172927913Y-88295877D01*
X172864994Y-88326257D01*
X172834993Y-88327543D01*
X172774063Y-88322747D01*
X172720000Y-88318493D01*
X172719999Y-88318493D01*
X172604614Y-88327573D01*
X172536237Y-88313208D01*
X172486480Y-88264156D01*
X172475909Y-88238890D01*
X172475149Y-88236303D01*
X172453478Y-88162496D01*
X172375690Y-88041457D01*
X172358872Y-88022048D01*
X172329941Y-87988659D01*
X172329937Y-87988656D01*
X172329935Y-87988653D01*
X172221201Y-87894433D01*
X172221198Y-87894431D01*
X172221196Y-87894430D01*
X172090330Y-87834664D01*
X172090325Y-87834662D01*
X172090324Y-87834662D01*
X172067723Y-87828025D01*
X172023290Y-87814978D01*
X172023284Y-87814976D01*
X171922207Y-87800444D01*
X171880865Y-87794500D01*
X171880863Y-87794500D01*
X170499500Y-87794500D01*
X170432461Y-87774815D01*
X170386706Y-87722011D01*
X170375500Y-87670500D01*
X170375499Y-87253727D01*
X170375498Y-87253721D01*
X170369091Y-87194116D01*
X170369091Y-87194115D01*
X170341421Y-87119930D01*
X170336438Y-87050241D01*
X170341423Y-87033265D01*
X170369088Y-86959091D01*
X170369089Y-86959088D01*
X170369088Y-86959088D01*
X170369091Y-86959083D01*
X170375500Y-86899473D01*
X170375499Y-86300528D01*
X170369091Y-86240917D01*
X170329082Y-86133649D01*
X170324099Y-86063960D01*
X170350724Y-86015200D01*
X174600000Y-86015200D01*
X174600000Y-86813044D01*
X174606401Y-86872572D01*
X174606403Y-86872579D01*
X174656645Y-87007286D01*
X174656649Y-87007293D01*
X174742809Y-87122387D01*
X174742812Y-87122390D01*
X174857906Y-87208550D01*
X174857913Y-87208554D01*
X174992620Y-87258796D01*
X174992627Y-87258798D01*
X175052155Y-87265199D01*
X175052172Y-87265200D01*
X175850000Y-87265200D01*
X175850000Y-86015200D01*
X176350000Y-86015200D01*
X176350000Y-87265200D01*
X177147828Y-87265200D01*
X177147844Y-87265199D01*
X177207372Y-87258798D01*
X177207379Y-87258796D01*
X177342086Y-87208554D01*
X177342093Y-87208550D01*
X177457187Y-87122390D01*
X177457190Y-87122387D01*
X177543350Y-87007293D01*
X177543354Y-87007286D01*
X177593596Y-86872579D01*
X177593598Y-86872572D01*
X177599999Y-86813044D01*
X177600000Y-86813027D01*
X177600000Y-86015200D01*
X176350000Y-86015200D01*
X175850000Y-86015200D01*
X174600000Y-86015200D01*
X170350724Y-86015200D01*
X170357584Y-86002637D01*
X170399779Y-85974962D01*
X170407486Y-85971922D01*
X170531977Y-85877518D01*
X170533763Y-85879873D01*
X170582367Y-85853334D01*
X170608725Y-85850500D01*
X170610639Y-85850500D01*
X170812973Y-85850500D01*
X170859781Y-85862516D01*
X170860649Y-85860324D01*
X170867903Y-85863195D01*
X170867905Y-85863195D01*
X170867908Y-85863197D01*
X171020981Y-85902500D01*
X173540257Y-85902500D01*
X173555877Y-85904224D01*
X173555904Y-85903939D01*
X173563660Y-85904671D01*
X173563667Y-85904673D01*
X173632814Y-85902500D01*
X173662350Y-85902500D01*
X173669228Y-85901630D01*
X173675041Y-85901172D01*
X173721627Y-85899709D01*
X173740869Y-85894117D01*
X173759912Y-85890174D01*
X173779792Y-85887664D01*
X173823122Y-85870507D01*
X173828646Y-85868617D01*
X173832396Y-85867527D01*
X173873390Y-85855618D01*
X173890629Y-85845422D01*
X173908103Y-85836862D01*
X173926727Y-85829488D01*
X173926727Y-85829487D01*
X173926732Y-85829486D01*
X173964449Y-85802082D01*
X173969305Y-85798892D01*
X174009420Y-85775170D01*
X174023589Y-85760999D01*
X174038379Y-85748368D01*
X174054587Y-85736594D01*
X174084299Y-85700676D01*
X174088212Y-85696376D01*
X174388319Y-85396269D01*
X174449642Y-85362785D01*
X174519334Y-85367769D01*
X174575267Y-85409641D01*
X174599684Y-85475105D01*
X174600000Y-85483951D01*
X174600000Y-85515200D01*
X175850000Y-85515200D01*
X175850000Y-84265200D01*
X176350000Y-84265200D01*
X176350000Y-85515200D01*
X177600000Y-85515200D01*
X177600000Y-84717372D01*
X177599999Y-84717355D01*
X177593598Y-84657827D01*
X177593596Y-84657820D01*
X177543354Y-84523113D01*
X177543350Y-84523106D01*
X177457190Y-84408012D01*
X177457187Y-84408009D01*
X177342093Y-84321849D01*
X177342086Y-84321845D01*
X177207379Y-84271603D01*
X177207372Y-84271601D01*
X177147844Y-84265200D01*
X176350000Y-84265200D01*
X175850000Y-84265200D01*
X175818752Y-84265200D01*
X175751713Y-84245515D01*
X175705958Y-84192711D01*
X175696014Y-84123553D01*
X175725039Y-84059997D01*
X175731061Y-84053528D01*
X176022772Y-83761819D01*
X176084095Y-83728334D01*
X176110453Y-83725500D01*
X176817257Y-83725500D01*
X176832877Y-83727224D01*
X176832904Y-83726939D01*
X176840660Y-83727671D01*
X176840667Y-83727673D01*
X176909814Y-83725500D01*
X176939350Y-83725500D01*
X176946228Y-83724630D01*
X176952041Y-83724172D01*
X176998627Y-83722709D01*
X177017869Y-83717117D01*
X177036912Y-83713174D01*
X177056792Y-83710664D01*
X177100122Y-83693507D01*
X177105646Y-83691617D01*
X177109396Y-83690527D01*
X177150390Y-83678618D01*
X177167629Y-83668422D01*
X177185103Y-83659862D01*
X177203727Y-83652488D01*
X177203727Y-83652487D01*
X177203732Y-83652486D01*
X177241449Y-83625082D01*
X177246305Y-83621892D01*
X177286420Y-83598170D01*
X177300589Y-83583999D01*
X177315379Y-83571368D01*
X177331587Y-83559594D01*
X177361299Y-83523676D01*
X177365212Y-83519376D01*
X178283786Y-82600802D01*
X178296048Y-82590980D01*
X178295865Y-82590759D01*
X178301867Y-82585792D01*
X178301877Y-82585786D01*
X178349241Y-82535348D01*
X178370120Y-82514470D01*
X178374373Y-82508986D01*
X178378150Y-82504563D01*
X178410062Y-82470582D01*
X178419714Y-82453023D01*
X178430389Y-82436772D01*
X178442674Y-82420936D01*
X178461186Y-82378152D01*
X178463742Y-82372935D01*
X178486197Y-82332092D01*
X178491180Y-82312680D01*
X178497477Y-82294291D01*
X178505438Y-82275895D01*
X178512729Y-82229853D01*
X178513908Y-82224162D01*
X178525500Y-82179019D01*
X178525500Y-82158983D01*
X178527027Y-82139582D01*
X178530160Y-82119804D01*
X178525775Y-82073415D01*
X178525500Y-82067577D01*
X178525500Y-79632742D01*
X178527224Y-79617122D01*
X178526939Y-79617096D01*
X178527671Y-79609340D01*
X178527673Y-79609333D01*
X178525500Y-79540185D01*
X178525500Y-79510650D01*
X178524631Y-79503772D01*
X178524172Y-79497943D01*
X178522709Y-79451372D01*
X178517122Y-79432144D01*
X178513174Y-79413084D01*
X178510663Y-79393204D01*
X178493512Y-79349887D01*
X178491619Y-79344358D01*
X178478618Y-79299609D01*
X178478616Y-79299606D01*
X178468423Y-79282371D01*
X178459861Y-79264894D01*
X178452487Y-79246270D01*
X178452486Y-79246268D01*
X178425079Y-79208545D01*
X178421888Y-79203686D01*
X178398172Y-79163583D01*
X178398165Y-79163574D01*
X178384006Y-79149415D01*
X178371368Y-79134619D01*
X178359594Y-79118413D01*
X178323688Y-79088709D01*
X178319376Y-79084786D01*
X177900806Y-78666216D01*
X177890981Y-78653952D01*
X177890760Y-78654136D01*
X177885785Y-78648121D01*
X177859038Y-78623004D01*
X177835364Y-78600773D01*
X177824919Y-78590328D01*
X177814475Y-78579883D01*
X177808986Y-78575625D01*
X177804561Y-78571847D01*
X177770582Y-78539938D01*
X177770580Y-78539936D01*
X177770577Y-78539935D01*
X177753029Y-78530288D01*
X177736763Y-78519604D01*
X177720936Y-78507327D01*
X177720935Y-78507326D01*
X177720933Y-78507325D01*
X177678168Y-78488818D01*
X177672922Y-78486248D01*
X177632093Y-78463803D01*
X177632092Y-78463802D01*
X177612693Y-78458822D01*
X177594281Y-78452518D01*
X177575898Y-78444562D01*
X177575892Y-78444560D01*
X177529874Y-78437272D01*
X177524152Y-78436087D01*
X177479021Y-78424500D01*
X177479019Y-78424500D01*
X177458984Y-78424500D01*
X177439586Y-78422973D01*
X177432162Y-78421797D01*
X177419805Y-78419840D01*
X177419804Y-78419840D01*
X177373416Y-78424225D01*
X177367578Y-78424500D01*
X174860452Y-78424500D01*
X174793413Y-78404815D01*
X174772771Y-78388181D01*
X172824471Y-76439880D01*
X172790986Y-76378557D01*
X172795970Y-76308865D01*
X172837842Y-76252932D01*
X172903306Y-76228515D01*
X172912152Y-76228199D01*
X173072828Y-76228199D01*
X173072844Y-76228198D01*
X173132372Y-76221797D01*
X173132379Y-76221795D01*
X173267086Y-76171553D01*
X173267093Y-76171549D01*
X173382187Y-76085389D01*
X173382190Y-76085386D01*
X173468350Y-75970292D01*
X173468354Y-75970285D01*
X173518596Y-75835578D01*
X173518598Y-75835571D01*
X173524999Y-75776043D01*
X173525000Y-75776026D01*
X173525000Y-75726599D01*
X172624000Y-75726599D01*
X172556961Y-75706914D01*
X172511206Y-75654110D01*
X172500000Y-75602599D01*
X172500000Y-75399500D01*
X172519685Y-75332461D01*
X172572489Y-75286706D01*
X172623996Y-75275500D01*
X173072872Y-75275500D01*
X173132483Y-75269092D01*
X173225452Y-75234417D01*
X173268785Y-75226599D01*
X173525000Y-75226599D01*
X173525000Y-75177171D01*
X173524999Y-75177154D01*
X173518597Y-75117621D01*
X173518597Y-75117619D01*
X173491156Y-75044048D01*
X173486171Y-74974356D01*
X173491150Y-74957395D01*
X173519091Y-74882484D01*
X173525500Y-74822874D01*
X173525499Y-74223929D01*
X173519091Y-74164318D01*
X173468796Y-74029470D01*
X173468795Y-74029469D01*
X173468793Y-74029465D01*
X173382547Y-73914256D01*
X173382544Y-73914253D01*
X173267335Y-73828007D01*
X173267328Y-73828003D01*
X173132486Y-73777711D01*
X173132485Y-73777710D01*
X173132483Y-73777710D01*
X173072873Y-73771301D01*
X173072863Y-73771301D01*
X172427129Y-73771301D01*
X172427123Y-73771302D01*
X172367516Y-73777709D01*
X172232671Y-73828003D01*
X172232668Y-73828005D01*
X172136807Y-73899767D01*
X172071343Y-73924184D01*
X172062496Y-73924500D01*
X171674499Y-73924500D01*
X171607460Y-73904815D01*
X171561705Y-73852011D01*
X171550499Y-73800500D01*
X171550499Y-73502129D01*
X171550498Y-73502123D01*
X171550497Y-73502116D01*
X171544091Y-73442517D01*
X171493884Y-73307906D01*
X171493797Y-73307671D01*
X171493793Y-73307664D01*
X171407547Y-73192455D01*
X171407544Y-73192452D01*
X171292335Y-73106206D01*
X171292328Y-73106202D01*
X171157482Y-73055908D01*
X171157483Y-73055908D01*
X171097883Y-73049501D01*
X171097881Y-73049500D01*
X171097873Y-73049500D01*
X171097864Y-73049500D01*
X169002129Y-73049500D01*
X169002123Y-73049501D01*
X168942516Y-73055908D01*
X168807671Y-73106202D01*
X168807664Y-73106206D01*
X168692455Y-73192452D01*
X168692452Y-73192455D01*
X168606206Y-73307664D01*
X168606202Y-73307671D01*
X168555908Y-73442517D01*
X168549501Y-73502116D01*
X168549501Y-73502123D01*
X168549500Y-73502135D01*
X168549500Y-75597870D01*
X168549501Y-75597876D01*
X168555908Y-75657483D01*
X168606202Y-75792328D01*
X168606206Y-75792335D01*
X168692452Y-75907544D01*
X168692455Y-75907547D01*
X168807664Y-75993793D01*
X168807671Y-75993797D01*
X168852618Y-76010561D01*
X168942517Y-76044091D01*
X169002127Y-76050500D01*
X169528075Y-76050499D01*
X169595114Y-76070183D01*
X169640869Y-76122987D01*
X169652075Y-76174499D01*
X169652075Y-79431001D01*
X169632390Y-79498040D01*
X169579586Y-79543795D01*
X169528075Y-79555001D01*
X169120503Y-79555001D01*
X169120497Y-79555002D01*
X169060890Y-79561409D01*
X168926045Y-79611703D01*
X168926038Y-79611707D01*
X168810829Y-79697953D01*
X168810826Y-79697956D01*
X168724580Y-79813165D01*
X168724576Y-79813172D01*
X168674282Y-79948018D01*
X168667875Y-80007617D01*
X168667874Y-80007636D01*
X168667874Y-81500371D01*
X168667875Y-81500377D01*
X168674282Y-81559984D01*
X168724576Y-81694829D01*
X168724580Y-81694836D01*
X168810826Y-81810045D01*
X168810829Y-81810048D01*
X168926038Y-81896294D01*
X168926045Y-81896298D01*
X168935971Y-81900000D01*
X169060891Y-81946592D01*
X169120501Y-81953001D01*
X169622646Y-81953000D01*
X169682257Y-81946592D01*
X169702856Y-81938908D01*
X169772545Y-81933922D01*
X169789527Y-81938908D01*
X169812824Y-81947597D01*
X169812827Y-81947598D01*
X169872355Y-81953999D01*
X169872372Y-81954000D01*
X169920200Y-81954000D01*
X169920200Y-81867508D01*
X169939885Y-81800469D01*
X169944925Y-81793208D01*
X170001734Y-81717322D01*
X170057668Y-81675452D01*
X170127360Y-81670468D01*
X170188682Y-81703954D01*
X170222167Y-81765277D01*
X170225000Y-81791634D01*
X170225000Y-81954000D01*
X170226215Y-81955215D01*
X170289115Y-81973685D01*
X170334870Y-82026489D01*
X170346076Y-82078000D01*
X170346076Y-83651224D01*
X170326391Y-83718263D01*
X170273587Y-83764018D01*
X170207293Y-83774340D01*
X170183649Y-83771501D01*
X170024504Y-83771501D01*
X169938117Y-83781874D01*
X169800668Y-83836077D01*
X169800662Y-83836080D01*
X169682932Y-83925358D01*
X169679849Y-83929424D01*
X169623658Y-83970949D01*
X169581044Y-83978501D01*
X169434457Y-83978501D01*
X169348001Y-83988883D01*
X169348000Y-83988883D01*
X169210415Y-84043140D01*
X169092575Y-84132500D01*
X169003215Y-84250340D01*
X168948958Y-84387925D01*
X168948958Y-84387926D01*
X168940611Y-84457436D01*
X168938576Y-84474383D01*
X168938576Y-84633619D01*
X168944096Y-84679588D01*
X168948507Y-84716319D01*
X168948507Y-84745885D01*
X168939076Y-84824428D01*
X168939076Y-84983573D01*
X168948507Y-85062117D01*
X168948507Y-85091683D01*
X168943646Y-85132163D01*
X168938576Y-85174383D01*
X168938576Y-85174388D01*
X168938576Y-85333619D01*
X168948958Y-85420075D01*
X168948959Y-85420078D01*
X168965854Y-85462921D01*
X168974500Y-85508410D01*
X168974500Y-85940169D01*
X168954815Y-86007208D01*
X168949767Y-86014480D01*
X168881204Y-86106068D01*
X168881202Y-86106071D01*
X168830910Y-86240913D01*
X168830909Y-86240917D01*
X168824500Y-86300527D01*
X168824500Y-86300534D01*
X168824500Y-86300535D01*
X168824500Y-86300536D01*
X168824501Y-86800500D01*
X168804817Y-86867539D01*
X168752013Y-86913294D01*
X168700501Y-86924500D01*
X165074499Y-86924500D01*
X165007460Y-86904815D01*
X164961705Y-86852011D01*
X164950499Y-86800500D01*
X164950499Y-86352129D01*
X164950498Y-86352123D01*
X164950497Y-86352116D01*
X164944091Y-86292517D01*
X164924845Y-86240917D01*
X164893797Y-86157671D01*
X164893793Y-86157664D01*
X164807547Y-86042455D01*
X164807544Y-86042452D01*
X164692335Y-85956206D01*
X164692328Y-85956202D01*
X164557482Y-85905908D01*
X164557483Y-85905908D01*
X164497883Y-85899501D01*
X164497881Y-85899500D01*
X164497873Y-85899500D01*
X164497864Y-85899500D01*
X162402129Y-85899500D01*
X162402123Y-85899501D01*
X162342516Y-85905908D01*
X162207671Y-85956202D01*
X162207664Y-85956206D01*
X162092455Y-86042452D01*
X162092452Y-86042455D01*
X162006206Y-86157664D01*
X162006202Y-86157671D01*
X161955908Y-86292517D01*
X161949501Y-86352116D01*
X161949501Y-86352123D01*
X161949500Y-86352135D01*
X161949500Y-88447870D01*
X161949501Y-88447876D01*
X161955908Y-88507483D01*
X162006202Y-88642328D01*
X162006206Y-88642335D01*
X162092452Y-88757544D01*
X162092455Y-88757547D01*
X162207664Y-88843793D01*
X162207671Y-88843797D01*
X162342517Y-88894091D01*
X162342516Y-88894091D01*
X162349444Y-88894835D01*
X162402127Y-88900500D01*
X163270500Y-88900499D01*
X163337539Y-88920183D01*
X163383294Y-88972987D01*
X163394500Y-89024499D01*
X163394500Y-92352539D01*
X163374815Y-92419578D01*
X163358181Y-92440220D01*
X163323401Y-92475000D01*
X163323401Y-92731215D01*
X163315582Y-92774548D01*
X163280908Y-92867517D01*
X163274499Y-92927127D01*
X163274499Y-92927134D01*
X163274499Y-92927135D01*
X163274499Y-93572870D01*
X163274500Y-93572876D01*
X163280907Y-93632483D01*
X163315583Y-93725451D01*
X163323401Y-93768784D01*
X163323401Y-94025000D01*
X163327591Y-94029190D01*
X163361076Y-94090513D01*
X163363719Y-94109992D01*
X163378305Y-94372537D01*
X163394405Y-94662328D01*
X163394500Y-94665747D01*
X163394500Y-96076538D01*
X163405820Y-96182916D01*
X163416802Y-96233933D01*
X163416807Y-96233949D01*
X163450254Y-96335549D01*
X163450256Y-96335551D01*
X163527518Y-96456928D01*
X163527519Y-96456930D01*
X163527521Y-96456932D01*
X163547357Y-96480026D01*
X163573043Y-96509930D01*
X163573045Y-96509931D01*
X163573047Y-96509934D01*
X163681358Y-96604615D01*
X163681366Y-96604621D01*
X163807592Y-96662931D01*
X163860196Y-96708915D01*
X163879589Y-96776039D01*
X163859613Y-96842993D01*
X163806610Y-96888517D01*
X163755590Y-96899500D01*
X161774500Y-96899500D01*
X161707461Y-96879815D01*
X161661706Y-96827011D01*
X161650500Y-96775500D01*
X161650500Y-93500000D01*
X162321801Y-93500000D01*
X162321801Y-93572844D01*
X162328202Y-93632372D01*
X162328204Y-93632379D01*
X162378446Y-93767086D01*
X162378450Y-93767093D01*
X162464610Y-93882187D01*
X162464613Y-93882190D01*
X162579707Y-93968350D01*
X162579714Y-93968354D01*
X162714421Y-94018596D01*
X162714428Y-94018598D01*
X162773956Y-94024999D01*
X162773973Y-94025000D01*
X162823401Y-94025000D01*
X162823401Y-93500000D01*
X162321801Y-93500000D01*
X161650500Y-93500000D01*
X161650500Y-93000000D01*
X162321801Y-93000000D01*
X162823401Y-93000000D01*
X162823401Y-92475000D01*
X162773956Y-92475000D01*
X162714428Y-92481401D01*
X162714421Y-92481403D01*
X162579714Y-92531645D01*
X162579707Y-92531649D01*
X162464613Y-92617809D01*
X162464610Y-92617812D01*
X162378450Y-92732906D01*
X162378446Y-92732913D01*
X162328204Y-92867620D01*
X162328202Y-92867627D01*
X162321801Y-92927155D01*
X162321801Y-93000000D01*
X161650500Y-93000000D01*
X161650500Y-82400000D01*
X162000000Y-82400000D01*
X162000000Y-83197844D01*
X162006401Y-83257372D01*
X162006403Y-83257379D01*
X162056645Y-83392086D01*
X162056649Y-83392093D01*
X162142809Y-83507187D01*
X162142812Y-83507190D01*
X162257906Y-83593350D01*
X162257913Y-83593354D01*
X162392620Y-83643596D01*
X162392627Y-83643598D01*
X162452155Y-83649999D01*
X162452172Y-83650000D01*
X163250000Y-83650000D01*
X163250000Y-82400000D01*
X163750000Y-82400000D01*
X163750000Y-83650000D01*
X164547828Y-83650000D01*
X164547844Y-83649999D01*
X164607372Y-83643598D01*
X164607379Y-83643596D01*
X164742086Y-83593354D01*
X164742093Y-83593350D01*
X164857187Y-83507190D01*
X164857190Y-83507187D01*
X164943350Y-83392093D01*
X164943354Y-83392086D01*
X164993596Y-83257379D01*
X164993598Y-83257372D01*
X164999999Y-83197844D01*
X165000000Y-83197827D01*
X165000000Y-82400000D01*
X163750000Y-82400000D01*
X163250000Y-82400000D01*
X162000000Y-82400000D01*
X161650500Y-82400000D01*
X161650500Y-81900000D01*
X162000000Y-81900000D01*
X163250000Y-81900000D01*
X163250000Y-80650000D01*
X163750000Y-80650000D01*
X163750000Y-81900000D01*
X165000000Y-81900000D01*
X165000000Y-81102172D01*
X164999999Y-81102155D01*
X164993598Y-81042627D01*
X164993596Y-81042620D01*
X164943354Y-80907913D01*
X164943350Y-80907906D01*
X164857190Y-80792812D01*
X164857187Y-80792809D01*
X164742093Y-80706649D01*
X164742086Y-80706645D01*
X164607379Y-80656403D01*
X164607372Y-80656401D01*
X164547844Y-80650000D01*
X163750000Y-80650000D01*
X163250000Y-80650000D01*
X162452155Y-80650000D01*
X162392627Y-80656401D01*
X162392620Y-80656403D01*
X162257913Y-80706645D01*
X162257906Y-80706649D01*
X162142812Y-80792809D01*
X162142809Y-80792812D01*
X162056649Y-80907906D01*
X162056645Y-80907913D01*
X162006403Y-81042620D01*
X162006401Y-81042627D01*
X162000000Y-81102155D01*
X162000000Y-81900000D01*
X161650500Y-81900000D01*
X161650500Y-74800000D01*
X164400000Y-74800000D01*
X164400000Y-75597844D01*
X164406401Y-75657372D01*
X164406403Y-75657379D01*
X164456645Y-75792086D01*
X164456649Y-75792093D01*
X164542809Y-75907187D01*
X164542812Y-75907190D01*
X164657906Y-75993350D01*
X164657913Y-75993354D01*
X164792620Y-76043596D01*
X164792627Y-76043598D01*
X164852155Y-76049999D01*
X164852172Y-76050000D01*
X165650000Y-76050000D01*
X165650000Y-74800000D01*
X166150000Y-74800000D01*
X166150000Y-76050000D01*
X166947828Y-76050000D01*
X166947844Y-76049999D01*
X167007372Y-76043598D01*
X167007379Y-76043596D01*
X167142086Y-75993354D01*
X167142093Y-75993350D01*
X167257187Y-75907190D01*
X167257190Y-75907187D01*
X167343350Y-75792093D01*
X167343354Y-75792086D01*
X167393596Y-75657379D01*
X167393598Y-75657372D01*
X167399999Y-75597844D01*
X167400000Y-75597827D01*
X167400000Y-74800000D01*
X166150000Y-74800000D01*
X165650000Y-74800000D01*
X164400000Y-74800000D01*
X161650500Y-74800000D01*
X161650500Y-74300000D01*
X164400000Y-74300000D01*
X165650000Y-74300000D01*
X165650000Y-73050000D01*
X166150000Y-73050000D01*
X166150000Y-74300000D01*
X167400000Y-74300000D01*
X167400000Y-73502172D01*
X167399999Y-73502155D01*
X167393598Y-73442627D01*
X167393596Y-73442620D01*
X167343354Y-73307913D01*
X167343350Y-73307906D01*
X167257190Y-73192812D01*
X167257187Y-73192809D01*
X167142093Y-73106649D01*
X167142086Y-73106645D01*
X167007379Y-73056403D01*
X167007372Y-73056401D01*
X166947844Y-73050000D01*
X166150000Y-73050000D01*
X165650000Y-73050000D01*
X164852155Y-73050000D01*
X164792627Y-73056401D01*
X164792620Y-73056403D01*
X164657913Y-73106645D01*
X164657906Y-73106649D01*
X164542812Y-73192809D01*
X164542809Y-73192812D01*
X164456649Y-73307906D01*
X164456645Y-73307913D01*
X164406403Y-73442620D01*
X164406401Y-73442627D01*
X164400000Y-73502155D01*
X164400000Y-74300000D01*
X161650500Y-74300000D01*
X161650500Y-72374500D01*
X161670185Y-72307461D01*
X161722989Y-72261706D01*
X161774500Y-72250500D01*
X181675500Y-72250500D01*
X181742539Y-72270185D01*
G37*
%TD.AperFunction*%
%TA.AperFunction,Conductor*%
G36*
X174492540Y-81395185D02*
G01*
X174538295Y-81447989D01*
X174549501Y-81499500D01*
X174549501Y-81797876D01*
X174555908Y-81857483D01*
X174606202Y-81992328D01*
X174606206Y-81992335D01*
X174692452Y-82107544D01*
X174692455Y-82107547D01*
X174807664Y-82193793D01*
X174807671Y-82193797D01*
X174942517Y-82244091D01*
X174942516Y-82244091D01*
X174949444Y-82244835D01*
X175002127Y-82250500D01*
X175596410Y-82250499D01*
X175663447Y-82270183D01*
X175709202Y-82322987D01*
X175719146Y-82392146D01*
X175690121Y-82455702D01*
X175642054Y-82489792D01*
X175599885Y-82506487D01*
X175594358Y-82508379D01*
X175549614Y-82521379D01*
X175549610Y-82521381D01*
X175532366Y-82531579D01*
X175514905Y-82540133D01*
X175496274Y-82547510D01*
X175496262Y-82547517D01*
X175458570Y-82574902D01*
X175453687Y-82578109D01*
X175413580Y-82601829D01*
X175399414Y-82615995D01*
X175384624Y-82628627D01*
X175368414Y-82640404D01*
X175368411Y-82640407D01*
X175338710Y-82676309D01*
X175334777Y-82680631D01*
X173400228Y-84615181D01*
X173338905Y-84648666D01*
X173312547Y-84651500D01*
X171616834Y-84651500D01*
X171549795Y-84631815D01*
X171504040Y-84579011D01*
X171494096Y-84509853D01*
X171512868Y-84465688D01*
X171510276Y-84464155D01*
X171514246Y-84457440D01*
X171514249Y-84457437D01*
X171532761Y-84414654D01*
X171535314Y-84409442D01*
X171557773Y-84368593D01*
X171562756Y-84349181D01*
X171569057Y-84330781D01*
X171577013Y-84312397D01*
X171584305Y-84266353D01*
X171585482Y-84260672D01*
X171597076Y-84215520D01*
X171597076Y-84195484D01*
X171598603Y-84176083D01*
X171601736Y-84156305D01*
X171597351Y-84109916D01*
X171597076Y-84104078D01*
X171597076Y-81764818D01*
X171615198Y-81703098D01*
X171614320Y-81702619D01*
X171616526Y-81698578D01*
X171616761Y-81697779D01*
X171617705Y-81696418D01*
X171618569Y-81694836D01*
X171618568Y-81694836D01*
X171618572Y-81694832D01*
X171668867Y-81559984D01*
X171675276Y-81500374D01*
X171675276Y-81499500D01*
X171675332Y-81499306D01*
X171675454Y-81497049D01*
X171675987Y-81497077D01*
X171694961Y-81432461D01*
X171747765Y-81386706D01*
X171799276Y-81375500D01*
X174425501Y-81375500D01*
X174492540Y-81395185D01*
G37*
%TD.AperFunction*%
%TA.AperFunction,Conductor*%
G36*
X172680203Y-78065239D02*
G01*
X172686672Y-78071263D01*
X173382917Y-78767508D01*
X174049197Y-79433788D01*
X174059022Y-79446051D01*
X174059243Y-79445869D01*
X174064214Y-79451878D01*
X174090217Y-79476295D01*
X174114635Y-79499226D01*
X174135529Y-79520120D01*
X174141011Y-79524373D01*
X174145443Y-79528157D01*
X174179418Y-79560062D01*
X174196976Y-79569714D01*
X174213233Y-79580393D01*
X174229064Y-79592673D01*
X174248737Y-79601186D01*
X174271833Y-79611182D01*
X174277077Y-79613750D01*
X174317908Y-79636197D01*
X174330523Y-79639435D01*
X174337305Y-79641177D01*
X174355719Y-79647481D01*
X174374104Y-79655438D01*
X174420157Y-79662732D01*
X174425826Y-79663906D01*
X174456342Y-79671741D01*
X174516377Y-79707480D01*
X174547562Y-79770004D01*
X174549500Y-79791844D01*
X174549500Y-80000500D01*
X174529815Y-80067539D01*
X174477011Y-80113294D01*
X174425500Y-80124500D01*
X171799071Y-80124500D01*
X171732032Y-80104815D01*
X171686277Y-80052011D01*
X171676169Y-80010872D01*
X171675630Y-80010930D01*
X171668867Y-79948019D01*
X171654419Y-79909282D01*
X171649435Y-79839590D01*
X171682918Y-79778269D01*
X171796173Y-79665016D01*
X171857496Y-79631532D01*
X171883853Y-79628698D01*
X172022871Y-79628698D01*
X172022872Y-79628698D01*
X172082483Y-79622290D01*
X172217331Y-79571995D01*
X172332546Y-79485745D01*
X172418796Y-79370530D01*
X172469091Y-79235682D01*
X172475500Y-79176072D01*
X172475499Y-78577127D01*
X172469091Y-78517516D01*
X172441154Y-78442615D01*
X172436171Y-78372926D01*
X172441156Y-78355949D01*
X172468597Y-78282376D01*
X172468598Y-78282373D01*
X172474999Y-78222845D01*
X172475000Y-78222828D01*
X172475000Y-78158952D01*
X172494685Y-78091913D01*
X172547489Y-78046158D01*
X172616647Y-78036214D01*
X172680203Y-78065239D01*
G37*
%TD.AperFunction*%
%TD*%
%TA.AperFunction,Conductor*%
%TO.N,Net-(C3-Pad2)*%
G36*
X166867904Y-88319685D02*
G01*
X166913659Y-88372489D01*
X166923603Y-88441647D01*
X166894578Y-88505203D01*
X166865655Y-88529728D01*
X166729076Y-88613423D01*
X167276819Y-89161165D01*
X167137989Y-89248398D01*
X167010498Y-89375889D01*
X166923265Y-89514718D01*
X166375523Y-88966976D01*
X166251002Y-89170175D01*
X166157393Y-89396169D01*
X166157389Y-89396181D01*
X166100287Y-89634029D01*
X166081094Y-89877900D01*
X166100287Y-90121770D01*
X166157389Y-90359618D01*
X166157393Y-90359630D01*
X166251004Y-90585629D01*
X166375522Y-90788823D01*
X166923265Y-90241080D01*
X167010498Y-90379911D01*
X167137989Y-90507402D01*
X167276818Y-90594634D01*
X166729075Y-91142376D01*
X166932270Y-91266895D01*
X167158269Y-91360506D01*
X167158281Y-91360510D01*
X167396129Y-91417612D01*
X167640000Y-91436805D01*
X167883870Y-91417612D01*
X168121718Y-91360510D01*
X168121730Y-91360506D01*
X168347729Y-91266895D01*
X168550923Y-91142376D01*
X168003181Y-90594634D01*
X168142011Y-90507402D01*
X168269502Y-90379911D01*
X168356734Y-90241081D01*
X168938181Y-90822528D01*
X168971666Y-90883851D01*
X168974500Y-90910209D01*
X168974500Y-91389887D01*
X168954815Y-91456926D01*
X168944791Y-91470418D01*
X168918414Y-91501302D01*
X168918411Y-91501306D01*
X168790557Y-91709944D01*
X168790555Y-91709947D01*
X168696915Y-91936015D01*
X168696915Y-91936016D01*
X168639792Y-92173951D01*
X168620593Y-92417900D01*
X168639792Y-92661848D01*
X168696915Y-92899783D01*
X168696915Y-92899784D01*
X168790555Y-93125852D01*
X168790557Y-93125855D01*
X168918409Y-93334490D01*
X168918410Y-93334493D01*
X168918413Y-93334496D01*
X169077333Y-93520567D01*
X169208240Y-93632372D01*
X169263406Y-93679489D01*
X169263408Y-93679489D01*
X169378471Y-93750000D01*
X169472044Y-93807342D01*
X169472047Y-93807344D01*
X169698116Y-93900984D01*
X169902301Y-93950004D01*
X169936055Y-93958108D01*
X170180000Y-93977307D01*
X170423945Y-93958108D01*
X170661883Y-93900984D01*
X170661884Y-93900984D01*
X170887952Y-93807344D01*
X170887953Y-93807343D01*
X170887956Y-93807342D01*
X171096596Y-93679487D01*
X171282667Y-93520567D01*
X171441587Y-93334496D01*
X171569442Y-93125856D01*
X171621573Y-93000000D01*
X171663084Y-92899784D01*
X171663084Y-92899783D01*
X171720207Y-92661848D01*
X171720208Y-92661845D01*
X171739407Y-92417900D01*
X171720208Y-92173955D01*
X171663084Y-91936017D01*
X171663084Y-91936016D01*
X171663084Y-91936015D01*
X171569444Y-91709947D01*
X171569442Y-91709944D01*
X171441590Y-91501309D01*
X171441589Y-91501306D01*
X171403685Y-91456926D01*
X171282667Y-91315233D01*
X171159645Y-91210162D01*
X171096593Y-91156310D01*
X171096590Y-91156309D01*
X170887955Y-91028457D01*
X170887952Y-91028455D01*
X170661883Y-90934815D01*
X170475961Y-90890180D01*
X170423945Y-90877692D01*
X170339769Y-90871066D01*
X170274481Y-90846182D01*
X170233011Y-90789950D01*
X170225500Y-90747449D01*
X170225500Y-88424000D01*
X170245185Y-88356961D01*
X170297989Y-88311206D01*
X170349500Y-88300000D01*
X171880865Y-88300000D01*
X171947904Y-88319685D01*
X171993659Y-88372489D01*
X172003603Y-88441647D01*
X171974578Y-88505203D01*
X171945655Y-88529728D01*
X171809076Y-88613423D01*
X172356819Y-89161165D01*
X172217989Y-89248398D01*
X172090498Y-89375889D01*
X172003265Y-89514718D01*
X171455523Y-88966976D01*
X171331002Y-89170175D01*
X171237393Y-89396169D01*
X171237389Y-89396181D01*
X171180287Y-89634029D01*
X171161094Y-89877900D01*
X171180287Y-90121770D01*
X171237389Y-90359618D01*
X171237393Y-90359630D01*
X171331004Y-90585629D01*
X171455522Y-90788823D01*
X172003265Y-90241080D01*
X172090498Y-90379911D01*
X172217989Y-90507402D01*
X172356818Y-90594634D01*
X171809075Y-91142376D01*
X172012270Y-91266895D01*
X172238269Y-91360506D01*
X172238281Y-91360510D01*
X172476129Y-91417612D01*
X172720000Y-91436805D01*
X172963870Y-91417612D01*
X173201718Y-91360510D01*
X173201730Y-91360506D01*
X173427729Y-91266895D01*
X173630923Y-91142376D01*
X173083181Y-90594634D01*
X173222011Y-90507402D01*
X173349502Y-90379911D01*
X173436734Y-90241081D01*
X173984476Y-90788823D01*
X174108995Y-90585629D01*
X174202606Y-90359630D01*
X174202610Y-90359618D01*
X174259712Y-90121770D01*
X174278905Y-89877900D01*
X174259712Y-89634029D01*
X174202610Y-89396181D01*
X174202606Y-89396169D01*
X174108995Y-89170170D01*
X173984476Y-88966975D01*
X173436733Y-89514717D01*
X173349502Y-89375889D01*
X173222011Y-89248398D01*
X173083180Y-89161165D01*
X173630923Y-88613422D01*
X173494345Y-88529727D01*
X173447470Y-88477916D01*
X173436047Y-88408986D01*
X173463704Y-88344823D01*
X173521660Y-88305798D01*
X173559135Y-88300000D01*
X175276000Y-88300000D01*
X175343039Y-88319685D01*
X175388794Y-88372489D01*
X175400000Y-88424000D01*
X175400000Y-96125459D01*
X175380315Y-96192498D01*
X175327511Y-96238253D01*
X175275461Y-96249458D01*
X173701986Y-96242616D01*
X173635033Y-96222640D01*
X173614844Y-96206298D01*
X173083181Y-95674634D01*
X173222011Y-95587402D01*
X173349502Y-95459911D01*
X173436734Y-95321081D01*
X173984476Y-95868823D01*
X174108995Y-95665629D01*
X174202606Y-95439630D01*
X174202610Y-95439618D01*
X174259712Y-95201770D01*
X174278905Y-94957900D01*
X174259712Y-94714029D01*
X174202610Y-94476181D01*
X174202606Y-94476169D01*
X174108995Y-94250170D01*
X173984476Y-94046975D01*
X173436733Y-94594717D01*
X173349502Y-94455889D01*
X173222011Y-94328398D01*
X173083180Y-94241165D01*
X173630923Y-93693422D01*
X173427729Y-93568904D01*
X173201730Y-93475293D01*
X173201718Y-93475289D01*
X172963870Y-93418187D01*
X172720000Y-93398994D01*
X172476129Y-93418187D01*
X172238281Y-93475289D01*
X172238269Y-93475293D01*
X172012275Y-93568902D01*
X171809076Y-93693423D01*
X172356819Y-94241165D01*
X172217989Y-94328398D01*
X172090498Y-94455889D01*
X172003265Y-94594718D01*
X171455523Y-94046976D01*
X171331002Y-94250175D01*
X171237393Y-94476169D01*
X171237389Y-94476181D01*
X171180287Y-94714029D01*
X171161094Y-94957900D01*
X171180287Y-95201770D01*
X171237389Y-95439618D01*
X171237393Y-95439630D01*
X171331004Y-95665629D01*
X171455522Y-95868823D01*
X172003265Y-95321080D01*
X172090498Y-95459911D01*
X172217989Y-95587402D01*
X172356818Y-95674634D01*
X171833659Y-96197792D01*
X171772336Y-96231277D01*
X171745439Y-96234110D01*
X168606920Y-96220464D01*
X168606932Y-96217691D01*
X168581619Y-96220354D01*
X168579821Y-96220347D01*
X168517737Y-96189094D01*
X168514758Y-96186212D01*
X168003181Y-95674634D01*
X168142011Y-95587402D01*
X168269502Y-95459911D01*
X168356734Y-95321081D01*
X168904476Y-95868823D01*
X169028995Y-95665629D01*
X169122606Y-95439630D01*
X169122610Y-95439618D01*
X169179712Y-95201770D01*
X169198905Y-94957900D01*
X169179712Y-94714029D01*
X169122610Y-94476181D01*
X169122606Y-94476169D01*
X169028995Y-94250170D01*
X168904476Y-94046975D01*
X168356733Y-94594717D01*
X168269502Y-94455889D01*
X168142011Y-94328398D01*
X168003180Y-94241165D01*
X168550923Y-93693422D01*
X168347729Y-93568904D01*
X168121730Y-93475293D01*
X168121718Y-93475289D01*
X167883870Y-93418187D01*
X167640000Y-93398994D01*
X167396129Y-93418187D01*
X167158281Y-93475289D01*
X167158269Y-93475293D01*
X166932275Y-93568902D01*
X166729076Y-93693423D01*
X167276819Y-94241165D01*
X167137989Y-94328398D01*
X167010498Y-94455889D01*
X166923265Y-94594718D01*
X166375523Y-94046976D01*
X166251002Y-94250175D01*
X166157393Y-94476169D01*
X166157389Y-94476181D01*
X166100287Y-94714029D01*
X166081094Y-94957900D01*
X166100287Y-95201770D01*
X166157389Y-95439618D01*
X166157393Y-95439630D01*
X166251004Y-95665629D01*
X166375522Y-95868823D01*
X166923265Y-95321080D01*
X167010498Y-95459911D01*
X167137989Y-95587402D01*
X167276818Y-95674634D01*
X166768871Y-96182582D01*
X166714561Y-96212237D01*
X166650088Y-96211956D01*
X166650076Y-96211956D01*
X164023461Y-96200536D01*
X163956508Y-96180560D01*
X163910983Y-96127558D01*
X163900000Y-96076537D01*
X163900000Y-94649992D01*
X163889599Y-94462794D01*
X163850000Y-93750000D01*
X163900000Y-93900000D01*
X163900000Y-93500000D01*
X164276599Y-93500000D01*
X164276599Y-94025000D01*
X164326027Y-94025000D01*
X164326043Y-94024999D01*
X164385571Y-94018598D01*
X164385578Y-94018596D01*
X164520285Y-93968354D01*
X164520292Y-93968350D01*
X164635386Y-93882190D01*
X164635389Y-93882187D01*
X164721549Y-93767093D01*
X164721553Y-93767086D01*
X164771795Y-93632379D01*
X164771797Y-93632372D01*
X164778198Y-93572844D01*
X164778199Y-93572827D01*
X164778199Y-93500000D01*
X164276599Y-93500000D01*
X163900000Y-93500000D01*
X163900000Y-92475000D01*
X164276599Y-92475000D01*
X164276599Y-93000000D01*
X164778199Y-93000000D01*
X164778199Y-92927172D01*
X164778198Y-92927155D01*
X164771797Y-92867627D01*
X164771795Y-92867620D01*
X164721553Y-92732913D01*
X164721549Y-92732906D01*
X164635389Y-92617812D01*
X164635386Y-92617809D01*
X164520292Y-92531649D01*
X164520285Y-92531645D01*
X164385578Y-92481403D01*
X164385571Y-92481401D01*
X164326043Y-92475000D01*
X164276599Y-92475000D01*
X163900000Y-92475000D01*
X163900000Y-89024499D01*
X163919685Y-88957460D01*
X163972489Y-88911705D01*
X164023998Y-88900499D01*
X164497872Y-88900499D01*
X164557483Y-88894091D01*
X164692331Y-88843796D01*
X164807546Y-88757546D01*
X164893796Y-88642331D01*
X164944091Y-88507483D01*
X164950500Y-88447873D01*
X164950500Y-88424000D01*
X164970185Y-88356961D01*
X165022989Y-88311206D01*
X165074500Y-88300000D01*
X166800865Y-88300000D01*
X166867904Y-88319685D01*
G37*
%TD.AperFunction*%
%TA.AperFunction,Conductor*%
G36*
X168917539Y-88319685D02*
G01*
X168963294Y-88372489D01*
X168974500Y-88424000D01*
X168974500Y-88845590D01*
X168954815Y-88912629D01*
X168938181Y-88933271D01*
X168356733Y-89514718D01*
X168269502Y-89375889D01*
X168142011Y-89248398D01*
X168003180Y-89161165D01*
X168550923Y-88613422D01*
X168414345Y-88529727D01*
X168367470Y-88477916D01*
X168356047Y-88408986D01*
X168383704Y-88344823D01*
X168441660Y-88305798D01*
X168479135Y-88300000D01*
X168850500Y-88300000D01*
X168917539Y-88319685D01*
G37*
%TD.AperFunction*%
%TD*%
M02*
