G04 #@! TF.GenerationSoftware,KiCad,Pcbnew,8.0.7-8.0.7-0~ubuntu22.04.1*
G04 #@! TF.CreationDate,2025-02-07T12:30:37-08:00*
G04 #@! TF.ProjectId,WaDAR_Tag_V1_2,57614441-525f-4546-9167-5f56315f322e,rev?*
G04 #@! TF.SameCoordinates,Original*
G04 #@! TF.FileFunction,Legend,Bot*
G04 #@! TF.FilePolarity,Positive*
%FSLAX46Y46*%
G04 Gerber Fmt 4.6, Leading zero omitted, Abs format (unit mm)*
G04 Created by KiCad (PCBNEW 8.0.7-8.0.7-0~ubuntu22.04.1) date 2025-02-07 12:30:37*
%MOMM*%
%LPD*%
G01*
G04 APERTURE LIST*
%ADD10C,0.120000*%
%ADD11C,2.108200*%
%ADD12R,2.600000X3.600000*%
G04 APERTURE END LIST*
D10*
X149100000Y-52575000D02*
X152300000Y-52575000D01*
X149100000Y-54125000D02*
X149100000Y-52575000D01*
X149100000Y-58725000D02*
X149100000Y-60275000D01*
X149100000Y-60275000D02*
X152300000Y-60275000D01*
X152300000Y-48075000D02*
X175000000Y-48075000D01*
X152300000Y-52575000D02*
X152300000Y-48075000D01*
X152300000Y-60275000D02*
X152300000Y-64775000D01*
X173200000Y-64775000D02*
X152300000Y-64775000D01*
X175000000Y-52575000D02*
X175000000Y-48075000D01*
X175000000Y-60275000D02*
X175000000Y-62975000D01*
X175000000Y-62975000D02*
X173200000Y-64775000D01*
X176650000Y-63425000D02*
X176650000Y-61425000D01*
X177650000Y-62425000D02*
X175650000Y-62425000D01*
X178200000Y-52575000D02*
X175000000Y-52575000D01*
X178200000Y-54125000D02*
X178200000Y-52575000D01*
X178200000Y-58725000D02*
X178200000Y-60275000D01*
X178200000Y-60275000D02*
X175000000Y-60275000D01*
%LPC*%
D11*
X160860000Y-73740000D03*
X160860000Y-68660000D03*
X165940000Y-68660000D03*
X165940000Y-73740000D03*
X163400000Y-71200000D03*
D12*
X178300000Y-56425000D03*
X149000000Y-56425000D03*
%LPD*%
M02*
