M48
; DRILL file {KiCad 8.0.7-8.0.7-0~ubuntu22.04.1} date 2025-02-07T18:38:13-0800
; FORMAT={-:-/ absolute / inch / decimal}
; #@! TF.CreationDate,2025-02-07T18:38:13-08:00
; #@! TF.GenerationSoftware,Kicad,Pcbnew,8.0.7-8.0.7-0~ubuntu22.04.1
; #@! TF.FileFunction,Plated,1,2,PTH
FMAT,2
INCH
; #@! TA.AperFunction,Plated,PTH,ViaDrill
T1C0.0157
; #@! TA.AperFunction,Plated,PTH,ComponentDrill
T2C0.0630
%
G90
G05
T1
X5.8661Y-2.2215
X6.374Y-2.3346
X6.374Y-2.374
X6.374Y-2.4134
X6.374Y-2.4528
X6.374Y-2.4921
X6.374Y-2.5315
X6.374Y-2.5709
X6.374Y-2.6102
X6.5039Y-2.3346
X6.5039Y-2.374
X6.5039Y-2.4134
X6.5039Y-2.4528
X6.5039Y-2.4921
X6.5039Y-2.5315
X6.5039Y-2.5709
X6.5039Y-2.6102
X7.0197Y-2.2215
T2
X6.3331Y-2.7031
X6.3331Y-2.9031
X6.4331Y-2.8031
X6.5331Y-2.7031
X6.5331Y-2.9031
M30
