G04 #@! TF.GenerationSoftware,KiCad,Pcbnew,8.0.7-8.0.7-0~ubuntu22.04.1*
G04 #@! TF.CreationDate,2025-02-07T12:30:24-08:00*
G04 #@! TF.ProjectId,WaDAR_Tag_V1_2,57614441-525f-4546-9167-5f56315f322e,rev?*
G04 #@! TF.SameCoordinates,Original*
G04 #@! TF.FileFunction,Copper,L2,Bot*
G04 #@! TF.FilePolarity,Positive*
%FSLAX46Y46*%
G04 Gerber Fmt 4.6, Leading zero omitted, Abs format (unit mm)*
G04 Created by KiCad (PCBNEW 8.0.7-8.0.7-0~ubuntu22.04.1) date 2025-02-07 12:30:24*
%MOMM*%
%LPD*%
G01*
G04 APERTURE LIST*
G04 #@! TA.AperFunction,ComponentPad*
%ADD10C,2.108200*%
G04 #@! TD*
G04 #@! TA.AperFunction,SMDPad,CuDef*
%ADD11R,2.600000X3.600000*%
G04 #@! TD*
G04 #@! TA.AperFunction,ViaPad*
%ADD12C,0.800000*%
G04 #@! TD*
G04 APERTURE END LIST*
D10*
X160860000Y-73740000D03*
X160860000Y-68660000D03*
X165940000Y-68660000D03*
X165940000Y-73740000D03*
X163400000Y-71200000D03*
D11*
X178300000Y-56425000D03*
X149000000Y-56425000D03*
D12*
X161900000Y-65300000D03*
X165200000Y-60300000D03*
X165200000Y-62300000D03*
X165200000Y-63300000D03*
X161900000Y-64300000D03*
X161900000Y-66300000D03*
X165200000Y-61300000D03*
X161900000Y-59300000D03*
X161900000Y-62300000D03*
X165200000Y-59300000D03*
X161900000Y-61300000D03*
X149000000Y-56425000D03*
X165200000Y-64300000D03*
X161900000Y-63300000D03*
X161900000Y-60300000D03*
X165200000Y-66300000D03*
X165200000Y-65300000D03*
X178300000Y-56425000D03*
G04 #@! TA.AperFunction,Conductor*
G36*
X183543039Y-45519685D02*
G01*
X183588794Y-45572489D01*
X183600000Y-45624000D01*
X183600000Y-75376000D01*
X183580315Y-75443039D01*
X183527511Y-75488794D01*
X183476000Y-75500000D01*
X166313977Y-75500000D01*
X166246938Y-75480315D01*
X166201183Y-75427511D01*
X166191239Y-75358353D01*
X166220264Y-75294797D01*
X166279042Y-75257023D01*
X166285030Y-75255426D01*
X166421718Y-75222610D01*
X166421730Y-75222606D01*
X166647729Y-75128995D01*
X166850922Y-75004476D01*
X166850923Y-75004475D01*
X166302370Y-74455922D01*
X166318989Y-74449039D01*
X166450034Y-74361478D01*
X166561478Y-74250034D01*
X166649039Y-74118989D01*
X166655922Y-74102370D01*
X167204475Y-74650923D01*
X167204476Y-74650922D01*
X167328995Y-74447729D01*
X167422606Y-74221730D01*
X167422610Y-74221718D01*
X167479712Y-73983870D01*
X167498905Y-73740000D01*
X167480017Y-73500000D01*
X180597422Y-73500000D01*
X180617943Y-73701819D01*
X180678669Y-73895364D01*
X180678676Y-73895379D01*
X180777118Y-74072738D01*
X180777121Y-74072743D01*
X180909255Y-74226660D01*
X180909256Y-74226662D01*
X181069668Y-74350829D01*
X181069672Y-74350832D01*
X181251799Y-74440170D01*
X181448182Y-74491017D01*
X181650780Y-74501292D01*
X181851299Y-74470573D01*
X182041530Y-74400120D01*
X182213684Y-74292815D01*
X182360715Y-74153052D01*
X182476601Y-73986553D01*
X182556600Y-73800135D01*
X182597435Y-73601429D01*
X182600000Y-73500000D01*
X182597435Y-73398571D01*
X182556600Y-73199865D01*
X182476601Y-73013447D01*
X182360715Y-72846948D01*
X182213684Y-72707185D01*
X182041530Y-72599880D01*
X181933391Y-72559830D01*
X181851300Y-72529427D01*
X181851294Y-72529426D01*
X181650781Y-72498708D01*
X181650780Y-72498708D01*
X181549481Y-72503845D01*
X181448181Y-72508983D01*
X181251798Y-72559830D01*
X181069668Y-72649170D01*
X180909256Y-72773337D01*
X180909255Y-72773339D01*
X180777121Y-72927256D01*
X180777118Y-72927261D01*
X180678676Y-73104620D01*
X180678669Y-73104635D01*
X180617943Y-73298180D01*
X180597422Y-73500000D01*
X167480017Y-73500000D01*
X167479712Y-73496129D01*
X167422610Y-73258281D01*
X167422606Y-73258269D01*
X167328995Y-73032270D01*
X167204475Y-72829075D01*
X166655922Y-73377628D01*
X166649039Y-73361011D01*
X166561478Y-73229966D01*
X166450034Y-73118522D01*
X166318989Y-73030961D01*
X166302368Y-73024076D01*
X166850923Y-72475523D01*
X166647729Y-72351004D01*
X166421730Y-72257393D01*
X166421718Y-72257389D01*
X166183870Y-72200287D01*
X165940000Y-72181094D01*
X165696129Y-72200287D01*
X165458281Y-72257389D01*
X165458269Y-72257393D01*
X165232270Y-72351004D01*
X165029075Y-72475523D01*
X165577629Y-73024077D01*
X165561011Y-73030961D01*
X165429966Y-73118522D01*
X165318522Y-73229966D01*
X165230961Y-73361011D01*
X165224077Y-73377629D01*
X164675523Y-72829075D01*
X164551004Y-73032270D01*
X164457393Y-73258269D01*
X164457389Y-73258281D01*
X164400287Y-73496129D01*
X164381094Y-73740000D01*
X164400287Y-73983870D01*
X164457389Y-74221718D01*
X164457393Y-74221730D01*
X164551004Y-74447729D01*
X164675523Y-74650923D01*
X165224077Y-74102369D01*
X165230961Y-74118989D01*
X165318522Y-74250034D01*
X165429966Y-74361478D01*
X165561011Y-74449039D01*
X165577629Y-74455922D01*
X165029075Y-75004475D01*
X165029075Y-75004476D01*
X165232270Y-75128995D01*
X165458269Y-75222606D01*
X165458281Y-75222610D01*
X165594970Y-75255426D01*
X165655562Y-75290217D01*
X165687726Y-75352243D01*
X165681250Y-75421812D01*
X165638191Y-75476836D01*
X165572218Y-75499845D01*
X165566023Y-75500000D01*
X161233977Y-75500000D01*
X161166938Y-75480315D01*
X161121183Y-75427511D01*
X161111239Y-75358353D01*
X161140264Y-75294797D01*
X161199042Y-75257023D01*
X161205030Y-75255426D01*
X161341718Y-75222610D01*
X161341730Y-75222606D01*
X161567729Y-75128995D01*
X161770922Y-75004476D01*
X161770923Y-75004475D01*
X161222370Y-74455922D01*
X161238989Y-74449039D01*
X161370034Y-74361478D01*
X161481478Y-74250034D01*
X161569039Y-74118989D01*
X161575922Y-74102370D01*
X162124475Y-74650923D01*
X162124476Y-74650922D01*
X162248995Y-74447729D01*
X162342606Y-74221730D01*
X162342610Y-74221718D01*
X162399712Y-73983870D01*
X162418905Y-73740000D01*
X162399712Y-73496129D01*
X162342610Y-73258281D01*
X162342606Y-73258269D01*
X162248995Y-73032270D01*
X162124475Y-72829075D01*
X161575922Y-73377628D01*
X161569039Y-73361011D01*
X161481478Y-73229966D01*
X161370034Y-73118522D01*
X161238989Y-73030961D01*
X161222368Y-73024076D01*
X161770923Y-72475523D01*
X161567729Y-72351004D01*
X161341730Y-72257393D01*
X161341718Y-72257389D01*
X161103870Y-72200287D01*
X160860000Y-72181094D01*
X160616129Y-72200287D01*
X160378281Y-72257389D01*
X160378269Y-72257393D01*
X160152270Y-72351004D01*
X159949075Y-72475523D01*
X160497629Y-73024077D01*
X160481011Y-73030961D01*
X160349966Y-73118522D01*
X160238522Y-73229966D01*
X160150961Y-73361011D01*
X160144077Y-73377629D01*
X159595523Y-72829075D01*
X159471004Y-73032270D01*
X159377393Y-73258269D01*
X159377389Y-73258281D01*
X159320287Y-73496129D01*
X159301094Y-73740000D01*
X159320287Y-73983870D01*
X159377389Y-74221718D01*
X159377393Y-74221730D01*
X159471004Y-74447729D01*
X159595523Y-74650923D01*
X160144077Y-74102369D01*
X160150961Y-74118989D01*
X160238522Y-74250034D01*
X160349966Y-74361478D01*
X160481011Y-74449039D01*
X160497629Y-74455922D01*
X159949075Y-75004475D01*
X159949075Y-75004476D01*
X160152270Y-75128995D01*
X160378269Y-75222606D01*
X160378281Y-75222610D01*
X160514970Y-75255426D01*
X160575562Y-75290217D01*
X160607726Y-75352243D01*
X160601250Y-75421812D01*
X160558191Y-75476836D01*
X160492218Y-75499845D01*
X160486023Y-75500000D01*
X143724000Y-75500000D01*
X143656961Y-75480315D01*
X143611206Y-75427511D01*
X143600000Y-75376000D01*
X143600000Y-73500000D01*
X144597422Y-73500000D01*
X144617943Y-73701819D01*
X144678669Y-73895364D01*
X144678676Y-73895379D01*
X144777118Y-74072738D01*
X144777121Y-74072743D01*
X144909255Y-74226660D01*
X144909256Y-74226662D01*
X145069668Y-74350829D01*
X145069672Y-74350832D01*
X145251799Y-74440170D01*
X145448182Y-74491017D01*
X145650780Y-74501292D01*
X145851299Y-74470573D01*
X146041530Y-74400120D01*
X146213684Y-74292815D01*
X146360715Y-74153052D01*
X146476601Y-73986553D01*
X146556600Y-73800135D01*
X146597435Y-73601429D01*
X146600000Y-73500000D01*
X146597435Y-73398571D01*
X146556600Y-73199865D01*
X146476601Y-73013447D01*
X146360715Y-72846948D01*
X146213684Y-72707185D01*
X146041530Y-72599880D01*
X145933391Y-72559830D01*
X145851300Y-72529427D01*
X145851294Y-72529426D01*
X145650781Y-72498708D01*
X145650780Y-72498708D01*
X145549481Y-72503845D01*
X145448181Y-72508983D01*
X145251798Y-72559830D01*
X145069668Y-72649170D01*
X144909256Y-72773337D01*
X144909255Y-72773339D01*
X144777121Y-72927256D01*
X144777118Y-72927261D01*
X144678676Y-73104620D01*
X144678669Y-73104635D01*
X144617943Y-73298180D01*
X144597422Y-73500000D01*
X143600000Y-73500000D01*
X143600000Y-71200000D01*
X161840593Y-71200000D01*
X161859792Y-71443948D01*
X161916915Y-71681883D01*
X161916915Y-71681884D01*
X162010555Y-71907952D01*
X162010557Y-71907955D01*
X162138409Y-72116590D01*
X162138410Y-72116593D01*
X162138413Y-72116596D01*
X162297333Y-72302667D01*
X162441370Y-72425687D01*
X162483406Y-72461589D01*
X162483408Y-72461589D01*
X162543980Y-72498708D01*
X162692044Y-72589442D01*
X162692047Y-72589444D01*
X162918116Y-72683084D01*
X163122301Y-72732104D01*
X163156055Y-72740208D01*
X163400000Y-72759407D01*
X163643945Y-72740208D01*
X163881883Y-72683084D01*
X163881884Y-72683084D01*
X164107952Y-72589444D01*
X164107953Y-72589443D01*
X164107956Y-72589442D01*
X164316596Y-72461587D01*
X164502667Y-72302667D01*
X164661587Y-72116596D01*
X164789442Y-71907956D01*
X164883084Y-71681883D01*
X164940208Y-71443945D01*
X164959407Y-71200000D01*
X164940208Y-70956055D01*
X164883084Y-70718117D01*
X164883084Y-70718116D01*
X164883084Y-70718115D01*
X164789444Y-70492047D01*
X164789442Y-70492044D01*
X164661590Y-70283409D01*
X164661589Y-70283406D01*
X164625687Y-70241370D01*
X164502667Y-70097333D01*
X164379645Y-69992262D01*
X164316593Y-69938410D01*
X164316590Y-69938409D01*
X164107955Y-69810557D01*
X164107952Y-69810555D01*
X163881883Y-69716915D01*
X163643948Y-69659792D01*
X163400000Y-69640593D01*
X163156051Y-69659792D01*
X162918116Y-69716915D01*
X162918115Y-69716915D01*
X162692047Y-69810555D01*
X162692044Y-69810557D01*
X162483409Y-69938409D01*
X162483406Y-69938410D01*
X162297333Y-70097333D01*
X162138410Y-70283406D01*
X162138409Y-70283409D01*
X162010557Y-70492044D01*
X162010555Y-70492047D01*
X161916915Y-70718115D01*
X161916915Y-70718116D01*
X161859792Y-70956051D01*
X161840593Y-71200000D01*
X143600000Y-71200000D01*
X143600000Y-68660000D01*
X159301094Y-68660000D01*
X159320287Y-68903870D01*
X159377389Y-69141718D01*
X159377393Y-69141730D01*
X159471004Y-69367729D01*
X159595523Y-69570923D01*
X160144077Y-69022369D01*
X160150961Y-69038989D01*
X160238522Y-69170034D01*
X160349966Y-69281478D01*
X160481011Y-69369039D01*
X160497629Y-69375922D01*
X159949075Y-69924475D01*
X159949075Y-69924476D01*
X160152270Y-70048995D01*
X160378269Y-70142606D01*
X160378281Y-70142610D01*
X160616129Y-70199712D01*
X160860000Y-70218905D01*
X161103870Y-70199712D01*
X161341718Y-70142610D01*
X161341730Y-70142606D01*
X161567729Y-70048995D01*
X161770922Y-69924476D01*
X161770923Y-69924475D01*
X161222370Y-69375922D01*
X161238989Y-69369039D01*
X161370034Y-69281478D01*
X161481478Y-69170034D01*
X161569039Y-69038989D01*
X161575922Y-69022370D01*
X162124475Y-69570923D01*
X162124476Y-69570922D01*
X162248995Y-69367729D01*
X162342606Y-69141730D01*
X162342610Y-69141718D01*
X162399712Y-68903870D01*
X162418905Y-68660000D01*
X164381094Y-68660000D01*
X164400287Y-68903870D01*
X164457389Y-69141718D01*
X164457393Y-69141730D01*
X164551004Y-69367729D01*
X164675523Y-69570923D01*
X165224077Y-69022369D01*
X165230961Y-69038989D01*
X165318522Y-69170034D01*
X165429966Y-69281478D01*
X165561011Y-69369039D01*
X165577629Y-69375922D01*
X165029075Y-69924475D01*
X165029075Y-69924476D01*
X165232270Y-70048995D01*
X165458269Y-70142606D01*
X165458281Y-70142610D01*
X165696129Y-70199712D01*
X165940000Y-70218905D01*
X166183870Y-70199712D01*
X166421718Y-70142610D01*
X166421730Y-70142606D01*
X166647729Y-70048995D01*
X166850922Y-69924476D01*
X166850923Y-69924475D01*
X166302370Y-69375922D01*
X166318989Y-69369039D01*
X166450034Y-69281478D01*
X166561478Y-69170034D01*
X166649039Y-69038989D01*
X166655922Y-69022370D01*
X167204475Y-69570923D01*
X167204476Y-69570922D01*
X167328995Y-69367729D01*
X167422606Y-69141730D01*
X167422610Y-69141718D01*
X167479712Y-68903870D01*
X167498905Y-68660000D01*
X167479712Y-68416129D01*
X167422610Y-68178281D01*
X167422606Y-68178269D01*
X167328995Y-67952270D01*
X167204475Y-67749075D01*
X166655922Y-68297628D01*
X166649039Y-68281011D01*
X166561478Y-68149966D01*
X166450034Y-68038522D01*
X166318989Y-67950961D01*
X166302368Y-67944076D01*
X166850923Y-67395523D01*
X166647729Y-67271004D01*
X166421730Y-67177393D01*
X166421718Y-67177389D01*
X166183870Y-67120287D01*
X165940000Y-67101094D01*
X165696129Y-67120287D01*
X165458281Y-67177389D01*
X165458269Y-67177393D01*
X165232270Y-67271004D01*
X165029075Y-67395523D01*
X165577629Y-67944077D01*
X165561011Y-67950961D01*
X165429966Y-68038522D01*
X165318522Y-68149966D01*
X165230961Y-68281011D01*
X165224077Y-68297629D01*
X164675523Y-67749075D01*
X164551004Y-67952270D01*
X164457393Y-68178269D01*
X164457389Y-68178281D01*
X164400287Y-68416129D01*
X164381094Y-68660000D01*
X162418905Y-68660000D01*
X162399712Y-68416129D01*
X162342610Y-68178281D01*
X162342606Y-68178269D01*
X162248995Y-67952270D01*
X162124475Y-67749075D01*
X161575922Y-68297628D01*
X161569039Y-68281011D01*
X161481478Y-68149966D01*
X161370034Y-68038522D01*
X161238989Y-67950961D01*
X161222368Y-67944076D01*
X161770923Y-67395523D01*
X161567729Y-67271004D01*
X161341730Y-67177393D01*
X161341718Y-67177389D01*
X161103870Y-67120287D01*
X160860000Y-67101094D01*
X160616129Y-67120287D01*
X160378281Y-67177389D01*
X160378269Y-67177393D01*
X160152270Y-67271004D01*
X159949075Y-67395523D01*
X160497629Y-67944077D01*
X160481011Y-67950961D01*
X160349966Y-68038522D01*
X160238522Y-68149966D01*
X160150961Y-68281011D01*
X160144077Y-68297629D01*
X159595523Y-67749075D01*
X159471004Y-67952270D01*
X159377393Y-68178269D01*
X159377389Y-68178281D01*
X159320287Y-68416129D01*
X159301094Y-68660000D01*
X143600000Y-68660000D01*
X143600000Y-58272844D01*
X147200000Y-58272844D01*
X147206401Y-58332372D01*
X147206403Y-58332379D01*
X147256645Y-58467086D01*
X147256649Y-58467093D01*
X147342809Y-58582187D01*
X147342812Y-58582190D01*
X147457906Y-58668350D01*
X147457913Y-58668354D01*
X147592620Y-58718596D01*
X147592627Y-58718598D01*
X147652155Y-58724999D01*
X147652172Y-58725000D01*
X148750000Y-58725000D01*
X149250000Y-58725000D01*
X150347828Y-58725000D01*
X150347844Y-58724999D01*
X150407372Y-58718598D01*
X150407379Y-58718596D01*
X150542086Y-58668354D01*
X150542093Y-58668350D01*
X150657187Y-58582190D01*
X150657190Y-58582187D01*
X150743350Y-58467093D01*
X150743354Y-58467086D01*
X150793596Y-58332379D01*
X150793598Y-58332372D01*
X150799999Y-58272844D01*
X150800000Y-58272827D01*
X150800000Y-56675000D01*
X149250000Y-56675000D01*
X149250000Y-58725000D01*
X148750000Y-58725000D01*
X148750000Y-56675000D01*
X147200000Y-56675000D01*
X147200000Y-58272844D01*
X143600000Y-58272844D01*
X143600000Y-54577155D01*
X147200000Y-54577155D01*
X147200000Y-56175000D01*
X148750000Y-56175000D01*
X149250000Y-56175000D01*
X150800000Y-56175000D01*
X150800000Y-54577172D01*
X150799999Y-54577155D01*
X150799997Y-54577135D01*
X176499500Y-54577135D01*
X176499500Y-58272870D01*
X176499501Y-58272876D01*
X176505908Y-58332483D01*
X176556202Y-58467328D01*
X176556206Y-58467335D01*
X176642452Y-58582544D01*
X176642455Y-58582547D01*
X176757664Y-58668793D01*
X176757671Y-58668797D01*
X176892517Y-58719091D01*
X176892516Y-58719091D01*
X176899444Y-58719835D01*
X176952127Y-58725500D01*
X179647872Y-58725499D01*
X179707483Y-58719091D01*
X179842331Y-58668796D01*
X179957546Y-58582546D01*
X180043796Y-58467331D01*
X180094091Y-58332483D01*
X180100500Y-58272873D01*
X180100499Y-54577128D01*
X180094091Y-54517517D01*
X180043884Y-54382906D01*
X180043797Y-54382671D01*
X180043793Y-54382664D01*
X179957547Y-54267455D01*
X179957544Y-54267452D01*
X179842335Y-54181206D01*
X179842328Y-54181202D01*
X179707482Y-54130908D01*
X179707483Y-54130908D01*
X179647883Y-54124501D01*
X179647881Y-54124500D01*
X179647873Y-54124500D01*
X179647864Y-54124500D01*
X176952129Y-54124500D01*
X176952123Y-54124501D01*
X176892516Y-54130908D01*
X176757671Y-54181202D01*
X176757664Y-54181206D01*
X176642455Y-54267452D01*
X176642452Y-54267455D01*
X176556206Y-54382664D01*
X176556202Y-54382671D01*
X176505908Y-54517517D01*
X176499501Y-54577116D01*
X176499501Y-54577123D01*
X176499500Y-54577135D01*
X150799997Y-54577135D01*
X150793598Y-54517627D01*
X150793596Y-54517620D01*
X150743354Y-54382913D01*
X150743350Y-54382906D01*
X150657190Y-54267812D01*
X150657187Y-54267809D01*
X150542093Y-54181649D01*
X150542086Y-54181645D01*
X150407379Y-54131403D01*
X150407372Y-54131401D01*
X150347844Y-54125000D01*
X149250000Y-54125000D01*
X149250000Y-56175000D01*
X148750000Y-56175000D01*
X148750000Y-54125000D01*
X147652155Y-54125000D01*
X147592627Y-54131401D01*
X147592620Y-54131403D01*
X147457913Y-54181645D01*
X147457906Y-54181649D01*
X147342812Y-54267809D01*
X147342809Y-54267812D01*
X147256649Y-54382906D01*
X147256645Y-54382913D01*
X147206403Y-54517620D01*
X147206401Y-54517627D01*
X147200000Y-54577155D01*
X143600000Y-54577155D01*
X143600000Y-47500000D01*
X144597422Y-47500000D01*
X144617943Y-47701819D01*
X144678669Y-47895364D01*
X144678676Y-47895379D01*
X144777118Y-48072738D01*
X144777121Y-48072743D01*
X144909255Y-48226660D01*
X144909256Y-48226662D01*
X145069668Y-48350829D01*
X145069672Y-48350832D01*
X145251799Y-48440170D01*
X145448182Y-48491017D01*
X145650780Y-48501292D01*
X145851299Y-48470573D01*
X146041530Y-48400120D01*
X146213684Y-48292815D01*
X146360715Y-48153052D01*
X146476601Y-47986553D01*
X146556600Y-47800135D01*
X146597435Y-47601429D01*
X146600000Y-47500000D01*
X180597422Y-47500000D01*
X180617943Y-47701819D01*
X180678669Y-47895364D01*
X180678676Y-47895379D01*
X180777118Y-48072738D01*
X180777121Y-48072743D01*
X180909255Y-48226660D01*
X180909256Y-48226662D01*
X181069668Y-48350829D01*
X181069672Y-48350832D01*
X181251799Y-48440170D01*
X181448182Y-48491017D01*
X181650780Y-48501292D01*
X181851299Y-48470573D01*
X182041530Y-48400120D01*
X182213684Y-48292815D01*
X182360715Y-48153052D01*
X182476601Y-47986553D01*
X182556600Y-47800135D01*
X182597435Y-47601429D01*
X182600000Y-47500000D01*
X182597435Y-47398571D01*
X182556600Y-47199865D01*
X182476601Y-47013447D01*
X182360715Y-46846948D01*
X182213684Y-46707185D01*
X182041530Y-46599880D01*
X181933391Y-46559830D01*
X181851300Y-46529427D01*
X181851294Y-46529426D01*
X181650781Y-46498708D01*
X181650780Y-46498708D01*
X181549481Y-46503845D01*
X181448181Y-46508983D01*
X181251798Y-46559830D01*
X181069668Y-46649170D01*
X180909256Y-46773337D01*
X180909255Y-46773339D01*
X180777121Y-46927256D01*
X180777118Y-46927261D01*
X180678676Y-47104620D01*
X180678669Y-47104635D01*
X180617943Y-47298180D01*
X180597422Y-47500000D01*
X146600000Y-47500000D01*
X146597435Y-47398571D01*
X146556600Y-47199865D01*
X146476601Y-47013447D01*
X146360715Y-46846948D01*
X146213684Y-46707185D01*
X146041530Y-46599880D01*
X145933391Y-46559830D01*
X145851300Y-46529427D01*
X145851294Y-46529426D01*
X145650781Y-46498708D01*
X145650780Y-46498708D01*
X145549481Y-46503845D01*
X145448181Y-46508983D01*
X145251798Y-46559830D01*
X145069668Y-46649170D01*
X144909256Y-46773337D01*
X144909255Y-46773339D01*
X144777121Y-46927256D01*
X144777118Y-46927261D01*
X144678676Y-47104620D01*
X144678669Y-47104635D01*
X144617943Y-47298180D01*
X144597422Y-47500000D01*
X143600000Y-47500000D01*
X143600000Y-45624000D01*
X143619685Y-45556961D01*
X143672489Y-45511206D01*
X143724000Y-45500000D01*
X183476000Y-45500000D01*
X183543039Y-45519685D01*
G37*
G04 #@! TD.AperFunction*
M02*
