G04 #@! TF.GenerationSoftware,KiCad,Pcbnew,8.0.7-8.0.7-0~ubuntu22.04.1*
G04 #@! TF.CreationDate,2025-02-07T12:30:34-08:00*
G04 #@! TF.ProjectId,WaDAR_Tag_V1_2,57614441-525f-4546-9167-5f56315f322e,rev?*
G04 #@! TF.SameCoordinates,Original*
G04 #@! TF.FileFunction,Legend,Top*
G04 #@! TF.FilePolarity,Positive*
%FSLAX46Y46*%
G04 Gerber Fmt 4.6, Leading zero omitted, Abs format (unit mm)*
G04 Created by KiCad (PCBNEW 8.0.7-8.0.7-0~ubuntu22.04.1) date 2025-02-07 12:30:34*
%MOMM*%
%LPD*%
G01*
G04 APERTURE LIST*
G04 Aperture macros list*
%AMRoundRect*
0 Rectangle with rounded corners*
0 $1 Rounding radius*
0 $2 $3 $4 $5 $6 $7 $8 $9 X,Y pos of 4 corners*
0 Add a 4 corners polygon primitive as box body*
4,1,4,$2,$3,$4,$5,$6,$7,$8,$9,$2,$3,0*
0 Add four circle primitives for the rounded corners*
1,1,$1+$1,$2,$3*
1,1,$1+$1,$4,$5*
1,1,$1+$1,$6,$7*
1,1,$1+$1,$8,$9*
0 Add four rect primitives between the rounded corners*
20,1,$1+$1,$2,$3,$4,$5,0*
20,1,$1+$1,$4,$5,$6,$7,0*
20,1,$1+$1,$6,$7,$8,$9,0*
20,1,$1+$1,$8,$9,$2,$3,0*%
G04 Aperture macros list end*
%ADD10C,0.150000*%
%ADD11C,0.100000*%
%ADD12C,0.120000*%
%ADD13C,0.152400*%
%ADD14C,1.000000*%
%ADD15RoundRect,0.140000X0.170000X-0.140000X0.170000X0.140000X-0.170000X0.140000X-0.170000X-0.140000X0*%
%ADD16C,2.108200*%
%ADD17RoundRect,0.250000X-0.475000X0.250000X-0.475000X-0.250000X0.475000X-0.250000X0.475000X0.250000X0*%
%ADD18RoundRect,0.037500X0.037500X-0.127500X0.037500X0.127500X-0.037500X0.127500X-0.037500X-0.127500X0*%
%ADD19RoundRect,0.037500X0.037500X-0.245000X0.037500X0.245000X-0.037500X0.245000X-0.037500X-0.245000X0*%
%ADD20RoundRect,0.037500X0.245000X0.037500X-0.245000X0.037500X-0.245000X-0.037500X0.245000X-0.037500X0*%
%ADD21RoundRect,0.100000X0.100000X-0.100000X0.100000X0.100000X-0.100000X0.100000X-0.100000X-0.100000X0*%
%ADD22C,0.350000*%
G04 APERTURE END LIST*
D10*
X170250000Y-55700000D02*
G75*
G02*
X170200000Y-55700000I-25000J0D01*
G01*
X170200000Y-55700000D02*
G75*
G02*
X170250000Y-55700000I25000J0D01*
G01*
X144659875Y-70558458D02*
X145659875Y-70320363D01*
X145659875Y-70320363D02*
X144945589Y-70129887D01*
X144945589Y-70129887D02*
X145659875Y-69939411D01*
X145659875Y-69939411D02*
X144659875Y-69701316D01*
X145659875Y-68891792D02*
X145136065Y-68891792D01*
X145136065Y-68891792D02*
X145040827Y-68939411D01*
X145040827Y-68939411D02*
X144993208Y-69034649D01*
X144993208Y-69034649D02*
X144993208Y-69225125D01*
X144993208Y-69225125D02*
X145040827Y-69320363D01*
X145612256Y-68891792D02*
X145659875Y-68987030D01*
X145659875Y-68987030D02*
X145659875Y-69225125D01*
X145659875Y-69225125D02*
X145612256Y-69320363D01*
X145612256Y-69320363D02*
X145517017Y-69367982D01*
X145517017Y-69367982D02*
X145421779Y-69367982D01*
X145421779Y-69367982D02*
X145326541Y-69320363D01*
X145326541Y-69320363D02*
X145278922Y-69225125D01*
X145278922Y-69225125D02*
X145278922Y-68987030D01*
X145278922Y-68987030D02*
X145231303Y-68891792D01*
X145659875Y-68415601D02*
X144659875Y-68415601D01*
X144659875Y-68415601D02*
X144659875Y-68177506D01*
X144659875Y-68177506D02*
X144707494Y-68034649D01*
X144707494Y-68034649D02*
X144802732Y-67939411D01*
X144802732Y-67939411D02*
X144897970Y-67891792D01*
X144897970Y-67891792D02*
X145088446Y-67844173D01*
X145088446Y-67844173D02*
X145231303Y-67844173D01*
X145231303Y-67844173D02*
X145421779Y-67891792D01*
X145421779Y-67891792D02*
X145517017Y-67939411D01*
X145517017Y-67939411D02*
X145612256Y-68034649D01*
X145612256Y-68034649D02*
X145659875Y-68177506D01*
X145659875Y-68177506D02*
X145659875Y-68415601D01*
X145374160Y-67463220D02*
X145374160Y-66987030D01*
X145659875Y-67558458D02*
X144659875Y-67225125D01*
X144659875Y-67225125D02*
X145659875Y-66891792D01*
X145659875Y-65987030D02*
X145183684Y-66320363D01*
X145659875Y-66558458D02*
X144659875Y-66558458D01*
X144659875Y-66558458D02*
X144659875Y-66177506D01*
X144659875Y-66177506D02*
X144707494Y-66082268D01*
X144707494Y-66082268D02*
X144755113Y-66034649D01*
X144755113Y-66034649D02*
X144850351Y-65987030D01*
X144850351Y-65987030D02*
X144993208Y-65987030D01*
X144993208Y-65987030D02*
X145088446Y-66034649D01*
X145088446Y-66034649D02*
X145136065Y-66082268D01*
X145136065Y-66082268D02*
X145183684Y-66177506D01*
X145183684Y-66177506D02*
X145183684Y-66558458D01*
X144659875Y-64939410D02*
X144659875Y-64367982D01*
X145659875Y-64653696D02*
X144659875Y-64653696D01*
X145659875Y-63606077D02*
X145136065Y-63606077D01*
X145136065Y-63606077D02*
X145040827Y-63653696D01*
X145040827Y-63653696D02*
X144993208Y-63748934D01*
X144993208Y-63748934D02*
X144993208Y-63939410D01*
X144993208Y-63939410D02*
X145040827Y-64034648D01*
X145612256Y-63606077D02*
X145659875Y-63701315D01*
X145659875Y-63701315D02*
X145659875Y-63939410D01*
X145659875Y-63939410D02*
X145612256Y-64034648D01*
X145612256Y-64034648D02*
X145517017Y-64082267D01*
X145517017Y-64082267D02*
X145421779Y-64082267D01*
X145421779Y-64082267D02*
X145326541Y-64034648D01*
X145326541Y-64034648D02*
X145278922Y-63939410D01*
X145278922Y-63939410D02*
X145278922Y-63701315D01*
X145278922Y-63701315D02*
X145231303Y-63606077D01*
X144993208Y-62701315D02*
X145802732Y-62701315D01*
X145802732Y-62701315D02*
X145897970Y-62748934D01*
X145897970Y-62748934D02*
X145945589Y-62796553D01*
X145945589Y-62796553D02*
X145993208Y-62891791D01*
X145993208Y-62891791D02*
X145993208Y-63034648D01*
X145993208Y-63034648D02*
X145945589Y-63129886D01*
X145612256Y-62701315D02*
X145659875Y-62796553D01*
X145659875Y-62796553D02*
X145659875Y-62987029D01*
X145659875Y-62987029D02*
X145612256Y-63082267D01*
X145612256Y-63082267D02*
X145564636Y-63129886D01*
X145564636Y-63129886D02*
X145469398Y-63177505D01*
X145469398Y-63177505D02*
X145183684Y-63177505D01*
X145183684Y-63177505D02*
X145088446Y-63129886D01*
X145088446Y-63129886D02*
X145040827Y-63082267D01*
X145040827Y-63082267D02*
X144993208Y-62987029D01*
X144993208Y-62987029D02*
X144993208Y-62796553D01*
X144993208Y-62796553D02*
X145040827Y-62701315D01*
X144659875Y-61606076D02*
X145659875Y-61272743D01*
X145659875Y-61272743D02*
X144659875Y-60939410D01*
X145659875Y-60082267D02*
X145659875Y-60653695D01*
X145659875Y-60367981D02*
X144659875Y-60367981D01*
X144659875Y-60367981D02*
X144802732Y-60463219D01*
X144802732Y-60463219D02*
X144897970Y-60558457D01*
X144897970Y-60558457D02*
X144945589Y-60653695D01*
X145564636Y-59653695D02*
X145612256Y-59606076D01*
X145612256Y-59606076D02*
X145659875Y-59653695D01*
X145659875Y-59653695D02*
X145612256Y-59701314D01*
X145612256Y-59701314D02*
X145564636Y-59653695D01*
X145564636Y-59653695D02*
X145659875Y-59653695D01*
X144755113Y-59225124D02*
X144707494Y-59177505D01*
X144707494Y-59177505D02*
X144659875Y-59082267D01*
X144659875Y-59082267D02*
X144659875Y-58844172D01*
X144659875Y-58844172D02*
X144707494Y-58748934D01*
X144707494Y-58748934D02*
X144755113Y-58701315D01*
X144755113Y-58701315D02*
X144850351Y-58653696D01*
X144850351Y-58653696D02*
X144945589Y-58653696D01*
X144945589Y-58653696D02*
X145088446Y-58701315D01*
X145088446Y-58701315D02*
X145659875Y-59272743D01*
X145659875Y-59272743D02*
X145659875Y-58653696D01*
X146603152Y-70463220D02*
X147460295Y-70463220D01*
X147460295Y-70463220D02*
X147555533Y-70510839D01*
X147555533Y-70510839D02*
X147603152Y-70606077D01*
X147603152Y-70606077D02*
X147603152Y-70653696D01*
X146269819Y-70463220D02*
X146317438Y-70510839D01*
X146317438Y-70510839D02*
X146365057Y-70463220D01*
X146365057Y-70463220D02*
X146317438Y-70415601D01*
X146317438Y-70415601D02*
X146269819Y-70463220D01*
X146269819Y-70463220D02*
X146365057Y-70463220D01*
X147269819Y-69510840D02*
X147269819Y-69987030D01*
X147269819Y-69987030D02*
X146269819Y-69987030D01*
X147269819Y-68748935D02*
X146746009Y-68748935D01*
X146746009Y-68748935D02*
X146650771Y-68796554D01*
X146650771Y-68796554D02*
X146603152Y-68891792D01*
X146603152Y-68891792D02*
X146603152Y-69082268D01*
X146603152Y-69082268D02*
X146650771Y-69177506D01*
X147222200Y-68748935D02*
X147269819Y-68844173D01*
X147269819Y-68844173D02*
X147269819Y-69082268D01*
X147269819Y-69082268D02*
X147222200Y-69177506D01*
X147222200Y-69177506D02*
X147126961Y-69225125D01*
X147126961Y-69225125D02*
X147031723Y-69225125D01*
X147031723Y-69225125D02*
X146936485Y-69177506D01*
X146936485Y-69177506D02*
X146888866Y-69082268D01*
X146888866Y-69082268D02*
X146888866Y-68844173D01*
X146888866Y-68844173D02*
X146841247Y-68748935D01*
X147269819Y-68272744D02*
X146269819Y-68272744D01*
X146650771Y-68272744D02*
X146603152Y-68177506D01*
X146603152Y-68177506D02*
X146603152Y-67987030D01*
X146603152Y-67987030D02*
X146650771Y-67891792D01*
X146650771Y-67891792D02*
X146698390Y-67844173D01*
X146698390Y-67844173D02*
X146793628Y-67796554D01*
X146793628Y-67796554D02*
X147079342Y-67796554D01*
X147079342Y-67796554D02*
X147174580Y-67844173D01*
X147174580Y-67844173D02*
X147222200Y-67891792D01*
X147222200Y-67891792D02*
X147269819Y-67987030D01*
X147269819Y-67987030D02*
X147269819Y-68177506D01*
X147269819Y-68177506D02*
X147222200Y-68272744D01*
X147222200Y-67320363D02*
X147269819Y-67320363D01*
X147269819Y-67320363D02*
X147365057Y-67367982D01*
X147365057Y-67367982D02*
X147412676Y-67415601D01*
X146746009Y-66129887D02*
X146746009Y-65796554D01*
X147269819Y-65653697D02*
X147269819Y-66129887D01*
X147269819Y-66129887D02*
X146269819Y-66129887D01*
X146269819Y-66129887D02*
X146269819Y-65653697D01*
X146269819Y-65367982D02*
X147269819Y-65034649D01*
X147269819Y-65034649D02*
X146269819Y-64701316D01*
X169688095Y-46777438D02*
X169592857Y-46729819D01*
X169592857Y-46729819D02*
X169450000Y-46729819D01*
X169450000Y-46729819D02*
X169307143Y-46777438D01*
X169307143Y-46777438D02*
X169211905Y-46872676D01*
X169211905Y-46872676D02*
X169164286Y-46967914D01*
X169164286Y-46967914D02*
X169116667Y-47158390D01*
X169116667Y-47158390D02*
X169116667Y-47301247D01*
X169116667Y-47301247D02*
X169164286Y-47491723D01*
X169164286Y-47491723D02*
X169211905Y-47586961D01*
X169211905Y-47586961D02*
X169307143Y-47682200D01*
X169307143Y-47682200D02*
X169450000Y-47729819D01*
X169450000Y-47729819D02*
X169545238Y-47729819D01*
X169545238Y-47729819D02*
X169688095Y-47682200D01*
X169688095Y-47682200D02*
X169735714Y-47634580D01*
X169735714Y-47634580D02*
X169735714Y-47301247D01*
X169735714Y-47301247D02*
X169545238Y-47301247D01*
X170164286Y-47729819D02*
X170164286Y-46729819D01*
X170164286Y-46729819D02*
X170735714Y-47729819D01*
X170735714Y-47729819D02*
X170735714Y-46729819D01*
X171211905Y-47729819D02*
X171211905Y-46729819D01*
X171211905Y-46729819D02*
X171450000Y-46729819D01*
X171450000Y-46729819D02*
X171592857Y-46777438D01*
X171592857Y-46777438D02*
X171688095Y-46872676D01*
X171688095Y-46872676D02*
X171735714Y-46967914D01*
X171735714Y-46967914D02*
X171783333Y-47158390D01*
X171783333Y-47158390D02*
X171783333Y-47301247D01*
X171783333Y-47301247D02*
X171735714Y-47491723D01*
X171735714Y-47491723D02*
X171688095Y-47586961D01*
X171688095Y-47586961D02*
X171592857Y-47682200D01*
X171592857Y-47682200D02*
X171450000Y-47729819D01*
X171450000Y-47729819D02*
X171211905Y-47729819D01*
X165759580Y-49486666D02*
X165807200Y-49534285D01*
X165807200Y-49534285D02*
X165854819Y-49677142D01*
X165854819Y-49677142D02*
X165854819Y-49772380D01*
X165854819Y-49772380D02*
X165807200Y-49915237D01*
X165807200Y-49915237D02*
X165711961Y-50010475D01*
X165711961Y-50010475D02*
X165616723Y-50058094D01*
X165616723Y-50058094D02*
X165426247Y-50105713D01*
X165426247Y-50105713D02*
X165283390Y-50105713D01*
X165283390Y-50105713D02*
X165092914Y-50058094D01*
X165092914Y-50058094D02*
X164997676Y-50010475D01*
X164997676Y-50010475D02*
X164902438Y-49915237D01*
X164902438Y-49915237D02*
X164854819Y-49772380D01*
X164854819Y-49772380D02*
X164854819Y-49677142D01*
X164854819Y-49677142D02*
X164902438Y-49534285D01*
X164902438Y-49534285D02*
X164950057Y-49486666D01*
X165854819Y-48534285D02*
X165854819Y-49105713D01*
X165854819Y-48819999D02*
X164854819Y-48819999D01*
X164854819Y-48819999D02*
X164997676Y-48915237D01*
X164997676Y-48915237D02*
X165092914Y-49010475D01*
X165092914Y-49010475D02*
X165140533Y-49105713D01*
X163059580Y-49486666D02*
X163107200Y-49534285D01*
X163107200Y-49534285D02*
X163154819Y-49677142D01*
X163154819Y-49677142D02*
X163154819Y-49772380D01*
X163154819Y-49772380D02*
X163107200Y-49915237D01*
X163107200Y-49915237D02*
X163011961Y-50010475D01*
X163011961Y-50010475D02*
X162916723Y-50058094D01*
X162916723Y-50058094D02*
X162726247Y-50105713D01*
X162726247Y-50105713D02*
X162583390Y-50105713D01*
X162583390Y-50105713D02*
X162392914Y-50058094D01*
X162392914Y-50058094D02*
X162297676Y-50010475D01*
X162297676Y-50010475D02*
X162202438Y-49915237D01*
X162202438Y-49915237D02*
X162154819Y-49772380D01*
X162154819Y-49772380D02*
X162154819Y-49677142D01*
X162154819Y-49677142D02*
X162202438Y-49534285D01*
X162202438Y-49534285D02*
X162250057Y-49486666D01*
X162250057Y-49105713D02*
X162202438Y-49058094D01*
X162202438Y-49058094D02*
X162154819Y-48962856D01*
X162154819Y-48962856D02*
X162154819Y-48724761D01*
X162154819Y-48724761D02*
X162202438Y-48629523D01*
X162202438Y-48629523D02*
X162250057Y-48581904D01*
X162250057Y-48581904D02*
X162345295Y-48534285D01*
X162345295Y-48534285D02*
X162440533Y-48534285D01*
X162440533Y-48534285D02*
X162583390Y-48581904D01*
X162583390Y-48581904D02*
X163154819Y-49153332D01*
X163154819Y-49153332D02*
X163154819Y-48534285D01*
X163733333Y-71745180D02*
X163733333Y-71030895D01*
X163733333Y-71030895D02*
X163780952Y-70888038D01*
X163780952Y-70888038D02*
X163876190Y-70792800D01*
X163876190Y-70792800D02*
X164019047Y-70745180D01*
X164019047Y-70745180D02*
X164114285Y-70745180D01*
X162733333Y-70745180D02*
X163304761Y-70745180D01*
X163019047Y-70745180D02*
X163019047Y-71745180D01*
X163019047Y-71745180D02*
X163114285Y-71602323D01*
X163114285Y-71602323D02*
X163209523Y-71507085D01*
X163209523Y-71507085D02*
X163304761Y-71459466D01*
X163859580Y-61216666D02*
X163907200Y-61264285D01*
X163907200Y-61264285D02*
X163954819Y-61407142D01*
X163954819Y-61407142D02*
X163954819Y-61502380D01*
X163954819Y-61502380D02*
X163907200Y-61645237D01*
X163907200Y-61645237D02*
X163811961Y-61740475D01*
X163811961Y-61740475D02*
X163716723Y-61788094D01*
X163716723Y-61788094D02*
X163526247Y-61835713D01*
X163526247Y-61835713D02*
X163383390Y-61835713D01*
X163383390Y-61835713D02*
X163192914Y-61788094D01*
X163192914Y-61788094D02*
X163097676Y-61740475D01*
X163097676Y-61740475D02*
X163002438Y-61645237D01*
X163002438Y-61645237D02*
X162954819Y-61502380D01*
X162954819Y-61502380D02*
X162954819Y-61407142D01*
X162954819Y-61407142D02*
X163002438Y-61264285D01*
X163002438Y-61264285D02*
X163050057Y-61216666D01*
X162954819Y-60883332D02*
X162954819Y-60264285D01*
X162954819Y-60264285D02*
X163335771Y-60597618D01*
X163335771Y-60597618D02*
X163335771Y-60454761D01*
X163335771Y-60454761D02*
X163383390Y-60359523D01*
X163383390Y-60359523D02*
X163431009Y-60311904D01*
X163431009Y-60311904D02*
X163526247Y-60264285D01*
X163526247Y-60264285D02*
X163764342Y-60264285D01*
X163764342Y-60264285D02*
X163859580Y-60311904D01*
X163859580Y-60311904D02*
X163907200Y-60359523D01*
X163907200Y-60359523D02*
X163954819Y-60454761D01*
X163954819Y-60454761D02*
X163954819Y-60740475D01*
X163954819Y-60740475D02*
X163907200Y-60835713D01*
X163907200Y-60835713D02*
X163859580Y-60883332D01*
D11*
X160857419Y-58561904D02*
X161666942Y-58561904D01*
X161666942Y-58561904D02*
X161762180Y-58514285D01*
X161762180Y-58514285D02*
X161809800Y-58466666D01*
X161809800Y-58466666D02*
X161857419Y-58371428D01*
X161857419Y-58371428D02*
X161857419Y-58180952D01*
X161857419Y-58180952D02*
X161809800Y-58085714D01*
X161809800Y-58085714D02*
X161762180Y-58038095D01*
X161762180Y-58038095D02*
X161666942Y-57990476D01*
X161666942Y-57990476D02*
X160857419Y-57990476D01*
X160952657Y-57561904D02*
X160905038Y-57514285D01*
X160905038Y-57514285D02*
X160857419Y-57419047D01*
X160857419Y-57419047D02*
X160857419Y-57180952D01*
X160857419Y-57180952D02*
X160905038Y-57085714D01*
X160905038Y-57085714D02*
X160952657Y-57038095D01*
X160952657Y-57038095D02*
X161047895Y-56990476D01*
X161047895Y-56990476D02*
X161143133Y-56990476D01*
X161143133Y-56990476D02*
X161285990Y-57038095D01*
X161285990Y-57038095D02*
X161857419Y-57609523D01*
X161857419Y-57609523D02*
X161857419Y-56990476D01*
X170352419Y-55361904D02*
X171161942Y-55361904D01*
X171161942Y-55361904D02*
X171257180Y-55314285D01*
X171257180Y-55314285D02*
X171304800Y-55266666D01*
X171304800Y-55266666D02*
X171352419Y-55171428D01*
X171352419Y-55171428D02*
X171352419Y-54980952D01*
X171352419Y-54980952D02*
X171304800Y-54885714D01*
X171304800Y-54885714D02*
X171257180Y-54838095D01*
X171257180Y-54838095D02*
X171161942Y-54790476D01*
X171161942Y-54790476D02*
X170352419Y-54790476D01*
X171352419Y-53790476D02*
X171352419Y-54361904D01*
X171352419Y-54076190D02*
X170352419Y-54076190D01*
X170352419Y-54076190D02*
X170495276Y-54171428D01*
X170495276Y-54171428D02*
X170590514Y-54266666D01*
X170590514Y-54266666D02*
X170638133Y-54361904D01*
D10*
X164359580Y-49486666D02*
X164407200Y-49534285D01*
X164407200Y-49534285D02*
X164454819Y-49677142D01*
X164454819Y-49677142D02*
X164454819Y-49772380D01*
X164454819Y-49772380D02*
X164407200Y-49915237D01*
X164407200Y-49915237D02*
X164311961Y-50010475D01*
X164311961Y-50010475D02*
X164216723Y-50058094D01*
X164216723Y-50058094D02*
X164026247Y-50105713D01*
X164026247Y-50105713D02*
X163883390Y-50105713D01*
X163883390Y-50105713D02*
X163692914Y-50058094D01*
X163692914Y-50058094D02*
X163597676Y-50010475D01*
X163597676Y-50010475D02*
X163502438Y-49915237D01*
X163502438Y-49915237D02*
X163454819Y-49772380D01*
X163454819Y-49772380D02*
X163454819Y-49677142D01*
X163454819Y-49677142D02*
X163502438Y-49534285D01*
X163502438Y-49534285D02*
X163550057Y-49486666D01*
X163788152Y-48629523D02*
X164454819Y-48629523D01*
X163407200Y-48867618D02*
X164121485Y-49105713D01*
X164121485Y-49105713D02*
X164121485Y-48486666D01*
X150604761Y-50159580D02*
X150557142Y-50207200D01*
X150557142Y-50207200D02*
X150414285Y-50254819D01*
X150414285Y-50254819D02*
X150319047Y-50254819D01*
X150319047Y-50254819D02*
X150176190Y-50207200D01*
X150176190Y-50207200D02*
X150080952Y-50111961D01*
X150080952Y-50111961D02*
X150033333Y-50016723D01*
X150033333Y-50016723D02*
X149985714Y-49826247D01*
X149985714Y-49826247D02*
X149985714Y-49683390D01*
X149985714Y-49683390D02*
X150033333Y-49492914D01*
X150033333Y-49492914D02*
X150080952Y-49397676D01*
X150080952Y-49397676D02*
X150176190Y-49302438D01*
X150176190Y-49302438D02*
X150319047Y-49254819D01*
X150319047Y-49254819D02*
X150414285Y-49254819D01*
X150414285Y-49254819D02*
X150557142Y-49302438D01*
X150557142Y-49302438D02*
X150604761Y-49350057D01*
X151509523Y-50254819D02*
X151033333Y-50254819D01*
X151033333Y-50254819D02*
X151033333Y-49254819D01*
X151842857Y-50254819D02*
X151842857Y-49254819D01*
X152414285Y-50254819D02*
X151985714Y-49683390D01*
X152414285Y-49254819D02*
X151842857Y-49826247D01*
X174366667Y-46754819D02*
X174700000Y-47754819D01*
X174700000Y-47754819D02*
X175033333Y-46754819D01*
X175938095Y-47659580D02*
X175890476Y-47707200D01*
X175890476Y-47707200D02*
X175747619Y-47754819D01*
X175747619Y-47754819D02*
X175652381Y-47754819D01*
X175652381Y-47754819D02*
X175509524Y-47707200D01*
X175509524Y-47707200D02*
X175414286Y-47611961D01*
X175414286Y-47611961D02*
X175366667Y-47516723D01*
X175366667Y-47516723D02*
X175319048Y-47326247D01*
X175319048Y-47326247D02*
X175319048Y-47183390D01*
X175319048Y-47183390D02*
X175366667Y-46992914D01*
X175366667Y-46992914D02*
X175414286Y-46897676D01*
X175414286Y-46897676D02*
X175509524Y-46802438D01*
X175509524Y-46802438D02*
X175652381Y-46754819D01*
X175652381Y-46754819D02*
X175747619Y-46754819D01*
X175747619Y-46754819D02*
X175890476Y-46802438D01*
X175890476Y-46802438D02*
X175938095Y-46850057D01*
X176938095Y-47659580D02*
X176890476Y-47707200D01*
X176890476Y-47707200D02*
X176747619Y-47754819D01*
X176747619Y-47754819D02*
X176652381Y-47754819D01*
X176652381Y-47754819D02*
X176509524Y-47707200D01*
X176509524Y-47707200D02*
X176414286Y-47611961D01*
X176414286Y-47611961D02*
X176366667Y-47516723D01*
X176366667Y-47516723D02*
X176319048Y-47326247D01*
X176319048Y-47326247D02*
X176319048Y-47183390D01*
X176319048Y-47183390D02*
X176366667Y-46992914D01*
X176366667Y-46992914D02*
X176414286Y-46897676D01*
X176414286Y-46897676D02*
X176509524Y-46802438D01*
X176509524Y-46802438D02*
X176652381Y-46754819D01*
X176652381Y-46754819D02*
X176747619Y-46754819D01*
X176747619Y-46754819D02*
X176890476Y-46802438D01*
X176890476Y-46802438D02*
X176938095Y-46850057D01*
X150438095Y-46902438D02*
X150342857Y-46854819D01*
X150342857Y-46854819D02*
X150200000Y-46854819D01*
X150200000Y-46854819D02*
X150057143Y-46902438D01*
X150057143Y-46902438D02*
X149961905Y-46997676D01*
X149961905Y-46997676D02*
X149914286Y-47092914D01*
X149914286Y-47092914D02*
X149866667Y-47283390D01*
X149866667Y-47283390D02*
X149866667Y-47426247D01*
X149866667Y-47426247D02*
X149914286Y-47616723D01*
X149914286Y-47616723D02*
X149961905Y-47711961D01*
X149961905Y-47711961D02*
X150057143Y-47807200D01*
X150057143Y-47807200D02*
X150200000Y-47854819D01*
X150200000Y-47854819D02*
X150295238Y-47854819D01*
X150295238Y-47854819D02*
X150438095Y-47807200D01*
X150438095Y-47807200D02*
X150485714Y-47759580D01*
X150485714Y-47759580D02*
X150485714Y-47426247D01*
X150485714Y-47426247D02*
X150295238Y-47426247D01*
X150914286Y-47854819D02*
X150914286Y-46854819D01*
X150914286Y-46854819D02*
X151485714Y-47854819D01*
X151485714Y-47854819D02*
X151485714Y-46854819D01*
X151961905Y-47854819D02*
X151961905Y-46854819D01*
X151961905Y-46854819D02*
X152200000Y-46854819D01*
X152200000Y-46854819D02*
X152342857Y-46902438D01*
X152342857Y-46902438D02*
X152438095Y-46997676D01*
X152438095Y-46997676D02*
X152485714Y-47092914D01*
X152485714Y-47092914D02*
X152533333Y-47283390D01*
X152533333Y-47283390D02*
X152533333Y-47426247D01*
X152533333Y-47426247D02*
X152485714Y-47616723D01*
X152485714Y-47616723D02*
X152438095Y-47711961D01*
X152438095Y-47711961D02*
X152342857Y-47807200D01*
X152342857Y-47807200D02*
X152200000Y-47854819D01*
X152200000Y-47854819D02*
X151961905Y-47854819D01*
D12*
X173700000Y-47275000D02*
G75*
G02*
X172300000Y-47275000I-700000J0D01*
G01*
X172300000Y-47275000D02*
G75*
G02*
X173700000Y-47275000I700000J0D01*
G01*
X165760000Y-51327836D02*
X165760000Y-51112164D01*
X165040000Y-51327836D02*
X165040000Y-51112164D01*
X163060000Y-51327836D02*
X163060000Y-51112164D01*
X162340000Y-51327836D02*
X162340000Y-51112164D01*
D13*
X158701000Y-71200000D02*
G75*
G02*
X158548600Y-71200000I-76200J0D01*
G01*
X158548600Y-71200000D02*
G75*
G02*
X158701000Y-71200000I76200J0D01*
G01*
X167032200Y-72885351D02*
X167032200Y-69514649D01*
X166689300Y-83036400D02*
X166689300Y-74906994D01*
X165085351Y-67567800D02*
X161714649Y-67567800D01*
X164835126Y-74578200D02*
X161964874Y-74578200D01*
X161714649Y-74832200D02*
X165085351Y-74832200D01*
X160110700Y-83036400D02*
X166689300Y-83036400D01*
X160110700Y-74906994D02*
X160110700Y-83036400D01*
X159767800Y-69514649D02*
X159767800Y-72885351D01*
D12*
X164235000Y-63438748D02*
X164235000Y-63961252D01*
X162765000Y-63438748D02*
X162765000Y-63961252D01*
D11*
X163250000Y-58550000D02*
X164750000Y-58550000D01*
X164750000Y-57050000D01*
X163250000Y-57050000D01*
X163250000Y-58550000D01*
X163500000Y-58300000D02*
X164500000Y-58300000D01*
X164500000Y-57300000D01*
X163500000Y-57300000D01*
X163500000Y-58300000D01*
X163250001Y-58800000D02*
X163250001Y-58800000D01*
X163250001Y-58800000D01*
X163250001Y-58800000D01*
X163250001Y-58800000D01*
X163250001Y-58800000D01*
X163250001Y-58800001D01*
X163250001Y-58800001D01*
X163250001Y-58800001D01*
X163250001Y-58800001D01*
X163250001Y-58800001D01*
X163250001Y-58800001D01*
X163250001Y-58800001D01*
X163250000Y-58800001D01*
X163250000Y-58800001D01*
X163250000Y-58800001D01*
X163250000Y-58800001D01*
X163250000Y-58800001D01*
X163250000Y-58800001D01*
X163250000Y-58800001D01*
X163250000Y-58800001D01*
X163250000Y-58800001D01*
X163250000Y-58800001D01*
X163250000Y-58800001D01*
X163250000Y-58800001D01*
X163249999Y-58800001D01*
X163249999Y-58800001D01*
X163249999Y-58800001D01*
X163249999Y-58800001D01*
X163249999Y-58800001D01*
X163249999Y-58800001D01*
X163249999Y-58800000D01*
X163249999Y-58800000D01*
X163249999Y-58800000D01*
X163249999Y-58800000D01*
X163249999Y-58800000D01*
X163249999Y-58800000D01*
X163249999Y-58800000D02*
X163249999Y-58800000D01*
X163249999Y-58800000D01*
X163249999Y-58800000D01*
X163249999Y-58800000D01*
X163249999Y-58800000D01*
X163249999Y-58800000D01*
X163249999Y-58799999D01*
X163249999Y-58799999D01*
X163249999Y-58799999D01*
X163249999Y-58799999D01*
X163249999Y-58799999D01*
X163250000Y-58799999D01*
X163250000Y-58799999D01*
X163250000Y-58799999D01*
X163250000Y-58799999D01*
X163250000Y-58799999D01*
X163250000Y-58799999D01*
X163250000Y-58799999D01*
X163250000Y-58799999D01*
X163250000Y-58799999D01*
X163250000Y-58799999D01*
X163250000Y-58799999D01*
X163250000Y-58799999D01*
X163250001Y-58799999D01*
X163250001Y-58799999D01*
X163250001Y-58799999D01*
X163250001Y-58799999D01*
X163250001Y-58799999D01*
X163250001Y-58799999D01*
X163250001Y-58800000D01*
X163250001Y-58800000D01*
X163250001Y-58800000D01*
X163250001Y-58800000D01*
X163250001Y-58800000D01*
X163250001Y-58800000D01*
X163250001Y-58800000D01*
D12*
X164360000Y-51307836D02*
X164360000Y-51092164D01*
X163640000Y-51307836D02*
X163640000Y-51092164D01*
X149600000Y-49800000D02*
G75*
G02*
X148200000Y-49800000I-700000J0D01*
G01*
X148200000Y-49800000D02*
G75*
G02*
X149600000Y-49800000I700000J0D01*
G01*
X178900000Y-47300000D02*
G75*
G02*
X177500000Y-47300000I-700000J0D01*
G01*
X177500000Y-47300000D02*
G75*
G02*
X178900000Y-47300000I700000J0D01*
G01*
X149500000Y-47400000D02*
G75*
G02*
X148100000Y-47400000I-700000J0D01*
G01*
X148100000Y-47400000D02*
G75*
G02*
X149500000Y-47400000I700000J0D01*
G01*
%LPC*%
D14*
X173000000Y-47275000D03*
D15*
X165400000Y-50740000D03*
X165400000Y-51700000D03*
X162700000Y-50740000D03*
X162700000Y-51700000D03*
D16*
X160860000Y-73740000D03*
X160860000Y-68660000D03*
X165940000Y-68660000D03*
X165940000Y-73740000D03*
X163400000Y-71200000D03*
D17*
X163500000Y-64650000D03*
X163500000Y-62750000D03*
D18*
X163650000Y-58300000D03*
D19*
X164000000Y-58182500D03*
D20*
X163650000Y-57800000D03*
D21*
X164000000Y-57800000D03*
D20*
X164350000Y-57800000D03*
D18*
X164350000Y-58300000D03*
X164350000Y-57300000D03*
X164000000Y-57300000D03*
X163650000Y-57300000D03*
D22*
X170590000Y-56000000D03*
X170590000Y-57000000D03*
X171000000Y-57000000D03*
X171000000Y-56000000D03*
D15*
X164000000Y-50720000D03*
X164000000Y-51680000D03*
D14*
X148900000Y-49800000D03*
X178200000Y-47300000D03*
X148800000Y-47400000D03*
%LPD*%
M02*
