G04 #@! TF.GenerationSoftware,KiCad,Pcbnew,8.0.7-8.0.7-0~ubuntu22.04.1*
G04 #@! TF.CreationDate,2025-01-08T14:25:46-08:00*
G04 #@! TF.ProjectId,RFBackscatterV1,52464261-636b-4736-9361-747465725631,rev?*
G04 #@! TF.SameCoordinates,Original*
G04 #@! TF.FileFunction,Legend,Top*
G04 #@! TF.FilePolarity,Positive*
%FSLAX46Y46*%
G04 Gerber Fmt 4.6, Leading zero omitted, Abs format (unit mm)*
G04 Created by KiCad (PCBNEW 8.0.7-8.0.7-0~ubuntu22.04.1) date 2025-01-08 14:25:46*
%MOMM*%
%LPD*%
G01*
G04 APERTURE LIST*
G04 Aperture macros list*
%AMRoundRect*
0 Rectangle with rounded corners*
0 $1 Rounding radius*
0 $2 $3 $4 $5 $6 $7 $8 $9 X,Y pos of 4 corners*
0 Add a 4 corners polygon primitive as box body*
4,1,4,$2,$3,$4,$5,$6,$7,$8,$9,$2,$3,0*
0 Add four circle primitives for the rounded corners*
1,1,$1+$1,$2,$3*
1,1,$1+$1,$4,$5*
1,1,$1+$1,$6,$7*
1,1,$1+$1,$8,$9*
0 Add four rect primitives between the rounded corners*
20,1,$1+$1,$2,$3,$4,$5,0*
20,1,$1+$1,$4,$5,$6,$7,0*
20,1,$1+$1,$6,$7,$8,$9,0*
20,1,$1+$1,$8,$9,$2,$3,0*%
G04 Aperture macros list end*
%ADD10C,0.150000*%
%ADD11C,0.120000*%
%ADD12C,0.152400*%
%ADD13C,0.100000*%
%ADD14RoundRect,0.140000X0.170000X-0.140000X0.170000X0.140000X-0.170000X0.140000X-0.170000X-0.140000X0*%
%ADD15R,2.600000X3.600000*%
%ADD16C,2.108200*%
%ADD17R,2.000000X2.000000*%
%ADD18R,1.397000X0.406400*%
%ADD19R,0.508000X0.304800*%
%ADD20RoundRect,0.037500X0.037500X-0.127500X0.037500X0.127500X-0.037500X0.127500X-0.037500X-0.127500X0*%
%ADD21RoundRect,0.037500X0.245000X0.037500X-0.245000X0.037500X-0.245000X-0.037500X0.245000X-0.037500X0*%
%ADD22RoundRect,0.100000X0.100000X-0.100000X0.100000X0.100000X-0.100000X0.100000X-0.100000X-0.100000X0*%
%ADD23RoundRect,0.037500X0.037500X-0.245000X0.037500X0.245000X-0.037500X0.245000X-0.037500X-0.245000X0*%
%ADD24RoundRect,0.250000X-0.475000X0.250000X-0.475000X-0.250000X0.475000X-0.250000X0.475000X0.250000X0*%
%ADD25RoundRect,0.140000X0.140000X0.170000X-0.140000X0.170000X-0.140000X-0.170000X0.140000X-0.170000X0*%
G04 APERTURE END LIST*
D10*
X152060588Y-75417438D02*
X151965350Y-75369819D01*
X151965350Y-75369819D02*
X151822493Y-75369819D01*
X151822493Y-75369819D02*
X151679636Y-75417438D01*
X151679636Y-75417438D02*
X151584398Y-75512676D01*
X151584398Y-75512676D02*
X151536779Y-75607914D01*
X151536779Y-75607914D02*
X151489160Y-75798390D01*
X151489160Y-75798390D02*
X151489160Y-75941247D01*
X151489160Y-75941247D02*
X151536779Y-76131723D01*
X151536779Y-76131723D02*
X151584398Y-76226961D01*
X151584398Y-76226961D02*
X151679636Y-76322200D01*
X151679636Y-76322200D02*
X151822493Y-76369819D01*
X151822493Y-76369819D02*
X151917731Y-76369819D01*
X151917731Y-76369819D02*
X152060588Y-76322200D01*
X152060588Y-76322200D02*
X152108207Y-76274580D01*
X152108207Y-76274580D02*
X152108207Y-75941247D01*
X152108207Y-75941247D02*
X151917731Y-75941247D01*
X152536779Y-76369819D02*
X152536779Y-75369819D01*
X152536779Y-75369819D02*
X153108207Y-76369819D01*
X153108207Y-76369819D02*
X153108207Y-75369819D01*
X153584398Y-76369819D02*
X153584398Y-75369819D01*
X153584398Y-75369819D02*
X153822493Y-75369819D01*
X153822493Y-75369819D02*
X153965350Y-75417438D01*
X153965350Y-75417438D02*
X154060588Y-75512676D01*
X154060588Y-75512676D02*
X154108207Y-75607914D01*
X154108207Y-75607914D02*
X154155826Y-75798390D01*
X154155826Y-75798390D02*
X154155826Y-75941247D01*
X154155826Y-75941247D02*
X154108207Y-76131723D01*
X154108207Y-76131723D02*
X154060588Y-76226961D01*
X154060588Y-76226961D02*
X153965350Y-76322200D01*
X153965350Y-76322200D02*
X153822493Y-76369819D01*
X153822493Y-76369819D02*
X153584398Y-76369819D01*
X151293922Y-71769819D02*
X151627255Y-72769819D01*
X151627255Y-72769819D02*
X151960588Y-71769819D01*
X152865350Y-72674580D02*
X152817731Y-72722200D01*
X152817731Y-72722200D02*
X152674874Y-72769819D01*
X152674874Y-72769819D02*
X152579636Y-72769819D01*
X152579636Y-72769819D02*
X152436779Y-72722200D01*
X152436779Y-72722200D02*
X152341541Y-72626961D01*
X152341541Y-72626961D02*
X152293922Y-72531723D01*
X152293922Y-72531723D02*
X152246303Y-72341247D01*
X152246303Y-72341247D02*
X152246303Y-72198390D01*
X152246303Y-72198390D02*
X152293922Y-72007914D01*
X152293922Y-72007914D02*
X152341541Y-71912676D01*
X152341541Y-71912676D02*
X152436779Y-71817438D01*
X152436779Y-71817438D02*
X152579636Y-71769819D01*
X152579636Y-71769819D02*
X152674874Y-71769819D01*
X152674874Y-71769819D02*
X152817731Y-71817438D01*
X152817731Y-71817438D02*
X152865350Y-71865057D01*
X153865350Y-72674580D02*
X153817731Y-72722200D01*
X153817731Y-72722200D02*
X153674874Y-72769819D01*
X153674874Y-72769819D02*
X153579636Y-72769819D01*
X153579636Y-72769819D02*
X153436779Y-72722200D01*
X153436779Y-72722200D02*
X153341541Y-72626961D01*
X153341541Y-72626961D02*
X153293922Y-72531723D01*
X153293922Y-72531723D02*
X153246303Y-72341247D01*
X153246303Y-72341247D02*
X153246303Y-72198390D01*
X153246303Y-72198390D02*
X153293922Y-72007914D01*
X153293922Y-72007914D02*
X153341541Y-71912676D01*
X153341541Y-71912676D02*
X153436779Y-71817438D01*
X153436779Y-71817438D02*
X153579636Y-71769819D01*
X153579636Y-71769819D02*
X153674874Y-71769819D01*
X153674874Y-71769819D02*
X153817731Y-71817438D01*
X153817731Y-71817438D02*
X153865350Y-71865057D01*
X148308207Y-84259875D02*
X147974874Y-83783684D01*
X147736779Y-84259875D02*
X147736779Y-83259875D01*
X147736779Y-83259875D02*
X148117731Y-83259875D01*
X148117731Y-83259875D02*
X148212969Y-83307494D01*
X148212969Y-83307494D02*
X148260588Y-83355113D01*
X148260588Y-83355113D02*
X148308207Y-83450351D01*
X148308207Y-83450351D02*
X148308207Y-83593208D01*
X148308207Y-83593208D02*
X148260588Y-83688446D01*
X148260588Y-83688446D02*
X148212969Y-83736065D01*
X148212969Y-83736065D02*
X148117731Y-83783684D01*
X148117731Y-83783684D02*
X147736779Y-83783684D01*
X149070112Y-83736065D02*
X148736779Y-83736065D01*
X148736779Y-84259875D02*
X148736779Y-83259875D01*
X148736779Y-83259875D02*
X149212969Y-83259875D01*
X149593922Y-83878922D02*
X150355827Y-83878922D01*
X151165350Y-83736065D02*
X151308207Y-83783684D01*
X151308207Y-83783684D02*
X151355826Y-83831303D01*
X151355826Y-83831303D02*
X151403445Y-83926541D01*
X151403445Y-83926541D02*
X151403445Y-84069398D01*
X151403445Y-84069398D02*
X151355826Y-84164636D01*
X151355826Y-84164636D02*
X151308207Y-84212256D01*
X151308207Y-84212256D02*
X151212969Y-84259875D01*
X151212969Y-84259875D02*
X150832017Y-84259875D01*
X150832017Y-84259875D02*
X150832017Y-83259875D01*
X150832017Y-83259875D02*
X151165350Y-83259875D01*
X151165350Y-83259875D02*
X151260588Y-83307494D01*
X151260588Y-83307494D02*
X151308207Y-83355113D01*
X151308207Y-83355113D02*
X151355826Y-83450351D01*
X151355826Y-83450351D02*
X151355826Y-83545589D01*
X151355826Y-83545589D02*
X151308207Y-83640827D01*
X151308207Y-83640827D02*
X151260588Y-83688446D01*
X151260588Y-83688446D02*
X151165350Y-83736065D01*
X151165350Y-83736065D02*
X150832017Y-83736065D01*
X152260588Y-84259875D02*
X152260588Y-83736065D01*
X152260588Y-83736065D02*
X152212969Y-83640827D01*
X152212969Y-83640827D02*
X152117731Y-83593208D01*
X152117731Y-83593208D02*
X151927255Y-83593208D01*
X151927255Y-83593208D02*
X151832017Y-83640827D01*
X152260588Y-84212256D02*
X152165350Y-84259875D01*
X152165350Y-84259875D02*
X151927255Y-84259875D01*
X151927255Y-84259875D02*
X151832017Y-84212256D01*
X151832017Y-84212256D02*
X151784398Y-84117017D01*
X151784398Y-84117017D02*
X151784398Y-84021779D01*
X151784398Y-84021779D02*
X151832017Y-83926541D01*
X151832017Y-83926541D02*
X151927255Y-83878922D01*
X151927255Y-83878922D02*
X152165350Y-83878922D01*
X152165350Y-83878922D02*
X152260588Y-83831303D01*
X153165350Y-84212256D02*
X153070112Y-84259875D01*
X153070112Y-84259875D02*
X152879636Y-84259875D01*
X152879636Y-84259875D02*
X152784398Y-84212256D01*
X152784398Y-84212256D02*
X152736779Y-84164636D01*
X152736779Y-84164636D02*
X152689160Y-84069398D01*
X152689160Y-84069398D02*
X152689160Y-83783684D01*
X152689160Y-83783684D02*
X152736779Y-83688446D01*
X152736779Y-83688446D02*
X152784398Y-83640827D01*
X152784398Y-83640827D02*
X152879636Y-83593208D01*
X152879636Y-83593208D02*
X153070112Y-83593208D01*
X153070112Y-83593208D02*
X153165350Y-83640827D01*
X153593922Y-84259875D02*
X153593922Y-83259875D01*
X153689160Y-83878922D02*
X153974874Y-84259875D01*
X153974874Y-83593208D02*
X153593922Y-83974160D01*
X154355827Y-84212256D02*
X154451065Y-84259875D01*
X154451065Y-84259875D02*
X154641541Y-84259875D01*
X154641541Y-84259875D02*
X154736779Y-84212256D01*
X154736779Y-84212256D02*
X154784398Y-84117017D01*
X154784398Y-84117017D02*
X154784398Y-84069398D01*
X154784398Y-84069398D02*
X154736779Y-83974160D01*
X154736779Y-83974160D02*
X154641541Y-83926541D01*
X154641541Y-83926541D02*
X154498684Y-83926541D01*
X154498684Y-83926541D02*
X154403446Y-83878922D01*
X154403446Y-83878922D02*
X154355827Y-83783684D01*
X154355827Y-83783684D02*
X154355827Y-83736065D01*
X154355827Y-83736065D02*
X154403446Y-83640827D01*
X154403446Y-83640827D02*
X154498684Y-83593208D01*
X154498684Y-83593208D02*
X154641541Y-83593208D01*
X154641541Y-83593208D02*
X154736779Y-83640827D01*
X155641541Y-84212256D02*
X155546303Y-84259875D01*
X155546303Y-84259875D02*
X155355827Y-84259875D01*
X155355827Y-84259875D02*
X155260589Y-84212256D01*
X155260589Y-84212256D02*
X155212970Y-84164636D01*
X155212970Y-84164636D02*
X155165351Y-84069398D01*
X155165351Y-84069398D02*
X155165351Y-83783684D01*
X155165351Y-83783684D02*
X155212970Y-83688446D01*
X155212970Y-83688446D02*
X155260589Y-83640827D01*
X155260589Y-83640827D02*
X155355827Y-83593208D01*
X155355827Y-83593208D02*
X155546303Y-83593208D01*
X155546303Y-83593208D02*
X155641541Y-83640827D01*
X156498684Y-84259875D02*
X156498684Y-83736065D01*
X156498684Y-83736065D02*
X156451065Y-83640827D01*
X156451065Y-83640827D02*
X156355827Y-83593208D01*
X156355827Y-83593208D02*
X156165351Y-83593208D01*
X156165351Y-83593208D02*
X156070113Y-83640827D01*
X156498684Y-84212256D02*
X156403446Y-84259875D01*
X156403446Y-84259875D02*
X156165351Y-84259875D01*
X156165351Y-84259875D02*
X156070113Y-84212256D01*
X156070113Y-84212256D02*
X156022494Y-84117017D01*
X156022494Y-84117017D02*
X156022494Y-84021779D01*
X156022494Y-84021779D02*
X156070113Y-83926541D01*
X156070113Y-83926541D02*
X156165351Y-83878922D01*
X156165351Y-83878922D02*
X156403446Y-83878922D01*
X156403446Y-83878922D02*
X156498684Y-83831303D01*
X156832018Y-83593208D02*
X157212970Y-83593208D01*
X156974875Y-83259875D02*
X156974875Y-84117017D01*
X156974875Y-84117017D02*
X157022494Y-84212256D01*
X157022494Y-84212256D02*
X157117732Y-84259875D01*
X157117732Y-84259875D02*
X157212970Y-84259875D01*
X157403447Y-83593208D02*
X157784399Y-83593208D01*
X157546304Y-83259875D02*
X157546304Y-84117017D01*
X157546304Y-84117017D02*
X157593923Y-84212256D01*
X157593923Y-84212256D02*
X157689161Y-84259875D01*
X157689161Y-84259875D02*
X157784399Y-84259875D01*
X158498685Y-84212256D02*
X158403447Y-84259875D01*
X158403447Y-84259875D02*
X158212971Y-84259875D01*
X158212971Y-84259875D02*
X158117733Y-84212256D01*
X158117733Y-84212256D02*
X158070114Y-84117017D01*
X158070114Y-84117017D02*
X158070114Y-83736065D01*
X158070114Y-83736065D02*
X158117733Y-83640827D01*
X158117733Y-83640827D02*
X158212971Y-83593208D01*
X158212971Y-83593208D02*
X158403447Y-83593208D01*
X158403447Y-83593208D02*
X158498685Y-83640827D01*
X158498685Y-83640827D02*
X158546304Y-83736065D01*
X158546304Y-83736065D02*
X158546304Y-83831303D01*
X158546304Y-83831303D02*
X158070114Y-83926541D01*
X158974876Y-84259875D02*
X158974876Y-83593208D01*
X158974876Y-83783684D02*
X159022495Y-83688446D01*
X159022495Y-83688446D02*
X159070114Y-83640827D01*
X159070114Y-83640827D02*
X159165352Y-83593208D01*
X159165352Y-83593208D02*
X159260590Y-83593208D01*
X159593924Y-83878922D02*
X160355829Y-83878922D01*
X160689162Y-83259875D02*
X161022495Y-84259875D01*
X161022495Y-84259875D02*
X161355828Y-83259875D01*
X162212971Y-84259875D02*
X161641543Y-84259875D01*
X161927257Y-84259875D02*
X161927257Y-83259875D01*
X161927257Y-83259875D02*
X161832019Y-83402732D01*
X161832019Y-83402732D02*
X161736781Y-83497970D01*
X161736781Y-83497970D02*
X161641543Y-83545589D01*
X162641543Y-84164636D02*
X162689162Y-84212256D01*
X162689162Y-84212256D02*
X162641543Y-84259875D01*
X162641543Y-84259875D02*
X162593924Y-84212256D01*
X162593924Y-84212256D02*
X162641543Y-84164636D01*
X162641543Y-84164636D02*
X162641543Y-84259875D01*
X163641542Y-84259875D02*
X163070114Y-84259875D01*
X163355828Y-84259875D02*
X163355828Y-83259875D01*
X163355828Y-83259875D02*
X163260590Y-83402732D01*
X163260590Y-83402732D02*
X163165352Y-83497970D01*
X163165352Y-83497970D02*
X163070114Y-83545589D01*
X148022493Y-84869819D02*
X148022493Y-85584104D01*
X148022493Y-85584104D02*
X147974874Y-85726961D01*
X147974874Y-85726961D02*
X147879636Y-85822200D01*
X147879636Y-85822200D02*
X147736779Y-85869819D01*
X147736779Y-85869819D02*
X147641541Y-85869819D01*
X148498684Y-85488866D02*
X149260589Y-85488866D01*
X150212969Y-85869819D02*
X149736779Y-85869819D01*
X149736779Y-85869819D02*
X149736779Y-84869819D01*
X150974874Y-85869819D02*
X150974874Y-85346009D01*
X150974874Y-85346009D02*
X150927255Y-85250771D01*
X150927255Y-85250771D02*
X150832017Y-85203152D01*
X150832017Y-85203152D02*
X150641541Y-85203152D01*
X150641541Y-85203152D02*
X150546303Y-85250771D01*
X150974874Y-85822200D02*
X150879636Y-85869819D01*
X150879636Y-85869819D02*
X150641541Y-85869819D01*
X150641541Y-85869819D02*
X150546303Y-85822200D01*
X150546303Y-85822200D02*
X150498684Y-85726961D01*
X150498684Y-85726961D02*
X150498684Y-85631723D01*
X150498684Y-85631723D02*
X150546303Y-85536485D01*
X150546303Y-85536485D02*
X150641541Y-85488866D01*
X150641541Y-85488866D02*
X150879636Y-85488866D01*
X150879636Y-85488866D02*
X150974874Y-85441247D01*
X151451065Y-85869819D02*
X151451065Y-84869819D01*
X151451065Y-85250771D02*
X151546303Y-85203152D01*
X151546303Y-85203152D02*
X151736779Y-85203152D01*
X151736779Y-85203152D02*
X151832017Y-85250771D01*
X151832017Y-85250771D02*
X151879636Y-85298390D01*
X151879636Y-85298390D02*
X151927255Y-85393628D01*
X151927255Y-85393628D02*
X151927255Y-85679342D01*
X151927255Y-85679342D02*
X151879636Y-85774580D01*
X151879636Y-85774580D02*
X151832017Y-85822200D01*
X151832017Y-85822200D02*
X151736779Y-85869819D01*
X151736779Y-85869819D02*
X151546303Y-85869819D01*
X151546303Y-85869819D02*
X151451065Y-85822200D01*
X153117732Y-84869819D02*
X153117732Y-85679342D01*
X153117732Y-85679342D02*
X153165351Y-85774580D01*
X153165351Y-85774580D02*
X153212970Y-85822200D01*
X153212970Y-85822200D02*
X153308208Y-85869819D01*
X153308208Y-85869819D02*
X153498684Y-85869819D01*
X153498684Y-85869819D02*
X153593922Y-85822200D01*
X153593922Y-85822200D02*
X153641541Y-85774580D01*
X153641541Y-85774580D02*
X153689160Y-85679342D01*
X153689160Y-85679342D02*
X153689160Y-84869819D01*
X154736779Y-85774580D02*
X154689160Y-85822200D01*
X154689160Y-85822200D02*
X154546303Y-85869819D01*
X154546303Y-85869819D02*
X154451065Y-85869819D01*
X154451065Y-85869819D02*
X154308208Y-85822200D01*
X154308208Y-85822200D02*
X154212970Y-85726961D01*
X154212970Y-85726961D02*
X154165351Y-85631723D01*
X154165351Y-85631723D02*
X154117732Y-85441247D01*
X154117732Y-85441247D02*
X154117732Y-85298390D01*
X154117732Y-85298390D02*
X154165351Y-85107914D01*
X154165351Y-85107914D02*
X154212970Y-85012676D01*
X154212970Y-85012676D02*
X154308208Y-84917438D01*
X154308208Y-84917438D02*
X154451065Y-84869819D01*
X154451065Y-84869819D02*
X154546303Y-84869819D01*
X154546303Y-84869819D02*
X154689160Y-84917438D01*
X154689160Y-84917438D02*
X154736779Y-84965057D01*
X155117732Y-85822200D02*
X155260589Y-85869819D01*
X155260589Y-85869819D02*
X155498684Y-85869819D01*
X155498684Y-85869819D02*
X155593922Y-85822200D01*
X155593922Y-85822200D02*
X155641541Y-85774580D01*
X155641541Y-85774580D02*
X155689160Y-85679342D01*
X155689160Y-85679342D02*
X155689160Y-85584104D01*
X155689160Y-85584104D02*
X155641541Y-85488866D01*
X155641541Y-85488866D02*
X155593922Y-85441247D01*
X155593922Y-85441247D02*
X155498684Y-85393628D01*
X155498684Y-85393628D02*
X155308208Y-85346009D01*
X155308208Y-85346009D02*
X155212970Y-85298390D01*
X155212970Y-85298390D02*
X155165351Y-85250771D01*
X155165351Y-85250771D02*
X155117732Y-85155533D01*
X155117732Y-85155533D02*
X155117732Y-85060295D01*
X155117732Y-85060295D02*
X155165351Y-84965057D01*
X155165351Y-84965057D02*
X155212970Y-84917438D01*
X155212970Y-84917438D02*
X155308208Y-84869819D01*
X155308208Y-84869819D02*
X155546303Y-84869819D01*
X155546303Y-84869819D02*
X155689160Y-84917438D01*
X156689160Y-85774580D02*
X156641541Y-85822200D01*
X156641541Y-85822200D02*
X156498684Y-85869819D01*
X156498684Y-85869819D02*
X156403446Y-85869819D01*
X156403446Y-85869819D02*
X156260589Y-85822200D01*
X156260589Y-85822200D02*
X156165351Y-85726961D01*
X156165351Y-85726961D02*
X156117732Y-85631723D01*
X156117732Y-85631723D02*
X156070113Y-85441247D01*
X156070113Y-85441247D02*
X156070113Y-85298390D01*
X156070113Y-85298390D02*
X156117732Y-85107914D01*
X156117732Y-85107914D02*
X156165351Y-85012676D01*
X156165351Y-85012676D02*
X156260589Y-84917438D01*
X156260589Y-84917438D02*
X156403446Y-84869819D01*
X156403446Y-84869819D02*
X156498684Y-84869819D01*
X156498684Y-84869819D02*
X156641541Y-84917438D01*
X156641541Y-84917438D02*
X156689160Y-84965057D01*
X171522493Y-76069819D02*
X171522493Y-76784104D01*
X171522493Y-76784104D02*
X171474874Y-76926961D01*
X171474874Y-76926961D02*
X171379636Y-77022200D01*
X171379636Y-77022200D02*
X171236779Y-77069819D01*
X171236779Y-77069819D02*
X171141541Y-77069819D01*
X172522493Y-77069819D02*
X171951065Y-77069819D01*
X172236779Y-77069819D02*
X172236779Y-76069819D01*
X172236779Y-76069819D02*
X172141541Y-76212676D01*
X172141541Y-76212676D02*
X172046303Y-76307914D01*
X172046303Y-76307914D02*
X171951065Y-76355533D01*
X163533333Y-71159580D02*
X163485714Y-71207200D01*
X163485714Y-71207200D02*
X163342857Y-71254819D01*
X163342857Y-71254819D02*
X163247619Y-71254819D01*
X163247619Y-71254819D02*
X163104762Y-71207200D01*
X163104762Y-71207200D02*
X163009524Y-71111961D01*
X163009524Y-71111961D02*
X162961905Y-71016723D01*
X162961905Y-71016723D02*
X162914286Y-70826247D01*
X162914286Y-70826247D02*
X162914286Y-70683390D01*
X162914286Y-70683390D02*
X162961905Y-70492914D01*
X162961905Y-70492914D02*
X163009524Y-70397676D01*
X163009524Y-70397676D02*
X163104762Y-70302438D01*
X163104762Y-70302438D02*
X163247619Y-70254819D01*
X163247619Y-70254819D02*
X163342857Y-70254819D01*
X163342857Y-70254819D02*
X163485714Y-70302438D01*
X163485714Y-70302438D02*
X163533333Y-70350057D01*
X164390476Y-70588152D02*
X164390476Y-71254819D01*
X164152381Y-70207200D02*
X163914286Y-70921485D01*
X163914286Y-70921485D02*
X164533333Y-70921485D01*
X154673333Y-70639580D02*
X154625714Y-70687200D01*
X154625714Y-70687200D02*
X154482857Y-70734819D01*
X154482857Y-70734819D02*
X154387619Y-70734819D01*
X154387619Y-70734819D02*
X154244762Y-70687200D01*
X154244762Y-70687200D02*
X154149524Y-70591961D01*
X154149524Y-70591961D02*
X154101905Y-70496723D01*
X154101905Y-70496723D02*
X154054286Y-70306247D01*
X154054286Y-70306247D02*
X154054286Y-70163390D01*
X154054286Y-70163390D02*
X154101905Y-69972914D01*
X154101905Y-69972914D02*
X154149524Y-69877676D01*
X154149524Y-69877676D02*
X154244762Y-69782438D01*
X154244762Y-69782438D02*
X154387619Y-69734819D01*
X154387619Y-69734819D02*
X154482857Y-69734819D01*
X154482857Y-69734819D02*
X154625714Y-69782438D01*
X154625714Y-69782438D02*
X154673333Y-69830057D01*
X155625714Y-70734819D02*
X155054286Y-70734819D01*
X155340000Y-70734819D02*
X155340000Y-69734819D01*
X155340000Y-69734819D02*
X155244762Y-69877676D01*
X155244762Y-69877676D02*
X155149524Y-69972914D01*
X155149524Y-69972914D02*
X155054286Y-70020533D01*
X148989285Y-51381009D02*
X149132142Y-51428628D01*
X149132142Y-51428628D02*
X149179761Y-51476247D01*
X149179761Y-51476247D02*
X149227380Y-51571485D01*
X149227380Y-51571485D02*
X149227380Y-51714342D01*
X149227380Y-51714342D02*
X149179761Y-51809580D01*
X149179761Y-51809580D02*
X149132142Y-51857200D01*
X149132142Y-51857200D02*
X149036904Y-51904819D01*
X149036904Y-51904819D02*
X148655952Y-51904819D01*
X148655952Y-51904819D02*
X148655952Y-50904819D01*
X148655952Y-50904819D02*
X148989285Y-50904819D01*
X148989285Y-50904819D02*
X149084523Y-50952438D01*
X149084523Y-50952438D02*
X149132142Y-51000057D01*
X149132142Y-51000057D02*
X149179761Y-51095295D01*
X149179761Y-51095295D02*
X149179761Y-51190533D01*
X149179761Y-51190533D02*
X149132142Y-51285771D01*
X149132142Y-51285771D02*
X149084523Y-51333390D01*
X149084523Y-51333390D02*
X148989285Y-51381009D01*
X148989285Y-51381009D02*
X148655952Y-51381009D01*
X149513095Y-50904819D02*
X150084523Y-50904819D01*
X149798809Y-51904819D02*
X149798809Y-50904819D01*
X150941666Y-51904819D02*
X150370238Y-51904819D01*
X150655952Y-51904819D02*
X150655952Y-50904819D01*
X150655952Y-50904819D02*
X150560714Y-51047676D01*
X150560714Y-51047676D02*
X150465476Y-51142914D01*
X150465476Y-51142914D02*
X150370238Y-51190533D01*
X177535180Y-78556666D02*
X176820895Y-78556666D01*
X176820895Y-78556666D02*
X176678038Y-78509047D01*
X176678038Y-78509047D02*
X176582800Y-78413809D01*
X176582800Y-78413809D02*
X176535180Y-78270952D01*
X176535180Y-78270952D02*
X176535180Y-78175714D01*
X176535180Y-79556666D02*
X176535180Y-78985238D01*
X176535180Y-79270952D02*
X177535180Y-79270952D01*
X177535180Y-79270952D02*
X177392323Y-79175714D01*
X177392323Y-79175714D02*
X177297085Y-79080476D01*
X177297085Y-79080476D02*
X177249466Y-78985238D01*
X159098095Y-74844819D02*
X159098095Y-75654342D01*
X159098095Y-75654342D02*
X159145714Y-75749580D01*
X159145714Y-75749580D02*
X159193333Y-75797200D01*
X159193333Y-75797200D02*
X159288571Y-75844819D01*
X159288571Y-75844819D02*
X159479047Y-75844819D01*
X159479047Y-75844819D02*
X159574285Y-75797200D01*
X159574285Y-75797200D02*
X159621904Y-75749580D01*
X159621904Y-75749580D02*
X159669523Y-75654342D01*
X159669523Y-75654342D02*
X159669523Y-74844819D01*
X160669523Y-75844819D02*
X160098095Y-75844819D01*
X160383809Y-75844819D02*
X160383809Y-74844819D01*
X160383809Y-74844819D02*
X160288571Y-74987676D01*
X160288571Y-74987676D02*
X160193333Y-75082914D01*
X160193333Y-75082914D02*
X160098095Y-75130533D01*
X165598095Y-72684819D02*
X165598095Y-73494342D01*
X165598095Y-73494342D02*
X165645714Y-73589580D01*
X165645714Y-73589580D02*
X165693333Y-73637200D01*
X165693333Y-73637200D02*
X165788571Y-73684819D01*
X165788571Y-73684819D02*
X165979047Y-73684819D01*
X165979047Y-73684819D02*
X166074285Y-73637200D01*
X166074285Y-73637200D02*
X166121904Y-73589580D01*
X166121904Y-73589580D02*
X166169523Y-73494342D01*
X166169523Y-73494342D02*
X166169523Y-72684819D01*
X166598095Y-72780057D02*
X166645714Y-72732438D01*
X166645714Y-72732438D02*
X166740952Y-72684819D01*
X166740952Y-72684819D02*
X166979047Y-72684819D01*
X166979047Y-72684819D02*
X167074285Y-72732438D01*
X167074285Y-72732438D02*
X167121904Y-72780057D01*
X167121904Y-72780057D02*
X167169523Y-72875295D01*
X167169523Y-72875295D02*
X167169523Y-72970533D01*
X167169523Y-72970533D02*
X167121904Y-73113390D01*
X167121904Y-73113390D02*
X166550476Y-73684819D01*
X166550476Y-73684819D02*
X167169523Y-73684819D01*
X166239580Y-78036666D02*
X166287200Y-78084285D01*
X166287200Y-78084285D02*
X166334819Y-78227142D01*
X166334819Y-78227142D02*
X166334819Y-78322380D01*
X166334819Y-78322380D02*
X166287200Y-78465237D01*
X166287200Y-78465237D02*
X166191961Y-78560475D01*
X166191961Y-78560475D02*
X166096723Y-78608094D01*
X166096723Y-78608094D02*
X165906247Y-78655713D01*
X165906247Y-78655713D02*
X165763390Y-78655713D01*
X165763390Y-78655713D02*
X165572914Y-78608094D01*
X165572914Y-78608094D02*
X165477676Y-78560475D01*
X165477676Y-78560475D02*
X165382438Y-78465237D01*
X165382438Y-78465237D02*
X165334819Y-78322380D01*
X165334819Y-78322380D02*
X165334819Y-78227142D01*
X165334819Y-78227142D02*
X165382438Y-78084285D01*
X165382438Y-78084285D02*
X165430057Y-78036666D01*
X165334819Y-77703332D02*
X165334819Y-77084285D01*
X165334819Y-77084285D02*
X165715771Y-77417618D01*
X165715771Y-77417618D02*
X165715771Y-77274761D01*
X165715771Y-77274761D02*
X165763390Y-77179523D01*
X165763390Y-77179523D02*
X165811009Y-77131904D01*
X165811009Y-77131904D02*
X165906247Y-77084285D01*
X165906247Y-77084285D02*
X166144342Y-77084285D01*
X166144342Y-77084285D02*
X166239580Y-77131904D01*
X166239580Y-77131904D02*
X166287200Y-77179523D01*
X166287200Y-77179523D02*
X166334819Y-77274761D01*
X166334819Y-77274761D02*
X166334819Y-77560475D01*
X166334819Y-77560475D02*
X166287200Y-77655713D01*
X166287200Y-77655713D02*
X166239580Y-77703332D01*
X162003333Y-74779580D02*
X161955714Y-74827200D01*
X161955714Y-74827200D02*
X161812857Y-74874819D01*
X161812857Y-74874819D02*
X161717619Y-74874819D01*
X161717619Y-74874819D02*
X161574762Y-74827200D01*
X161574762Y-74827200D02*
X161479524Y-74731961D01*
X161479524Y-74731961D02*
X161431905Y-74636723D01*
X161431905Y-74636723D02*
X161384286Y-74446247D01*
X161384286Y-74446247D02*
X161384286Y-74303390D01*
X161384286Y-74303390D02*
X161431905Y-74112914D01*
X161431905Y-74112914D02*
X161479524Y-74017676D01*
X161479524Y-74017676D02*
X161574762Y-73922438D01*
X161574762Y-73922438D02*
X161717619Y-73874819D01*
X161717619Y-73874819D02*
X161812857Y-73874819D01*
X161812857Y-73874819D02*
X161955714Y-73922438D01*
X161955714Y-73922438D02*
X162003333Y-73970057D01*
X162384286Y-73970057D02*
X162431905Y-73922438D01*
X162431905Y-73922438D02*
X162527143Y-73874819D01*
X162527143Y-73874819D02*
X162765238Y-73874819D01*
X162765238Y-73874819D02*
X162860476Y-73922438D01*
X162860476Y-73922438D02*
X162908095Y-73970057D01*
X162908095Y-73970057D02*
X162955714Y-74065295D01*
X162955714Y-74065295D02*
X162955714Y-74160533D01*
X162955714Y-74160533D02*
X162908095Y-74303390D01*
X162908095Y-74303390D02*
X162336667Y-74874819D01*
X162336667Y-74874819D02*
X162955714Y-74874819D01*
D11*
X162660000Y-71207836D02*
X162660000Y-70992164D01*
X161940000Y-71207836D02*
X161940000Y-70992164D01*
X156660000Y-70427836D02*
X156660000Y-70212164D01*
X155940000Y-70427836D02*
X155940000Y-70212164D01*
X149350000Y-52900000D02*
X149350000Y-54450000D01*
X149350000Y-60600000D02*
X149350000Y-59050000D01*
X150900000Y-61750000D02*
X150900000Y-63750000D01*
X151900000Y-62750000D02*
X149900000Y-62750000D01*
X152550000Y-48400000D02*
X152550000Y-52900000D01*
X152550000Y-48400000D02*
X175250000Y-48400000D01*
X152550000Y-52900000D02*
X149350000Y-52900000D01*
X152550000Y-60600000D02*
X149350000Y-60600000D01*
X152550000Y-63300000D02*
X152550000Y-60600000D01*
X154350000Y-65100000D02*
X152550000Y-63300000D01*
X175250000Y-48400000D02*
X175250000Y-52900000D01*
X175250000Y-52900000D02*
X178450000Y-52900000D01*
X175250000Y-60600000D02*
X178450000Y-60600000D01*
X175250000Y-65100000D02*
X154350000Y-65100000D01*
X175250000Y-65100000D02*
X175250000Y-60600000D01*
X178450000Y-52900000D02*
X178450000Y-54450000D01*
X178450000Y-60600000D02*
X178450000Y-59050000D01*
D12*
X177066200Y-83665200D02*
G75*
G02*
X176913800Y-83665200I-76200J0D01*
G01*
X176913800Y-83665200D02*
G75*
G02*
X177066200Y-83665200I76200J0D01*
G01*
X178675351Y-75257800D02*
X175304649Y-75257800D01*
X188826400Y-75600700D02*
X180696994Y-75600700D01*
X173357800Y-77204649D02*
X173357800Y-80575351D01*
X180368200Y-77454874D02*
X180368200Y-80325126D01*
X180622200Y-80575351D02*
X180622200Y-77204649D01*
X188826400Y-82179300D02*
X188826400Y-75600700D01*
X180696994Y-82179300D02*
X188826400Y-82179300D01*
X175304649Y-82522200D02*
X178675351Y-82522200D01*
D11*
X148304600Y-75455400D02*
X150920800Y-75455400D01*
X148304600Y-77970000D02*
X148304600Y-75455400D01*
X150920800Y-75455400D02*
X150920800Y-77970000D01*
X150920800Y-77970000D02*
X148304600Y-77970000D01*
X150932200Y-74405400D02*
X148316000Y-74405400D01*
X150932200Y-71890800D02*
X150932200Y-74405400D01*
X148316000Y-74405400D02*
X148316000Y-71890800D01*
X148316000Y-71890800D02*
X150932200Y-71890800D01*
D13*
X163830001Y-74130000D02*
X163830001Y-74130000D01*
X163830001Y-74130000D01*
X163830001Y-74130000D01*
X163830001Y-74130000D01*
X163830001Y-74130000D01*
X163830001Y-74130001D01*
X163830001Y-74130001D01*
X163830001Y-74130001D01*
X163830001Y-74130001D01*
X163830001Y-74130001D01*
X163830001Y-74130001D01*
X163830001Y-74130001D01*
X163830000Y-74130001D01*
X163830000Y-74130001D01*
X163830000Y-74130001D01*
X163830000Y-74130001D01*
X163830000Y-74130001D01*
X163830000Y-74130001D01*
X163830000Y-74130001D01*
X163830000Y-74130001D01*
X163830000Y-74130001D01*
X163830000Y-74130001D01*
X163830000Y-74130001D01*
X163830000Y-74130001D01*
X163829999Y-74130001D01*
X163829999Y-74130001D01*
X163829999Y-74130001D01*
X163829999Y-74130001D01*
X163829999Y-74130001D01*
X163829999Y-74130001D01*
X163829999Y-74130000D01*
X163829999Y-74130000D01*
X163829999Y-74130000D01*
X163829999Y-74130000D01*
X163829999Y-74130000D01*
X163829999Y-74130000D01*
X163829999Y-74130000D02*
X163829999Y-74130000D01*
X163829999Y-74130000D01*
X163829999Y-74130000D01*
X163829999Y-74130000D01*
X163829999Y-74130000D01*
X163829999Y-74130000D01*
X163829999Y-74129999D01*
X163829999Y-74129999D01*
X163829999Y-74129999D01*
X163829999Y-74129999D01*
X163829999Y-74129999D01*
X163830000Y-74129999D01*
X163830000Y-74129999D01*
X163830000Y-74129999D01*
X163830000Y-74129999D01*
X163830000Y-74129999D01*
X163830000Y-74129999D01*
X163830000Y-74129999D01*
X163830000Y-74129999D01*
X163830000Y-74129999D01*
X163830000Y-74129999D01*
X163830000Y-74129999D01*
X163830000Y-74129999D01*
X163830001Y-74129999D01*
X163830001Y-74129999D01*
X163830001Y-74129999D01*
X163830001Y-74129999D01*
X163830001Y-74129999D01*
X163830001Y-74129999D01*
X163830001Y-74130000D01*
X163830001Y-74130000D01*
X163830001Y-74130000D01*
X163830001Y-74130000D01*
X163830001Y-74130000D01*
X163830001Y-74130000D01*
X163830001Y-74130000D01*
X163830000Y-73880000D02*
X165330000Y-73880000D01*
X165330000Y-72380000D01*
X163830000Y-72380000D01*
X163830000Y-73880000D01*
X164080000Y-73630000D02*
X165080000Y-73630000D01*
X165080000Y-72630000D01*
X164080000Y-72630000D01*
X164080000Y-73630000D01*
D11*
X164935000Y-77608748D02*
X164935000Y-78131252D01*
X163465000Y-77608748D02*
X163465000Y-78131252D01*
X162277836Y-72900000D02*
X162062164Y-72900000D01*
X162277836Y-73620000D02*
X162062164Y-73620000D01*
%LPC*%
D14*
X162300000Y-70620000D03*
X162300000Y-71580000D03*
X156300000Y-69840000D03*
X156300000Y-70800000D03*
D15*
X149250000Y-56750000D03*
X178550000Y-56750000D03*
D16*
X179530000Y-81430000D03*
X174450000Y-81430000D03*
X174450000Y-76350000D03*
X179530000Y-76350000D03*
X176990000Y-78890000D03*
D17*
X149600000Y-76700000D03*
X149611400Y-73135400D03*
D18*
X159540000Y-74040002D03*
D19*
X159985999Y-73338976D03*
D18*
X159540000Y-72440000D03*
D19*
X159094001Y-73134001D03*
D20*
X164230000Y-72630000D03*
X164580000Y-72630000D03*
X164930000Y-72630000D03*
X164930000Y-73630000D03*
D21*
X164930000Y-73130000D03*
D22*
X164580000Y-73130000D03*
D21*
X164230000Y-73130000D03*
D23*
X164580000Y-73512500D03*
D20*
X164230000Y-73630000D03*
D24*
X164200000Y-78820000D03*
X164200000Y-76920000D03*
D25*
X162650000Y-73260000D03*
X161690000Y-73260000D03*
%LPD*%
M02*
