G04 #@! TF.GenerationSoftware,KiCad,Pcbnew,8.0.7-8.0.7-0~ubuntu22.04.1*
G04 #@! TF.CreationDate,2025-01-08T14:25:37-08:00*
G04 #@! TF.ProjectId,RFBackscatterV1,52464261-636b-4736-9361-747465725631,rev?*
G04 #@! TF.SameCoordinates,Original*
G04 #@! TF.FileFunction,Copper,L1,Top*
G04 #@! TF.FilePolarity,Positive*
%FSLAX46Y46*%
G04 Gerber Fmt 4.6, Leading zero omitted, Abs format (unit mm)*
G04 Created by KiCad (PCBNEW 8.0.7-8.0.7-0~ubuntu22.04.1) date 2025-01-08 14:25:37*
%MOMM*%
%LPD*%
G01*
G04 APERTURE LIST*
G04 Aperture macros list*
%AMRoundRect*
0 Rectangle with rounded corners*
0 $1 Rounding radius*
0 $2 $3 $4 $5 $6 $7 $8 $9 X,Y pos of 4 corners*
0 Add a 4 corners polygon primitive as box body*
4,1,4,$2,$3,$4,$5,$6,$7,$8,$9,$2,$3,0*
0 Add four circle primitives for the rounded corners*
1,1,$1+$1,$2,$3*
1,1,$1+$1,$4,$5*
1,1,$1+$1,$6,$7*
1,1,$1+$1,$8,$9*
0 Add four rect primitives between the rounded corners*
20,1,$1+$1,$2,$3,$4,$5,0*
20,1,$1+$1,$4,$5,$6,$7,0*
20,1,$1+$1,$6,$7,$8,$9,0*
20,1,$1+$1,$8,$9,$2,$3,0*%
G04 Aperture macros list end*
G04 #@! TA.AperFunction,SMDPad,CuDef*
%ADD10RoundRect,0.140000X0.170000X-0.140000X0.170000X0.140000X-0.170000X0.140000X-0.170000X-0.140000X0*%
G04 #@! TD*
G04 #@! TA.AperFunction,SMDPad,CuDef*
%ADD11R,2.600000X3.600000*%
G04 #@! TD*
G04 #@! TA.AperFunction,ComponentPad*
%ADD12C,2.108200*%
G04 #@! TD*
G04 #@! TA.AperFunction,SMDPad,CuDef*
%ADD13R,2.000000X2.000000*%
G04 #@! TD*
G04 #@! TA.AperFunction,SMDPad,CuDef*
%ADD14R,1.397000X0.406400*%
G04 #@! TD*
G04 #@! TA.AperFunction,SMDPad,CuDef*
%ADD15R,0.508000X0.304800*%
G04 #@! TD*
G04 #@! TA.AperFunction,SMDPad,CuDef*
%ADD16RoundRect,0.037500X0.037500X-0.127500X0.037500X0.127500X-0.037500X0.127500X-0.037500X-0.127500X0*%
G04 #@! TD*
G04 #@! TA.AperFunction,SMDPad,CuDef*
%ADD17RoundRect,0.037500X0.245000X0.037500X-0.245000X0.037500X-0.245000X-0.037500X0.245000X-0.037500X0*%
G04 #@! TD*
G04 #@! TA.AperFunction,SMDPad,CuDef*
%ADD18RoundRect,0.100000X0.100000X-0.100000X0.100000X0.100000X-0.100000X0.100000X-0.100000X-0.100000X0*%
G04 #@! TD*
G04 #@! TA.AperFunction,SMDPad,CuDef*
%ADD19RoundRect,0.037500X0.037500X-0.245000X0.037500X0.245000X-0.037500X0.245000X-0.037500X-0.245000X0*%
G04 #@! TD*
G04 #@! TA.AperFunction,SMDPad,CuDef*
%ADD20RoundRect,0.250000X-0.475000X0.250000X-0.475000X-0.250000X0.475000X-0.250000X0.475000X0.250000X0*%
G04 #@! TD*
G04 #@! TA.AperFunction,SMDPad,CuDef*
%ADD21RoundRect,0.140000X0.140000X0.170000X-0.140000X0.170000X-0.140000X-0.170000X0.140000X-0.170000X0*%
G04 #@! TD*
G04 #@! TA.AperFunction,ViaPad*
%ADD22C,0.800000*%
G04 #@! TD*
G04 #@! TA.AperFunction,Conductor*
%ADD23C,0.270000*%
G04 #@! TD*
G04 #@! TA.AperFunction,Conductor*
%ADD24C,0.150000*%
G04 #@! TD*
G04 #@! TA.AperFunction,Conductor*
%ADD25C,1.900000*%
G04 #@! TD*
G04 APERTURE END LIST*
D10*
X162300000Y-70620000D03*
X162300000Y-71580000D03*
X156300000Y-69840000D03*
X156300000Y-70800000D03*
D11*
X149250000Y-56750000D03*
X178550000Y-56750000D03*
D12*
X179530000Y-81430000D03*
X174450000Y-81430000D03*
X174450000Y-76350000D03*
X179530000Y-76350000D03*
X176990000Y-78890000D03*
D13*
X149600000Y-76700000D03*
X149611400Y-73135400D03*
D14*
X159540000Y-74040002D03*
D15*
X159985999Y-73338976D03*
D14*
X159540000Y-72440000D03*
D15*
X159094001Y-73134001D03*
D16*
X164230000Y-72630000D03*
X164580000Y-72630000D03*
X164930000Y-72630000D03*
X164930000Y-73630000D03*
D17*
X164930000Y-73130000D03*
D18*
X164580000Y-73130000D03*
D17*
X164230000Y-73130000D03*
D19*
X164580000Y-73512500D03*
D16*
X164230000Y-73630000D03*
D20*
X164200000Y-78820000D03*
X164200000Y-76920000D03*
D21*
X162650000Y-73260000D03*
X161690000Y-73260000D03*
D22*
X161000000Y-71200000D03*
D23*
X162300000Y-71580000D02*
X163880000Y-71580000D01*
X163880000Y-71580000D02*
X164000000Y-71700000D01*
X164990000Y-69390000D02*
X164785000Y-69185000D01*
X164785000Y-69185000D02*
X161223300Y-69185000D01*
X161223300Y-69185000D02*
X158020000Y-72388300D01*
D24*
X164580000Y-72630000D02*
X164580000Y-72280000D01*
X164580000Y-72280000D02*
X164000000Y-71700000D01*
D23*
X158020000Y-73135400D02*
X158020000Y-72388300D01*
X164990000Y-69390000D02*
X164990000Y-72630000D01*
X149611400Y-73135400D02*
X156300000Y-73135400D01*
X164170000Y-76890000D02*
X164170000Y-73630000D01*
X156300000Y-73135400D02*
X158020000Y-73135400D01*
X156300000Y-70800000D02*
X156300000Y-73135400D01*
X149250000Y-56750000D02*
X149250000Y-72774000D01*
X149250000Y-72774000D02*
X149611400Y-73135400D01*
D25*
X164200000Y-78820000D02*
X176920000Y-78820000D01*
D23*
X176920000Y-78820000D02*
X176990000Y-78890000D01*
X164200000Y-76920000D02*
X164170000Y-76890000D01*
X159540000Y-72440000D02*
X162650000Y-72440000D01*
X162650000Y-73260000D02*
X162650000Y-72440000D01*
X162650000Y-72440000D02*
X163980000Y-72440000D01*
X159985999Y-73338976D02*
X161611024Y-73338976D01*
X161611024Y-73338976D02*
X161690000Y-73260000D01*
X159985999Y-73338976D02*
X160410674Y-73338976D01*
X162387166Y-74780000D02*
X164037166Y-73130000D01*
X160410674Y-73338976D02*
X161851698Y-74780000D01*
X164037166Y-73130000D02*
X164230000Y-73130000D01*
X161851698Y-74780000D02*
X162387166Y-74780000D01*
X158020000Y-73135400D02*
X159092602Y-73135400D01*
X163980000Y-72440000D02*
X164170000Y-72630000D01*
X159092602Y-73135400D02*
X159094001Y-73134001D01*
G04 #@! TA.AperFunction,Conductor*
G36*
X175300000Y-73500000D02*
G01*
X180900000Y-73500000D01*
X180900000Y-75611273D01*
X180794475Y-75439075D01*
X180245922Y-75987628D01*
X180239039Y-75971011D01*
X180151478Y-75839966D01*
X180040034Y-75728522D01*
X179908989Y-75640961D01*
X179892368Y-75634076D01*
X180440923Y-75085523D01*
X180237729Y-74961004D01*
X180011730Y-74867393D01*
X180011718Y-74867389D01*
X179773870Y-74810287D01*
X179530000Y-74791094D01*
X179286129Y-74810287D01*
X179048281Y-74867389D01*
X179048269Y-74867393D01*
X178822270Y-74961004D01*
X178619075Y-75085523D01*
X179167629Y-75634077D01*
X179151011Y-75640961D01*
X179019966Y-75728522D01*
X178908522Y-75839966D01*
X178820961Y-75971011D01*
X178814077Y-75987629D01*
X178265523Y-75439075D01*
X178141004Y-75642270D01*
X178047393Y-75868269D01*
X178047389Y-75868281D01*
X177990287Y-76106129D01*
X177971094Y-76350000D01*
X177990287Y-76593870D01*
X178047389Y-76831718D01*
X178047393Y-76831730D01*
X178141004Y-77057729D01*
X178265523Y-77260923D01*
X178814077Y-76712369D01*
X178820961Y-76728989D01*
X178908522Y-76860034D01*
X179019966Y-76971478D01*
X179151011Y-77059039D01*
X179167629Y-77065922D01*
X178619075Y-77614475D01*
X178619075Y-77614476D01*
X178822270Y-77738995D01*
X179048269Y-77832606D01*
X179048281Y-77832610D01*
X179286129Y-77889712D01*
X179530000Y-77908905D01*
X179773870Y-77889712D01*
X180011718Y-77832610D01*
X180011730Y-77832606D01*
X180237729Y-77738995D01*
X180440922Y-77614476D01*
X180440923Y-77614475D01*
X179892370Y-77065922D01*
X179908989Y-77059039D01*
X180040034Y-76971478D01*
X180151478Y-76860034D01*
X180239039Y-76728989D01*
X180245922Y-76712370D01*
X180794475Y-77260923D01*
X180794476Y-77260922D01*
X180900000Y-77088725D01*
X180900000Y-80691273D01*
X180794475Y-80519075D01*
X180245922Y-81067628D01*
X180239039Y-81051011D01*
X180151478Y-80919966D01*
X180040034Y-80808522D01*
X179908989Y-80720961D01*
X179892368Y-80714076D01*
X180440923Y-80165523D01*
X180237729Y-80041004D01*
X180011730Y-79947393D01*
X180011718Y-79947389D01*
X179773870Y-79890287D01*
X179530000Y-79871094D01*
X179286129Y-79890287D01*
X179048281Y-79947389D01*
X179048269Y-79947393D01*
X178822270Y-80041004D01*
X178619075Y-80165523D01*
X179167629Y-80714077D01*
X179151011Y-80720961D01*
X179019966Y-80808522D01*
X178908522Y-80919966D01*
X178820961Y-81051011D01*
X178814077Y-81067629D01*
X178265523Y-80519075D01*
X178141004Y-80722270D01*
X178047393Y-80948269D01*
X178047389Y-80948281D01*
X177990287Y-81186129D01*
X177971094Y-81430000D01*
X177990287Y-81673870D01*
X178047389Y-81911718D01*
X178047393Y-81911730D01*
X178141004Y-82137729D01*
X178265523Y-82340923D01*
X178814077Y-81792369D01*
X178820961Y-81808989D01*
X178908522Y-81940034D01*
X179019966Y-82051478D01*
X179151011Y-82139039D01*
X179167629Y-82145922D01*
X178619075Y-82694475D01*
X178619075Y-82694476D01*
X178822270Y-82818995D01*
X179048269Y-82912606D01*
X179048281Y-82912610D01*
X179286129Y-82969712D01*
X179530000Y-82988905D01*
X179773870Y-82969712D01*
X180011718Y-82912610D01*
X180011730Y-82912606D01*
X180237729Y-82818995D01*
X180440922Y-82694476D01*
X180440923Y-82694475D01*
X179892370Y-82145922D01*
X179908989Y-82139039D01*
X180040034Y-82051478D01*
X180151478Y-81940034D01*
X180239039Y-81808989D01*
X180245922Y-81792370D01*
X180794475Y-82340923D01*
X180794476Y-82340922D01*
X180900000Y-82168725D01*
X180900000Y-85000000D01*
X172950000Y-85000000D01*
X172963497Y-81895509D01*
X172967389Y-81911718D01*
X172967393Y-81911730D01*
X173061004Y-82137729D01*
X173185523Y-82340923D01*
X173734076Y-81792369D01*
X173740961Y-81808989D01*
X173828522Y-81940034D01*
X173939966Y-82051478D01*
X174071011Y-82139039D01*
X174087629Y-82145922D01*
X173539075Y-82694475D01*
X173539075Y-82694476D01*
X173742270Y-82818995D01*
X173968269Y-82912606D01*
X173968281Y-82912610D01*
X174206129Y-82969712D01*
X174450000Y-82988905D01*
X174693870Y-82969712D01*
X174931718Y-82912610D01*
X174931730Y-82912606D01*
X175157729Y-82818995D01*
X175360922Y-82694476D01*
X175360923Y-82694475D01*
X174812370Y-82145922D01*
X174828989Y-82139039D01*
X174960034Y-82051478D01*
X175071478Y-81940034D01*
X175159039Y-81808989D01*
X175165922Y-81792370D01*
X175714475Y-82340923D01*
X175714476Y-82340922D01*
X175838995Y-82137729D01*
X175932606Y-81911730D01*
X175932610Y-81911718D01*
X175989712Y-81673870D01*
X176008905Y-81430000D01*
X175989712Y-81186129D01*
X175932610Y-80948281D01*
X175932606Y-80948269D01*
X175838995Y-80722270D01*
X175711184Y-80513703D01*
X175711183Y-80513701D01*
X175678156Y-80475031D01*
X175649586Y-80411270D01*
X175660023Y-80342184D01*
X175706154Y-80289708D01*
X175772447Y-80270500D01*
X176235790Y-80270500D01*
X176283242Y-80279939D01*
X176508116Y-80373084D01*
X176667173Y-80411270D01*
X176746055Y-80430208D01*
X176990000Y-80449407D01*
X177233945Y-80430208D01*
X177471883Y-80373084D01*
X177471884Y-80373084D01*
X177697952Y-80279444D01*
X177697953Y-80279443D01*
X177697956Y-80279442D01*
X177906596Y-80151587D01*
X178092667Y-79992667D01*
X178251587Y-79806596D01*
X178379442Y-79597956D01*
X178473084Y-79371883D01*
X178530208Y-79133945D01*
X178549407Y-78890000D01*
X178530208Y-78646055D01*
X178473084Y-78408117D01*
X178473084Y-78408116D01*
X178473084Y-78408115D01*
X178379444Y-78182047D01*
X178379442Y-78182044D01*
X178251590Y-77973409D01*
X178251589Y-77973406D01*
X178215687Y-77931370D01*
X178092667Y-77787333D01*
X177969645Y-77682262D01*
X177906593Y-77628410D01*
X177906590Y-77628409D01*
X177697955Y-77500557D01*
X177697952Y-77500555D01*
X177471883Y-77406915D01*
X177233948Y-77349792D01*
X176990000Y-77330593D01*
X176746051Y-77349792D01*
X176687535Y-77363841D01*
X176678234Y-77366074D01*
X176649289Y-77369500D01*
X175869359Y-77369500D01*
X175802320Y-77349815D01*
X175756565Y-77297011D01*
X175746621Y-77227853D01*
X175763632Y-77180710D01*
X175838995Y-77057729D01*
X175932606Y-76831730D01*
X175932610Y-76831718D01*
X175989712Y-76593870D01*
X176008905Y-76350000D01*
X175989712Y-76106129D01*
X175932610Y-75868281D01*
X175932606Y-75868269D01*
X175838995Y-75642270D01*
X175714475Y-75439075D01*
X175165922Y-75987628D01*
X175159039Y-75971011D01*
X175071478Y-75839966D01*
X174960034Y-75728522D01*
X174828989Y-75640961D01*
X174812368Y-75634076D01*
X175360923Y-75085523D01*
X175157729Y-74961004D01*
X174931730Y-74867393D01*
X174931718Y-74867389D01*
X174693870Y-74810287D01*
X174450000Y-74791094D01*
X174206129Y-74810287D01*
X173968281Y-74867389D01*
X173968269Y-74867393D01*
X173742270Y-74961004D01*
X173539075Y-75085523D01*
X174087629Y-75634077D01*
X174071011Y-75640961D01*
X173939966Y-75728522D01*
X173828522Y-75839966D01*
X173740961Y-75971011D01*
X173734077Y-75987629D01*
X173185523Y-75439075D01*
X173061004Y-75642270D01*
X172989939Y-75813836D01*
X173000000Y-73500000D01*
X174550000Y-73500000D01*
X175450000Y-73450000D01*
X175300000Y-73500000D01*
G37*
G04 #@! TD.AperFunction*
G04 #@! TA.AperFunction,Conductor*
G36*
X173194592Y-80290185D02*
G01*
X173240347Y-80342989D01*
X173250291Y-80412147D01*
X173221844Y-80475031D01*
X173188816Y-80513701D01*
X173188815Y-80513703D01*
X173061004Y-80722270D01*
X172967618Y-80947724D01*
X172970563Y-80270500D01*
X173127553Y-80270500D01*
X173194592Y-80290185D01*
G37*
G04 #@! TD.AperFunction*
G04 #@! TA.AperFunction,Conductor*
G36*
X173061004Y-77057729D02*
G01*
X173136368Y-77180710D01*
X173154613Y-77248155D01*
X173133497Y-77314758D01*
X173079725Y-77359372D01*
X173030641Y-77369500D01*
X172983176Y-77369500D01*
X172985325Y-76875025D01*
X173061004Y-77057729D01*
G37*
G04 #@! TD.AperFunction*
G04 #@! TA.AperFunction,Conductor*
G36*
X181173039Y-45019685D02*
G01*
X181218794Y-45072489D01*
X181230000Y-45124000D01*
X181230000Y-75769713D01*
X181210315Y-75836752D01*
X181157511Y-75882507D01*
X181088353Y-75892451D01*
X181024797Y-75863426D01*
X180991439Y-75817166D01*
X180918995Y-75642270D01*
X180900000Y-75611273D01*
X180900000Y-73500000D01*
X175300000Y-73500000D01*
X175450000Y-73450000D01*
X174550000Y-73500000D01*
X173000000Y-73500000D01*
X172989939Y-75813835D01*
X172967393Y-75868269D01*
X172967389Y-75868281D01*
X172910287Y-76106129D01*
X172891094Y-76350000D01*
X172910287Y-76593870D01*
X172967389Y-76831718D01*
X172967393Y-76831730D01*
X172985325Y-76875024D01*
X172983176Y-77369500D01*
X165547541Y-77369500D01*
X165480502Y-77349815D01*
X165434747Y-77297011D01*
X165424183Y-77232896D01*
X165425500Y-77220009D01*
X165425499Y-76619992D01*
X165414999Y-76517203D01*
X165359814Y-76350666D01*
X165267712Y-76201344D01*
X165143656Y-76077288D01*
X165050888Y-76020069D01*
X164994336Y-75985187D01*
X164994335Y-75985186D01*
X164994334Y-75985186D01*
X164890495Y-75950777D01*
X164833051Y-75911004D01*
X164806228Y-75846488D01*
X164805500Y-75833071D01*
X164805500Y-74419500D01*
X164825185Y-74352461D01*
X164877989Y-74306706D01*
X164929500Y-74295500D01*
X165009619Y-74295500D01*
X165031232Y-74292904D01*
X165096077Y-74285117D01*
X165233658Y-74230862D01*
X165351500Y-74141500D01*
X165440862Y-74023658D01*
X165495117Y-73886077D01*
X165505500Y-73799618D01*
X165505500Y-73653031D01*
X165525185Y-73585992D01*
X165554578Y-73554224D01*
X165558646Y-73551138D01*
X165647920Y-73433413D01*
X165647923Y-73433407D01*
X165702126Y-73295958D01*
X165712500Y-73209571D01*
X165712500Y-73050428D01*
X165702126Y-72964041D01*
X165647923Y-72826592D01*
X165647920Y-72826587D01*
X165642734Y-72819747D01*
X165617912Y-72754435D01*
X165619921Y-72720635D01*
X165625500Y-72692591D01*
X165625500Y-69327409D01*
X165601078Y-69204631D01*
X165561039Y-69107968D01*
X165553176Y-69088984D01*
X165553169Y-69088971D01*
X165483626Y-68984893D01*
X165483625Y-68984892D01*
X165395108Y-68896375D01*
X165190111Y-68691377D01*
X165190107Y-68691374D01*
X165086028Y-68621830D01*
X165086015Y-68621823D01*
X164970373Y-68573923D01*
X164970361Y-68573920D01*
X164847595Y-68549500D01*
X164847591Y-68549500D01*
X161285891Y-68549500D01*
X161160709Y-68549500D01*
X161160704Y-68549500D01*
X161037938Y-68573920D01*
X161037926Y-68573923D01*
X160922284Y-68621823D01*
X160922271Y-68621830D01*
X160818192Y-68691374D01*
X160818188Y-68691377D01*
X158405454Y-71104113D01*
X157614892Y-71894675D01*
X157570632Y-71938934D01*
X157526373Y-71983193D01*
X157456830Y-72087271D01*
X157456823Y-72087284D01*
X157408923Y-72202926D01*
X157408920Y-72202938D01*
X157384500Y-72325704D01*
X157384500Y-72375900D01*
X157364815Y-72442939D01*
X157312011Y-72488694D01*
X157260500Y-72499900D01*
X157059500Y-72499900D01*
X156992461Y-72480215D01*
X156946706Y-72427411D01*
X156935500Y-72375900D01*
X156935500Y-71431666D01*
X156955185Y-71364627D01*
X156971822Y-71343982D01*
X156980113Y-71335691D01*
X156980117Y-71335687D01*
X157062494Y-71196395D01*
X157095736Y-71081975D01*
X157107642Y-71040997D01*
X157107643Y-71040991D01*
X157109479Y-71017665D01*
X157110500Y-71004690D01*
X157110500Y-70595310D01*
X157107643Y-70559007D01*
X157062494Y-70403605D01*
X157050089Y-70382630D01*
X157032906Y-70314909D01*
X157050091Y-70256384D01*
X157062032Y-70236194D01*
X157104504Y-70090000D01*
X156798352Y-70090000D01*
X156735233Y-70072732D01*
X156726395Y-70067506D01*
X156726393Y-70067505D01*
X156726389Y-70067503D01*
X156570997Y-70022357D01*
X156570991Y-70022356D01*
X156534697Y-70019500D01*
X156534690Y-70019500D01*
X156065310Y-70019500D01*
X156065302Y-70019500D01*
X156029008Y-70022356D01*
X156029002Y-70022357D01*
X155873610Y-70067503D01*
X155873605Y-70067506D01*
X155864766Y-70072732D01*
X155801648Y-70090000D01*
X155495496Y-70090000D01*
X155537968Y-70236194D01*
X155549911Y-70256389D01*
X155567092Y-70324113D01*
X155549911Y-70382628D01*
X155537506Y-70403604D01*
X155537504Y-70403609D01*
X155492357Y-70559002D01*
X155492356Y-70559008D01*
X155489500Y-70595302D01*
X155489500Y-71004697D01*
X155492356Y-71040991D01*
X155492357Y-71040997D01*
X155537504Y-71196390D01*
X155537505Y-71196393D01*
X155619881Y-71335684D01*
X155619886Y-71335691D01*
X155628178Y-71343982D01*
X155661665Y-71405304D01*
X155664500Y-71431666D01*
X155664500Y-72375900D01*
X155644815Y-72442939D01*
X155592011Y-72488694D01*
X155540500Y-72499900D01*
X151235899Y-72499900D01*
X151168860Y-72480215D01*
X151123105Y-72427411D01*
X151111899Y-72375900D01*
X151111899Y-72087529D01*
X151111898Y-72087523D01*
X151111897Y-72087516D01*
X151105491Y-72027917D01*
X151055795Y-71894676D01*
X151055197Y-71893071D01*
X151055193Y-71893064D01*
X150968947Y-71777855D01*
X150968944Y-71777852D01*
X150853735Y-71691606D01*
X150853728Y-71691602D01*
X150718882Y-71641308D01*
X150718883Y-71641308D01*
X150659283Y-71634901D01*
X150659281Y-71634900D01*
X150659273Y-71634900D01*
X150659265Y-71634900D01*
X150009500Y-71634900D01*
X149942461Y-71615215D01*
X149896706Y-71562411D01*
X149885500Y-71510900D01*
X149885500Y-69590000D01*
X155495496Y-69590000D01*
X156050000Y-69590000D01*
X156550000Y-69590000D01*
X157104504Y-69590000D01*
X157062031Y-69443804D01*
X156979721Y-69304625D01*
X156979714Y-69304616D01*
X156865383Y-69190285D01*
X156865374Y-69190278D01*
X156726195Y-69107968D01*
X156726190Y-69107966D01*
X156570918Y-69062855D01*
X156570912Y-69062854D01*
X156550000Y-69061209D01*
X156550000Y-69590000D01*
X156050000Y-69590000D01*
X156050000Y-69061210D01*
X156049999Y-69061209D01*
X156029087Y-69062854D01*
X156029081Y-69062855D01*
X155873809Y-69107966D01*
X155873804Y-69107968D01*
X155734625Y-69190278D01*
X155734616Y-69190285D01*
X155620285Y-69304616D01*
X155620278Y-69304625D01*
X155537968Y-69443804D01*
X155495496Y-69590000D01*
X149885500Y-69590000D01*
X149885500Y-59174499D01*
X149905185Y-59107460D01*
X149957989Y-59061705D01*
X150009500Y-59050499D01*
X150597871Y-59050499D01*
X150597872Y-59050499D01*
X150657483Y-59044091D01*
X150792331Y-58993796D01*
X150907546Y-58907546D01*
X150993796Y-58792331D01*
X151044091Y-58657483D01*
X151050500Y-58597873D01*
X151050500Y-58597844D01*
X176750000Y-58597844D01*
X176756401Y-58657372D01*
X176756403Y-58657379D01*
X176806645Y-58792086D01*
X176806649Y-58792093D01*
X176892809Y-58907187D01*
X176892812Y-58907190D01*
X177007906Y-58993350D01*
X177007913Y-58993354D01*
X177142620Y-59043596D01*
X177142627Y-59043598D01*
X177202155Y-59049999D01*
X177202172Y-59050000D01*
X178300000Y-59050000D01*
X178800000Y-59050000D01*
X179897828Y-59050000D01*
X179897844Y-59049999D01*
X179957372Y-59043598D01*
X179957379Y-59043596D01*
X180092086Y-58993354D01*
X180092093Y-58993350D01*
X180207187Y-58907190D01*
X180207190Y-58907187D01*
X180293350Y-58792093D01*
X180293354Y-58792086D01*
X180343596Y-58657379D01*
X180343598Y-58657372D01*
X180349999Y-58597844D01*
X180350000Y-58597827D01*
X180350000Y-57000000D01*
X178800000Y-57000000D01*
X178800000Y-59050000D01*
X178300000Y-59050000D01*
X178300000Y-57000000D01*
X176750000Y-57000000D01*
X176750000Y-58597844D01*
X151050500Y-58597844D01*
X151050499Y-54902155D01*
X176750000Y-54902155D01*
X176750000Y-56500000D01*
X178300000Y-56500000D01*
X178800000Y-56500000D01*
X180350000Y-56500000D01*
X180350000Y-54902172D01*
X180349999Y-54902155D01*
X180343598Y-54842627D01*
X180343596Y-54842620D01*
X180293354Y-54707913D01*
X180293350Y-54707906D01*
X180207190Y-54592812D01*
X180207187Y-54592809D01*
X180092093Y-54506649D01*
X180092086Y-54506645D01*
X179957379Y-54456403D01*
X179957372Y-54456401D01*
X179897844Y-54450000D01*
X178800000Y-54450000D01*
X178800000Y-56500000D01*
X178300000Y-56500000D01*
X178300000Y-54450000D01*
X177202155Y-54450000D01*
X177142627Y-54456401D01*
X177142620Y-54456403D01*
X177007913Y-54506645D01*
X177007906Y-54506649D01*
X176892812Y-54592809D01*
X176892809Y-54592812D01*
X176806649Y-54707906D01*
X176806645Y-54707913D01*
X176756403Y-54842620D01*
X176756401Y-54842627D01*
X176750000Y-54902155D01*
X151050499Y-54902155D01*
X151050499Y-54902128D01*
X151044091Y-54842517D01*
X150993884Y-54707906D01*
X150993797Y-54707671D01*
X150993793Y-54707664D01*
X150907547Y-54592455D01*
X150907544Y-54592452D01*
X150792335Y-54506206D01*
X150792328Y-54506202D01*
X150657482Y-54455908D01*
X150657483Y-54455908D01*
X150597883Y-54449501D01*
X150597881Y-54449500D01*
X150597873Y-54449500D01*
X150597864Y-54449500D01*
X147902129Y-54449500D01*
X147902123Y-54449501D01*
X147842516Y-54455908D01*
X147707671Y-54506202D01*
X147707664Y-54506206D01*
X147592455Y-54592452D01*
X147592452Y-54592455D01*
X147506206Y-54707664D01*
X147506202Y-54707671D01*
X147455908Y-54842517D01*
X147449501Y-54902116D01*
X147449501Y-54902123D01*
X147449500Y-54902135D01*
X147449500Y-58597870D01*
X147449501Y-58597876D01*
X147455908Y-58657483D01*
X147506202Y-58792328D01*
X147506206Y-58792335D01*
X147592452Y-58907544D01*
X147592455Y-58907547D01*
X147707664Y-58993793D01*
X147707671Y-58993797D01*
X147752618Y-59010561D01*
X147842517Y-59044091D01*
X147902127Y-59050500D01*
X148490500Y-59050499D01*
X148557539Y-59070183D01*
X148603294Y-59122987D01*
X148614500Y-59174499D01*
X148614500Y-71518036D01*
X148594815Y-71585075D01*
X148542011Y-71630830D01*
X148511398Y-71639229D01*
X148511468Y-71639524D01*
X148503920Y-71641307D01*
X148369071Y-71691602D01*
X148369064Y-71691606D01*
X148253855Y-71777852D01*
X148253852Y-71777855D01*
X148167606Y-71893064D01*
X148167602Y-71893071D01*
X148117308Y-72027917D01*
X148110927Y-72087278D01*
X148110901Y-72087523D01*
X148110900Y-72087535D01*
X148110900Y-74183270D01*
X148110901Y-74183276D01*
X148117308Y-74242883D01*
X148167602Y-74377728D01*
X148167606Y-74377735D01*
X148253852Y-74492944D01*
X148253855Y-74492947D01*
X148369064Y-74579193D01*
X148369071Y-74579197D01*
X148503917Y-74629491D01*
X148503916Y-74629491D01*
X148510844Y-74630235D01*
X148563527Y-74635900D01*
X150659272Y-74635899D01*
X150718883Y-74629491D01*
X150853731Y-74579196D01*
X150968946Y-74492946D01*
X151055196Y-74377731D01*
X151105491Y-74242883D01*
X151111900Y-74183273D01*
X151111900Y-73894900D01*
X151131585Y-73827861D01*
X151184389Y-73782106D01*
X151235900Y-73770900D01*
X156237409Y-73770900D01*
X156362591Y-73770900D01*
X157957409Y-73770900D01*
X158217000Y-73770900D01*
X158284039Y-73790585D01*
X158329794Y-73843389D01*
X158341000Y-73894900D01*
X158341000Y-74291072D01*
X158341001Y-74291078D01*
X158347408Y-74350685D01*
X158397702Y-74485530D01*
X158397706Y-74485537D01*
X158483952Y-74600746D01*
X158483955Y-74600749D01*
X158599164Y-74686995D01*
X158599171Y-74686999D01*
X158734017Y-74737293D01*
X158734016Y-74737293D01*
X158740944Y-74738037D01*
X158793627Y-74743702D01*
X160286372Y-74743701D01*
X160345983Y-74737293D01*
X160480831Y-74686998D01*
X160596046Y-74600748D01*
X160682296Y-74485533D01*
X160732591Y-74350685D01*
X160739000Y-74291075D01*
X160738999Y-73788930D01*
X160738998Y-73788928D01*
X160738998Y-73788914D01*
X160737992Y-73779557D01*
X160750397Y-73710797D01*
X160798007Y-73659660D01*
X160865706Y-73642380D01*
X160932000Y-73664444D01*
X160968013Y-73703180D01*
X161040278Y-73825374D01*
X161040285Y-73825383D01*
X161154616Y-73939714D01*
X161154625Y-73939721D01*
X161293804Y-74022031D01*
X161440000Y-74064504D01*
X161440000Y-73510000D01*
X160899690Y-73510000D01*
X160865490Y-73530455D01*
X160795657Y-73528208D01*
X160746720Y-73498097D01*
X160739999Y-73491376D01*
X160653507Y-73491376D01*
X160586468Y-73471691D01*
X160579207Y-73466650D01*
X160503321Y-73409842D01*
X160461451Y-73353908D01*
X160456467Y-73284216D01*
X160489953Y-73222894D01*
X160551276Y-73189409D01*
X160577633Y-73186576D01*
X160739999Y-73186576D01*
X160745371Y-73181203D01*
X160759684Y-73132461D01*
X160812488Y-73086706D01*
X160863999Y-73075500D01*
X161566000Y-73075500D01*
X161633039Y-73095185D01*
X161678794Y-73147989D01*
X161690000Y-73199500D01*
X161690000Y-73260000D01*
X161745500Y-73260000D01*
X161812539Y-73279685D01*
X161858294Y-73332489D01*
X161869500Y-73384000D01*
X161869500Y-73494697D01*
X161872356Y-73530991D01*
X161872357Y-73530997D01*
X161917503Y-73686389D01*
X161917505Y-73686393D01*
X161917506Y-73686395D01*
X161922732Y-73695233D01*
X161940000Y-73758352D01*
X161940000Y-74064503D01*
X162086194Y-74022032D01*
X162106384Y-74010091D01*
X162174108Y-73992906D01*
X162232629Y-74010089D01*
X162253605Y-74022494D01*
X162294587Y-74034400D01*
X162409002Y-74067642D01*
X162409005Y-74067642D01*
X162409007Y-74067643D01*
X162445310Y-74070500D01*
X162445318Y-74070500D01*
X162854682Y-74070500D01*
X162854690Y-74070500D01*
X162890993Y-74067643D01*
X162890995Y-74067642D01*
X162890997Y-74067642D01*
X162931975Y-74055736D01*
X163046395Y-74022494D01*
X163185687Y-73940117D01*
X163300117Y-73825687D01*
X163303767Y-73819514D01*
X163354834Y-73771831D01*
X163423575Y-73759325D01*
X163488165Y-73785969D01*
X163528097Y-73843303D01*
X163534500Y-73882634D01*
X163534500Y-75852953D01*
X163514815Y-75919992D01*
X163462011Y-75965747D01*
X163449505Y-75970659D01*
X163405666Y-75985186D01*
X163256342Y-76077289D01*
X163132289Y-76201342D01*
X163040187Y-76350663D01*
X163040186Y-76350666D01*
X162985001Y-76517203D01*
X162985001Y-76517204D01*
X162985000Y-76517204D01*
X162974500Y-76619983D01*
X162974500Y-77220001D01*
X162974501Y-77220019D01*
X162985000Y-77322796D01*
X162985001Y-77322799D01*
X163012875Y-77406915D01*
X163040186Y-77489334D01*
X163125968Y-77628410D01*
X163132289Y-77638657D01*
X163143477Y-77649845D01*
X163176962Y-77711168D01*
X163171978Y-77780860D01*
X163143477Y-77825207D01*
X163093623Y-77875060D01*
X163093622Y-77875061D01*
X162959421Y-78059771D01*
X162855770Y-78263196D01*
X162785215Y-78480339D01*
X162749500Y-78705837D01*
X162749500Y-78934162D01*
X162785215Y-79159660D01*
X162855770Y-79376803D01*
X162959421Y-79580228D01*
X163093621Y-79764937D01*
X163255063Y-79926379D01*
X163439772Y-80060579D01*
X163535884Y-80109550D01*
X163643196Y-80164229D01*
X163643198Y-80164229D01*
X163643201Y-80164231D01*
X163759592Y-80202049D01*
X163860339Y-80234784D01*
X164085838Y-80270500D01*
X164085843Y-80270500D01*
X172970563Y-80270500D01*
X172967618Y-80947724D01*
X172967393Y-80948269D01*
X172967389Y-80948281D01*
X172910287Y-81186129D01*
X172891094Y-81430000D01*
X172910287Y-81673870D01*
X172963497Y-81895509D01*
X172950000Y-85000000D01*
X180900000Y-85000000D01*
X180900000Y-82168724D01*
X180918995Y-82137728D01*
X180918997Y-82137725D01*
X180991439Y-81962834D01*
X181035280Y-81908430D01*
X181101574Y-81886365D01*
X181169273Y-81903644D01*
X181216884Y-81954781D01*
X181230000Y-82010286D01*
X181230000Y-86736000D01*
X181210315Y-86803039D01*
X181157511Y-86848794D01*
X181106000Y-86860000D01*
X146524000Y-86860000D01*
X146456961Y-86840315D01*
X146411206Y-86787511D01*
X146400000Y-86736000D01*
X146400000Y-77747844D01*
X148100000Y-77747844D01*
X148106401Y-77807372D01*
X148106403Y-77807379D01*
X148156645Y-77942086D01*
X148156649Y-77942093D01*
X148242809Y-78057187D01*
X148242812Y-78057190D01*
X148357906Y-78143350D01*
X148357913Y-78143354D01*
X148492620Y-78193596D01*
X148492627Y-78193598D01*
X148552155Y-78199999D01*
X148552172Y-78200000D01*
X149350000Y-78200000D01*
X149850000Y-78200000D01*
X150647828Y-78200000D01*
X150647844Y-78199999D01*
X150707372Y-78193598D01*
X150707379Y-78193596D01*
X150842086Y-78143354D01*
X150842093Y-78143350D01*
X150957187Y-78057190D01*
X150957190Y-78057187D01*
X151043350Y-77942093D01*
X151043354Y-77942086D01*
X151093596Y-77807379D01*
X151093598Y-77807372D01*
X151099999Y-77747844D01*
X151100000Y-77747827D01*
X151100000Y-76950000D01*
X149850000Y-76950000D01*
X149850000Y-78200000D01*
X149350000Y-78200000D01*
X149350000Y-76950000D01*
X148100000Y-76950000D01*
X148100000Y-77747844D01*
X146400000Y-77747844D01*
X146400000Y-75652155D01*
X148100000Y-75652155D01*
X148100000Y-76450000D01*
X149350000Y-76450000D01*
X149850000Y-76450000D01*
X151100000Y-76450000D01*
X151100000Y-75652172D01*
X151099999Y-75652155D01*
X151093598Y-75592627D01*
X151093596Y-75592620D01*
X151043354Y-75457913D01*
X151043350Y-75457906D01*
X150957190Y-75342812D01*
X150957187Y-75342809D01*
X150842093Y-75256649D01*
X150842086Y-75256645D01*
X150707379Y-75206403D01*
X150707372Y-75206401D01*
X150647844Y-75200000D01*
X149850000Y-75200000D01*
X149850000Y-76450000D01*
X149350000Y-76450000D01*
X149350000Y-75200000D01*
X148552155Y-75200000D01*
X148492627Y-75206401D01*
X148492620Y-75206403D01*
X148357913Y-75256645D01*
X148357906Y-75256649D01*
X148242812Y-75342809D01*
X148242809Y-75342812D01*
X148156649Y-75457906D01*
X148156645Y-75457913D01*
X148106403Y-75592620D01*
X148106401Y-75592627D01*
X148100000Y-75652155D01*
X146400000Y-75652155D01*
X146400000Y-45124000D01*
X146419685Y-45056961D01*
X146472489Y-45011206D01*
X146524000Y-45000000D01*
X181106000Y-45000000D01*
X181173039Y-45019685D01*
G37*
G04 #@! TD.AperFunction*
G04 #@! TA.AperFunction,Conductor*
G36*
X181169273Y-76823644D02*
G01*
X181216884Y-76874781D01*
X181230000Y-76930286D01*
X181230000Y-80849713D01*
X181210315Y-80916752D01*
X181157511Y-80962507D01*
X181088353Y-80972451D01*
X181024797Y-80943426D01*
X180991439Y-80897166D01*
X180918995Y-80722270D01*
X180900000Y-80691273D01*
X180900000Y-77088724D01*
X180918995Y-77057728D01*
X180918997Y-77057725D01*
X180991439Y-76882834D01*
X181035280Y-76828430D01*
X181101574Y-76806365D01*
X181169273Y-76823644D01*
G37*
G04 #@! TD.AperFunction*
G04 #@! TA.AperFunction,Conductor*
G36*
X161652079Y-69840185D02*
G01*
X161697834Y-69892989D01*
X161707778Y-69962147D01*
X161678753Y-70025703D01*
X161672721Y-70032181D01*
X161620285Y-70084616D01*
X161620278Y-70084625D01*
X161537968Y-70223804D01*
X161495496Y-70370000D01*
X163104504Y-70370000D01*
X163062031Y-70223804D01*
X162979721Y-70084625D01*
X162979714Y-70084616D01*
X162927279Y-70032181D01*
X162893794Y-69970858D01*
X162898778Y-69901166D01*
X162940650Y-69845233D01*
X163006114Y-69820816D01*
X163014960Y-69820500D01*
X164230500Y-69820500D01*
X164297539Y-69840185D01*
X164343294Y-69892989D01*
X164354500Y-69944500D01*
X164354500Y-70903104D01*
X164334815Y-70970143D01*
X164282011Y-71015898D01*
X164212853Y-71025842D01*
X164183048Y-71017665D01*
X164065373Y-70968923D01*
X164065361Y-70968920D01*
X163942595Y-70944500D01*
X163942591Y-70944500D01*
X163222400Y-70944500D01*
X163155361Y-70924815D01*
X163123239Y-70894952D01*
X163104505Y-70870000D01*
X162798352Y-70870000D01*
X162735233Y-70852732D01*
X162726395Y-70847506D01*
X162726393Y-70847505D01*
X162726389Y-70847503D01*
X162570997Y-70802357D01*
X162570991Y-70802356D01*
X162534697Y-70799500D01*
X162534690Y-70799500D01*
X162065310Y-70799500D01*
X162065302Y-70799500D01*
X162029008Y-70802356D01*
X162029002Y-70802357D01*
X161873610Y-70847503D01*
X161873605Y-70847506D01*
X161864766Y-70852732D01*
X161801648Y-70870000D01*
X161495496Y-70870000D01*
X161537968Y-71016194D01*
X161549911Y-71036389D01*
X161567092Y-71104113D01*
X161549911Y-71162628D01*
X161537506Y-71183604D01*
X161537504Y-71183609D01*
X161492357Y-71339002D01*
X161492356Y-71339008D01*
X161489500Y-71375302D01*
X161489500Y-71680500D01*
X161469815Y-71747539D01*
X161417011Y-71793294D01*
X161365500Y-71804500D01*
X160533534Y-71804500D01*
X160490141Y-71793421D01*
X160489141Y-71796103D01*
X160345982Y-71742708D01*
X160345983Y-71742708D01*
X160286383Y-71736301D01*
X160286381Y-71736300D01*
X160286373Y-71736300D01*
X160286365Y-71736300D01*
X159870094Y-71736300D01*
X159803055Y-71716615D01*
X159757300Y-71663811D01*
X159747356Y-71594653D01*
X159776381Y-71531097D01*
X159782413Y-71524619D01*
X161450214Y-69856819D01*
X161511537Y-69823334D01*
X161537895Y-69820500D01*
X161585040Y-69820500D01*
X161652079Y-69840185D01*
G37*
G04 #@! TD.AperFunction*
M02*
