%TF.GenerationSoftware,KiCad,Pcbnew,7.0.8*%
%TF.CreationDate,2024-07-12T13:32:50-07:00*%
%TF.ProjectId,RFBackscatterV1,52464261-636b-4736-9361-747465725631,rev?*%
%TF.SameCoordinates,Original*%
%TF.FileFunction,Drillmap*%
%TF.FilePolarity,Positive*%
%FSLAX45Y45*%
G04 Gerber Fmt 4.5, Leading zero omitted, Abs format (unit mm)*
G04 Created by KiCad (PCBNEW 7.0.8) date 2024-07-12 13:32:50*
%MOMM*%
%LPD*%
G01*
G04 APERTURE LIST*
%ADD10C,0.200000*%
%ADD11C,0.040000*%
%ADD12C,0.160020*%
G04 APERTURE END LIST*
D10*
X16165000Y-7225000D02*
X18180000Y-7225000D01*
X18180000Y-9690000D01*
X16165000Y-9690000D01*
X16165000Y-7225000D01*
D11*
X17055000Y-8675000D02*
X17095000Y-8715000D01*
X17095000Y-8675000D02*
X17055000Y-8715000D01*
X17250000Y-8280000D02*
X17290000Y-8320000D01*
X17290000Y-8280000D02*
X17250000Y-8320000D01*
X17310000Y-7890000D02*
X17350000Y-7930000D01*
X17350000Y-7890000D02*
X17310000Y-7930000D01*
D12*
X16844010Y-8987790D02*
G75*
G03*
X16844010Y-8987790I-80010J0D01*
G01*
X16844010Y-9495790D02*
G75*
G03*
X16844010Y-9495790I-80010J0D01*
G01*
X17098010Y-9241790D02*
G75*
G03*
X17098010Y-9241790I-80010J0D01*
G01*
X17352010Y-8987790D02*
G75*
G03*
X17352010Y-8987790I-80010J0D01*
G01*
X17352010Y-9495790D02*
G75*
G03*
X17352010Y-9495790I-80010J0D01*
G01*
D10*
X16415777Y-10011484D02*
X16415777Y-9811484D01*
X16415777Y-9811484D02*
X16463396Y-9811484D01*
X16463396Y-9811484D02*
X16491967Y-9821008D01*
X16491967Y-9821008D02*
X16511015Y-9840055D01*
X16511015Y-9840055D02*
X16520539Y-9859103D01*
X16520539Y-9859103D02*
X16530062Y-9897198D01*
X16530062Y-9897198D02*
X16530062Y-9925770D01*
X16530062Y-9925770D02*
X16520539Y-9963865D01*
X16520539Y-9963865D02*
X16511015Y-9982912D01*
X16511015Y-9982912D02*
X16491967Y-10001960D01*
X16491967Y-10001960D02*
X16463396Y-10011484D01*
X16463396Y-10011484D02*
X16415777Y-10011484D01*
X16615777Y-10011484D02*
X16615777Y-9878150D01*
X16615777Y-9916246D02*
X16625301Y-9897198D01*
X16625301Y-9897198D02*
X16634824Y-9887674D01*
X16634824Y-9887674D02*
X16653872Y-9878150D01*
X16653872Y-9878150D02*
X16672920Y-9878150D01*
X16739586Y-10011484D02*
X16739586Y-9878150D01*
X16739586Y-9811484D02*
X16730062Y-9821008D01*
X16730062Y-9821008D02*
X16739586Y-9830531D01*
X16739586Y-9830531D02*
X16749110Y-9821008D01*
X16749110Y-9821008D02*
X16739586Y-9811484D01*
X16739586Y-9811484D02*
X16739586Y-9830531D01*
X16863396Y-10011484D02*
X16844348Y-10001960D01*
X16844348Y-10001960D02*
X16834824Y-9982912D01*
X16834824Y-9982912D02*
X16834824Y-9811484D01*
X16968158Y-10011484D02*
X16949110Y-10001960D01*
X16949110Y-10001960D02*
X16939586Y-9982912D01*
X16939586Y-9982912D02*
X16939586Y-9811484D01*
X17196729Y-10011484D02*
X17196729Y-9811484D01*
X17196729Y-9811484D02*
X17263396Y-9954341D01*
X17263396Y-9954341D02*
X17330063Y-9811484D01*
X17330063Y-9811484D02*
X17330063Y-10011484D01*
X17511015Y-10011484D02*
X17511015Y-9906722D01*
X17511015Y-9906722D02*
X17501491Y-9887674D01*
X17501491Y-9887674D02*
X17482444Y-9878150D01*
X17482444Y-9878150D02*
X17444348Y-9878150D01*
X17444348Y-9878150D02*
X17425301Y-9887674D01*
X17511015Y-10001960D02*
X17491967Y-10011484D01*
X17491967Y-10011484D02*
X17444348Y-10011484D01*
X17444348Y-10011484D02*
X17425301Y-10001960D01*
X17425301Y-10001960D02*
X17415777Y-9982912D01*
X17415777Y-9982912D02*
X17415777Y-9963865D01*
X17415777Y-9963865D02*
X17425301Y-9944817D01*
X17425301Y-9944817D02*
X17444348Y-9935293D01*
X17444348Y-9935293D02*
X17491967Y-9935293D01*
X17491967Y-9935293D02*
X17511015Y-9925770D01*
X17606253Y-9878150D02*
X17606253Y-10078150D01*
X17606253Y-9887674D02*
X17625301Y-9878150D01*
X17625301Y-9878150D02*
X17663396Y-9878150D01*
X17663396Y-9878150D02*
X17682444Y-9887674D01*
X17682444Y-9887674D02*
X17691967Y-9897198D01*
X17691967Y-9897198D02*
X17701491Y-9916246D01*
X17701491Y-9916246D02*
X17701491Y-9973389D01*
X17701491Y-9973389D02*
X17691967Y-9992436D01*
X17691967Y-9992436D02*
X17682444Y-10001960D01*
X17682444Y-10001960D02*
X17663396Y-10011484D01*
X17663396Y-10011484D02*
X17625301Y-10011484D01*
X17625301Y-10011484D02*
X17606253Y-10001960D01*
X17787205Y-9992436D02*
X17796729Y-10001960D01*
X17796729Y-10001960D02*
X17787205Y-10011484D01*
X17787205Y-10011484D02*
X17777682Y-10001960D01*
X17777682Y-10001960D02*
X17787205Y-9992436D01*
X17787205Y-9992436D02*
X17787205Y-10011484D01*
X17787205Y-9887674D02*
X17796729Y-9897198D01*
X17796729Y-9897198D02*
X17787205Y-9906722D01*
X17787205Y-9906722D02*
X17777682Y-9897198D01*
X17777682Y-9897198D02*
X17787205Y-9887674D01*
X17787205Y-9887674D02*
X17787205Y-9906722D01*
D11*
X16115000Y-10320000D02*
X16155000Y-10360000D01*
X16155000Y-10320000D02*
X16115000Y-10360000D01*
D10*
X16453872Y-10231484D02*
X16472920Y-10231484D01*
X16472920Y-10231484D02*
X16491967Y-10241008D01*
X16491967Y-10241008D02*
X16501491Y-10250531D01*
X16501491Y-10250531D02*
X16511015Y-10269579D01*
X16511015Y-10269579D02*
X16520539Y-10307674D01*
X16520539Y-10307674D02*
X16520539Y-10355293D01*
X16520539Y-10355293D02*
X16511015Y-10393389D01*
X16511015Y-10393389D02*
X16501491Y-10412436D01*
X16501491Y-10412436D02*
X16491967Y-10421960D01*
X16491967Y-10421960D02*
X16472920Y-10431484D01*
X16472920Y-10431484D02*
X16453872Y-10431484D01*
X16453872Y-10431484D02*
X16434824Y-10421960D01*
X16434824Y-10421960D02*
X16425301Y-10412436D01*
X16425301Y-10412436D02*
X16415777Y-10393389D01*
X16415777Y-10393389D02*
X16406253Y-10355293D01*
X16406253Y-10355293D02*
X16406253Y-10307674D01*
X16406253Y-10307674D02*
X16415777Y-10269579D01*
X16415777Y-10269579D02*
X16425301Y-10250531D01*
X16425301Y-10250531D02*
X16434824Y-10241008D01*
X16434824Y-10241008D02*
X16453872Y-10231484D01*
X16606253Y-10412436D02*
X16615777Y-10421960D01*
X16615777Y-10421960D02*
X16606253Y-10431484D01*
X16606253Y-10431484D02*
X16596729Y-10421960D01*
X16596729Y-10421960D02*
X16606253Y-10412436D01*
X16606253Y-10412436D02*
X16606253Y-10431484D01*
X16787205Y-10298150D02*
X16787205Y-10431484D01*
X16739586Y-10221960D02*
X16691967Y-10364817D01*
X16691967Y-10364817D02*
X16815777Y-10364817D01*
X16930063Y-10231484D02*
X16949110Y-10231484D01*
X16949110Y-10231484D02*
X16968158Y-10241008D01*
X16968158Y-10241008D02*
X16977682Y-10250531D01*
X16977682Y-10250531D02*
X16987205Y-10269579D01*
X16987205Y-10269579D02*
X16996729Y-10307674D01*
X16996729Y-10307674D02*
X16996729Y-10355293D01*
X16996729Y-10355293D02*
X16987205Y-10393389D01*
X16987205Y-10393389D02*
X16977682Y-10412436D01*
X16977682Y-10412436D02*
X16968158Y-10421960D01*
X16968158Y-10421960D02*
X16949110Y-10431484D01*
X16949110Y-10431484D02*
X16930063Y-10431484D01*
X16930063Y-10431484D02*
X16911015Y-10421960D01*
X16911015Y-10421960D02*
X16901491Y-10412436D01*
X16901491Y-10412436D02*
X16891967Y-10393389D01*
X16891967Y-10393389D02*
X16882444Y-10355293D01*
X16882444Y-10355293D02*
X16882444Y-10307674D01*
X16882444Y-10307674D02*
X16891967Y-10269579D01*
X16891967Y-10269579D02*
X16901491Y-10250531D01*
X16901491Y-10250531D02*
X16911015Y-10241008D01*
X16911015Y-10241008D02*
X16930063Y-10231484D01*
X17120539Y-10231484D02*
X17139586Y-10231484D01*
X17139586Y-10231484D02*
X17158634Y-10241008D01*
X17158634Y-10241008D02*
X17168158Y-10250531D01*
X17168158Y-10250531D02*
X17177682Y-10269579D01*
X17177682Y-10269579D02*
X17187205Y-10307674D01*
X17187205Y-10307674D02*
X17187205Y-10355293D01*
X17187205Y-10355293D02*
X17177682Y-10393389D01*
X17177682Y-10393389D02*
X17168158Y-10412436D01*
X17168158Y-10412436D02*
X17158634Y-10421960D01*
X17158634Y-10421960D02*
X17139586Y-10431484D01*
X17139586Y-10431484D02*
X17120539Y-10431484D01*
X17120539Y-10431484D02*
X17101491Y-10421960D01*
X17101491Y-10421960D02*
X17091967Y-10412436D01*
X17091967Y-10412436D02*
X17082444Y-10393389D01*
X17082444Y-10393389D02*
X17072920Y-10355293D01*
X17072920Y-10355293D02*
X17072920Y-10307674D01*
X17072920Y-10307674D02*
X17082444Y-10269579D01*
X17082444Y-10269579D02*
X17091967Y-10250531D01*
X17091967Y-10250531D02*
X17101491Y-10241008D01*
X17101491Y-10241008D02*
X17120539Y-10231484D01*
X17272920Y-10431484D02*
X17272920Y-10298150D01*
X17272920Y-10317198D02*
X17282444Y-10307674D01*
X17282444Y-10307674D02*
X17301491Y-10298150D01*
X17301491Y-10298150D02*
X17330063Y-10298150D01*
X17330063Y-10298150D02*
X17349110Y-10307674D01*
X17349110Y-10307674D02*
X17358634Y-10326722D01*
X17358634Y-10326722D02*
X17358634Y-10431484D01*
X17358634Y-10326722D02*
X17368158Y-10307674D01*
X17368158Y-10307674D02*
X17387205Y-10298150D01*
X17387205Y-10298150D02*
X17415777Y-10298150D01*
X17415777Y-10298150D02*
X17434825Y-10307674D01*
X17434825Y-10307674D02*
X17444348Y-10326722D01*
X17444348Y-10326722D02*
X17444348Y-10431484D01*
X17539586Y-10431484D02*
X17539586Y-10298150D01*
X17539586Y-10317198D02*
X17549110Y-10307674D01*
X17549110Y-10307674D02*
X17568158Y-10298150D01*
X17568158Y-10298150D02*
X17596729Y-10298150D01*
X17596729Y-10298150D02*
X17615777Y-10307674D01*
X17615777Y-10307674D02*
X17625301Y-10326722D01*
X17625301Y-10326722D02*
X17625301Y-10431484D01*
X17625301Y-10326722D02*
X17634825Y-10307674D01*
X17634825Y-10307674D02*
X17653872Y-10298150D01*
X17653872Y-10298150D02*
X17682444Y-10298150D01*
X17682444Y-10298150D02*
X17701491Y-10307674D01*
X17701491Y-10307674D02*
X17711015Y-10326722D01*
X17711015Y-10326722D02*
X17711015Y-10431484D01*
X18101491Y-10221960D02*
X17930063Y-10479103D01*
X18358634Y-10231484D02*
X18377682Y-10231484D01*
X18377682Y-10231484D02*
X18396729Y-10241008D01*
X18396729Y-10241008D02*
X18406253Y-10250531D01*
X18406253Y-10250531D02*
X18415777Y-10269579D01*
X18415777Y-10269579D02*
X18425301Y-10307674D01*
X18425301Y-10307674D02*
X18425301Y-10355293D01*
X18425301Y-10355293D02*
X18415777Y-10393389D01*
X18415777Y-10393389D02*
X18406253Y-10412436D01*
X18406253Y-10412436D02*
X18396729Y-10421960D01*
X18396729Y-10421960D02*
X18377682Y-10431484D01*
X18377682Y-10431484D02*
X18358634Y-10431484D01*
X18358634Y-10431484D02*
X18339587Y-10421960D01*
X18339587Y-10421960D02*
X18330063Y-10412436D01*
X18330063Y-10412436D02*
X18320539Y-10393389D01*
X18320539Y-10393389D02*
X18311015Y-10355293D01*
X18311015Y-10355293D02*
X18311015Y-10307674D01*
X18311015Y-10307674D02*
X18320539Y-10269579D01*
X18320539Y-10269579D02*
X18330063Y-10250531D01*
X18330063Y-10250531D02*
X18339587Y-10241008D01*
X18339587Y-10241008D02*
X18358634Y-10231484D01*
X18511015Y-10412436D02*
X18520539Y-10421960D01*
X18520539Y-10421960D02*
X18511015Y-10431484D01*
X18511015Y-10431484D02*
X18501491Y-10421960D01*
X18501491Y-10421960D02*
X18511015Y-10412436D01*
X18511015Y-10412436D02*
X18511015Y-10431484D01*
X18644348Y-10231484D02*
X18663396Y-10231484D01*
X18663396Y-10231484D02*
X18682444Y-10241008D01*
X18682444Y-10241008D02*
X18691968Y-10250531D01*
X18691968Y-10250531D02*
X18701491Y-10269579D01*
X18701491Y-10269579D02*
X18711015Y-10307674D01*
X18711015Y-10307674D02*
X18711015Y-10355293D01*
X18711015Y-10355293D02*
X18701491Y-10393389D01*
X18701491Y-10393389D02*
X18691968Y-10412436D01*
X18691968Y-10412436D02*
X18682444Y-10421960D01*
X18682444Y-10421960D02*
X18663396Y-10431484D01*
X18663396Y-10431484D02*
X18644348Y-10431484D01*
X18644348Y-10431484D02*
X18625301Y-10421960D01*
X18625301Y-10421960D02*
X18615777Y-10412436D01*
X18615777Y-10412436D02*
X18606253Y-10393389D01*
X18606253Y-10393389D02*
X18596729Y-10355293D01*
X18596729Y-10355293D02*
X18596729Y-10307674D01*
X18596729Y-10307674D02*
X18606253Y-10269579D01*
X18606253Y-10269579D02*
X18615777Y-10250531D01*
X18615777Y-10250531D02*
X18625301Y-10241008D01*
X18625301Y-10241008D02*
X18644348Y-10231484D01*
X18901491Y-10431484D02*
X18787206Y-10431484D01*
X18844348Y-10431484D02*
X18844348Y-10231484D01*
X18844348Y-10231484D02*
X18825301Y-10260055D01*
X18825301Y-10260055D02*
X18806253Y-10279103D01*
X18806253Y-10279103D02*
X18787206Y-10288627D01*
X19082444Y-10231484D02*
X18987206Y-10231484D01*
X18987206Y-10231484D02*
X18977682Y-10326722D01*
X18977682Y-10326722D02*
X18987206Y-10317198D01*
X18987206Y-10317198D02*
X19006253Y-10307674D01*
X19006253Y-10307674D02*
X19053872Y-10307674D01*
X19053872Y-10307674D02*
X19072920Y-10317198D01*
X19072920Y-10317198D02*
X19082444Y-10326722D01*
X19082444Y-10326722D02*
X19091968Y-10345770D01*
X19091968Y-10345770D02*
X19091968Y-10393389D01*
X19091968Y-10393389D02*
X19082444Y-10412436D01*
X19082444Y-10412436D02*
X19072920Y-10421960D01*
X19072920Y-10421960D02*
X19053872Y-10431484D01*
X19053872Y-10431484D02*
X19006253Y-10431484D01*
X19006253Y-10431484D02*
X18987206Y-10421960D01*
X18987206Y-10421960D02*
X18977682Y-10412436D01*
X19158634Y-10231484D02*
X19291968Y-10231484D01*
X19291968Y-10231484D02*
X19206253Y-10431484D01*
X19358634Y-10231484D02*
X19358634Y-10269579D01*
X19434825Y-10231484D02*
X19434825Y-10269579D01*
X19730063Y-10507674D02*
X19720539Y-10498150D01*
X19720539Y-10498150D02*
X19701491Y-10469579D01*
X19701491Y-10469579D02*
X19691968Y-10450531D01*
X19691968Y-10450531D02*
X19682444Y-10421960D01*
X19682444Y-10421960D02*
X19672920Y-10374341D01*
X19672920Y-10374341D02*
X19672920Y-10336246D01*
X19672920Y-10336246D02*
X19682444Y-10288627D01*
X19682444Y-10288627D02*
X19691968Y-10260055D01*
X19691968Y-10260055D02*
X19701491Y-10241008D01*
X19701491Y-10241008D02*
X19720539Y-10212436D01*
X19720539Y-10212436D02*
X19730063Y-10202912D01*
X19787206Y-10231484D02*
X19911015Y-10231484D01*
X19911015Y-10231484D02*
X19844349Y-10307674D01*
X19844349Y-10307674D02*
X19872920Y-10307674D01*
X19872920Y-10307674D02*
X19891968Y-10317198D01*
X19891968Y-10317198D02*
X19901491Y-10326722D01*
X19901491Y-10326722D02*
X19911015Y-10345770D01*
X19911015Y-10345770D02*
X19911015Y-10393389D01*
X19911015Y-10393389D02*
X19901491Y-10412436D01*
X19901491Y-10412436D02*
X19891968Y-10421960D01*
X19891968Y-10421960D02*
X19872920Y-10431484D01*
X19872920Y-10431484D02*
X19815777Y-10431484D01*
X19815777Y-10431484D02*
X19796730Y-10421960D01*
X19796730Y-10421960D02*
X19787206Y-10412436D01*
X20149111Y-10431484D02*
X20149111Y-10231484D01*
X20234825Y-10431484D02*
X20234825Y-10326722D01*
X20234825Y-10326722D02*
X20225301Y-10307674D01*
X20225301Y-10307674D02*
X20206253Y-10298150D01*
X20206253Y-10298150D02*
X20177682Y-10298150D01*
X20177682Y-10298150D02*
X20158634Y-10307674D01*
X20158634Y-10307674D02*
X20149111Y-10317198D01*
X20358634Y-10431484D02*
X20339587Y-10421960D01*
X20339587Y-10421960D02*
X20330063Y-10412436D01*
X20330063Y-10412436D02*
X20320539Y-10393389D01*
X20320539Y-10393389D02*
X20320539Y-10336246D01*
X20320539Y-10336246D02*
X20330063Y-10317198D01*
X20330063Y-10317198D02*
X20339587Y-10307674D01*
X20339587Y-10307674D02*
X20358634Y-10298150D01*
X20358634Y-10298150D02*
X20387206Y-10298150D01*
X20387206Y-10298150D02*
X20406253Y-10307674D01*
X20406253Y-10307674D02*
X20415777Y-10317198D01*
X20415777Y-10317198D02*
X20425301Y-10336246D01*
X20425301Y-10336246D02*
X20425301Y-10393389D01*
X20425301Y-10393389D02*
X20415777Y-10412436D01*
X20415777Y-10412436D02*
X20406253Y-10421960D01*
X20406253Y-10421960D02*
X20387206Y-10431484D01*
X20387206Y-10431484D02*
X20358634Y-10431484D01*
X20539587Y-10431484D02*
X20520539Y-10421960D01*
X20520539Y-10421960D02*
X20511015Y-10402912D01*
X20511015Y-10402912D02*
X20511015Y-10231484D01*
X20691968Y-10421960D02*
X20672920Y-10431484D01*
X20672920Y-10431484D02*
X20634825Y-10431484D01*
X20634825Y-10431484D02*
X20615777Y-10421960D01*
X20615777Y-10421960D02*
X20606253Y-10402912D01*
X20606253Y-10402912D02*
X20606253Y-10326722D01*
X20606253Y-10326722D02*
X20615777Y-10307674D01*
X20615777Y-10307674D02*
X20634825Y-10298150D01*
X20634825Y-10298150D02*
X20672920Y-10298150D01*
X20672920Y-10298150D02*
X20691968Y-10307674D01*
X20691968Y-10307674D02*
X20701492Y-10326722D01*
X20701492Y-10326722D02*
X20701492Y-10345770D01*
X20701492Y-10345770D02*
X20606253Y-10364817D01*
X20777682Y-10421960D02*
X20796730Y-10431484D01*
X20796730Y-10431484D02*
X20834825Y-10431484D01*
X20834825Y-10431484D02*
X20853873Y-10421960D01*
X20853873Y-10421960D02*
X20863396Y-10402912D01*
X20863396Y-10402912D02*
X20863396Y-10393389D01*
X20863396Y-10393389D02*
X20853873Y-10374341D01*
X20853873Y-10374341D02*
X20834825Y-10364817D01*
X20834825Y-10364817D02*
X20806253Y-10364817D01*
X20806253Y-10364817D02*
X20787206Y-10355293D01*
X20787206Y-10355293D02*
X20777682Y-10336246D01*
X20777682Y-10336246D02*
X20777682Y-10326722D01*
X20777682Y-10326722D02*
X20787206Y-10307674D01*
X20787206Y-10307674D02*
X20806253Y-10298150D01*
X20806253Y-10298150D02*
X20834825Y-10298150D01*
X20834825Y-10298150D02*
X20853873Y-10307674D01*
X20930063Y-10507674D02*
X20939587Y-10498150D01*
X20939587Y-10498150D02*
X20958634Y-10469579D01*
X20958634Y-10469579D02*
X20968158Y-10450531D01*
X20968158Y-10450531D02*
X20977682Y-10421960D01*
X20977682Y-10421960D02*
X20987206Y-10374341D01*
X20987206Y-10374341D02*
X20987206Y-10336246D01*
X20987206Y-10336246D02*
X20977682Y-10288627D01*
X20977682Y-10288627D02*
X20968158Y-10260055D01*
X20968158Y-10260055D02*
X20958634Y-10241008D01*
X20958634Y-10241008D02*
X20939587Y-10212436D01*
X20939587Y-10212436D02*
X20930063Y-10202912D01*
D12*
X16155000Y-10604000D02*
G75*
G03*
X16155000Y-10604000I-80010J0D01*
G01*
D10*
X16520539Y-10695484D02*
X16406253Y-10695484D01*
X16463396Y-10695484D02*
X16463396Y-10495484D01*
X16463396Y-10495484D02*
X16444348Y-10524055D01*
X16444348Y-10524055D02*
X16425301Y-10543103D01*
X16425301Y-10543103D02*
X16406253Y-10552627D01*
X16606253Y-10676436D02*
X16615777Y-10685960D01*
X16615777Y-10685960D02*
X16606253Y-10695484D01*
X16606253Y-10695484D02*
X16596729Y-10685960D01*
X16596729Y-10685960D02*
X16606253Y-10676436D01*
X16606253Y-10676436D02*
X16606253Y-10695484D01*
X16787205Y-10495484D02*
X16749110Y-10495484D01*
X16749110Y-10495484D02*
X16730062Y-10505008D01*
X16730062Y-10505008D02*
X16720539Y-10514531D01*
X16720539Y-10514531D02*
X16701491Y-10543103D01*
X16701491Y-10543103D02*
X16691967Y-10581198D01*
X16691967Y-10581198D02*
X16691967Y-10657389D01*
X16691967Y-10657389D02*
X16701491Y-10676436D01*
X16701491Y-10676436D02*
X16711015Y-10685960D01*
X16711015Y-10685960D02*
X16730062Y-10695484D01*
X16730062Y-10695484D02*
X16768158Y-10695484D01*
X16768158Y-10695484D02*
X16787205Y-10685960D01*
X16787205Y-10685960D02*
X16796729Y-10676436D01*
X16796729Y-10676436D02*
X16806253Y-10657389D01*
X16806253Y-10657389D02*
X16806253Y-10609770D01*
X16806253Y-10609770D02*
X16796729Y-10590722D01*
X16796729Y-10590722D02*
X16787205Y-10581198D01*
X16787205Y-10581198D02*
X16768158Y-10571674D01*
X16768158Y-10571674D02*
X16730062Y-10571674D01*
X16730062Y-10571674D02*
X16711015Y-10581198D01*
X16711015Y-10581198D02*
X16701491Y-10590722D01*
X16701491Y-10590722D02*
X16691967Y-10609770D01*
X16930063Y-10495484D02*
X16949110Y-10495484D01*
X16949110Y-10495484D02*
X16968158Y-10505008D01*
X16968158Y-10505008D02*
X16977682Y-10514531D01*
X16977682Y-10514531D02*
X16987205Y-10533579D01*
X16987205Y-10533579D02*
X16996729Y-10571674D01*
X16996729Y-10571674D02*
X16996729Y-10619293D01*
X16996729Y-10619293D02*
X16987205Y-10657389D01*
X16987205Y-10657389D02*
X16977682Y-10676436D01*
X16977682Y-10676436D02*
X16968158Y-10685960D01*
X16968158Y-10685960D02*
X16949110Y-10695484D01*
X16949110Y-10695484D02*
X16930063Y-10695484D01*
X16930063Y-10695484D02*
X16911015Y-10685960D01*
X16911015Y-10685960D02*
X16901491Y-10676436D01*
X16901491Y-10676436D02*
X16891967Y-10657389D01*
X16891967Y-10657389D02*
X16882444Y-10619293D01*
X16882444Y-10619293D02*
X16882444Y-10571674D01*
X16882444Y-10571674D02*
X16891967Y-10533579D01*
X16891967Y-10533579D02*
X16901491Y-10514531D01*
X16901491Y-10514531D02*
X16911015Y-10505008D01*
X16911015Y-10505008D02*
X16930063Y-10495484D01*
X17120539Y-10495484D02*
X17139586Y-10495484D01*
X17139586Y-10495484D02*
X17158634Y-10505008D01*
X17158634Y-10505008D02*
X17168158Y-10514531D01*
X17168158Y-10514531D02*
X17177682Y-10533579D01*
X17177682Y-10533579D02*
X17187205Y-10571674D01*
X17187205Y-10571674D02*
X17187205Y-10619293D01*
X17187205Y-10619293D02*
X17177682Y-10657389D01*
X17177682Y-10657389D02*
X17168158Y-10676436D01*
X17168158Y-10676436D02*
X17158634Y-10685960D01*
X17158634Y-10685960D02*
X17139586Y-10695484D01*
X17139586Y-10695484D02*
X17120539Y-10695484D01*
X17120539Y-10695484D02*
X17101491Y-10685960D01*
X17101491Y-10685960D02*
X17091967Y-10676436D01*
X17091967Y-10676436D02*
X17082444Y-10657389D01*
X17082444Y-10657389D02*
X17072920Y-10619293D01*
X17072920Y-10619293D02*
X17072920Y-10571674D01*
X17072920Y-10571674D02*
X17082444Y-10533579D01*
X17082444Y-10533579D02*
X17091967Y-10514531D01*
X17091967Y-10514531D02*
X17101491Y-10505008D01*
X17101491Y-10505008D02*
X17120539Y-10495484D01*
X17272920Y-10695484D02*
X17272920Y-10562150D01*
X17272920Y-10581198D02*
X17282444Y-10571674D01*
X17282444Y-10571674D02*
X17301491Y-10562150D01*
X17301491Y-10562150D02*
X17330063Y-10562150D01*
X17330063Y-10562150D02*
X17349110Y-10571674D01*
X17349110Y-10571674D02*
X17358634Y-10590722D01*
X17358634Y-10590722D02*
X17358634Y-10695484D01*
X17358634Y-10590722D02*
X17368158Y-10571674D01*
X17368158Y-10571674D02*
X17387205Y-10562150D01*
X17387205Y-10562150D02*
X17415777Y-10562150D01*
X17415777Y-10562150D02*
X17434825Y-10571674D01*
X17434825Y-10571674D02*
X17444348Y-10590722D01*
X17444348Y-10590722D02*
X17444348Y-10695484D01*
X17539586Y-10695484D02*
X17539586Y-10562150D01*
X17539586Y-10581198D02*
X17549110Y-10571674D01*
X17549110Y-10571674D02*
X17568158Y-10562150D01*
X17568158Y-10562150D02*
X17596729Y-10562150D01*
X17596729Y-10562150D02*
X17615777Y-10571674D01*
X17615777Y-10571674D02*
X17625301Y-10590722D01*
X17625301Y-10590722D02*
X17625301Y-10695484D01*
X17625301Y-10590722D02*
X17634825Y-10571674D01*
X17634825Y-10571674D02*
X17653872Y-10562150D01*
X17653872Y-10562150D02*
X17682444Y-10562150D01*
X17682444Y-10562150D02*
X17701491Y-10571674D01*
X17701491Y-10571674D02*
X17711015Y-10590722D01*
X17711015Y-10590722D02*
X17711015Y-10695484D01*
X18101491Y-10485960D02*
X17930063Y-10743103D01*
X18358634Y-10495484D02*
X18377682Y-10495484D01*
X18377682Y-10495484D02*
X18396729Y-10505008D01*
X18396729Y-10505008D02*
X18406253Y-10514531D01*
X18406253Y-10514531D02*
X18415777Y-10533579D01*
X18415777Y-10533579D02*
X18425301Y-10571674D01*
X18425301Y-10571674D02*
X18425301Y-10619293D01*
X18425301Y-10619293D02*
X18415777Y-10657389D01*
X18415777Y-10657389D02*
X18406253Y-10676436D01*
X18406253Y-10676436D02*
X18396729Y-10685960D01*
X18396729Y-10685960D02*
X18377682Y-10695484D01*
X18377682Y-10695484D02*
X18358634Y-10695484D01*
X18358634Y-10695484D02*
X18339587Y-10685960D01*
X18339587Y-10685960D02*
X18330063Y-10676436D01*
X18330063Y-10676436D02*
X18320539Y-10657389D01*
X18320539Y-10657389D02*
X18311015Y-10619293D01*
X18311015Y-10619293D02*
X18311015Y-10571674D01*
X18311015Y-10571674D02*
X18320539Y-10533579D01*
X18320539Y-10533579D02*
X18330063Y-10514531D01*
X18330063Y-10514531D02*
X18339587Y-10505008D01*
X18339587Y-10505008D02*
X18358634Y-10495484D01*
X18511015Y-10676436D02*
X18520539Y-10685960D01*
X18520539Y-10685960D02*
X18511015Y-10695484D01*
X18511015Y-10695484D02*
X18501491Y-10685960D01*
X18501491Y-10685960D02*
X18511015Y-10676436D01*
X18511015Y-10676436D02*
X18511015Y-10695484D01*
X18644348Y-10495484D02*
X18663396Y-10495484D01*
X18663396Y-10495484D02*
X18682444Y-10505008D01*
X18682444Y-10505008D02*
X18691968Y-10514531D01*
X18691968Y-10514531D02*
X18701491Y-10533579D01*
X18701491Y-10533579D02*
X18711015Y-10571674D01*
X18711015Y-10571674D02*
X18711015Y-10619293D01*
X18711015Y-10619293D02*
X18701491Y-10657389D01*
X18701491Y-10657389D02*
X18691968Y-10676436D01*
X18691968Y-10676436D02*
X18682444Y-10685960D01*
X18682444Y-10685960D02*
X18663396Y-10695484D01*
X18663396Y-10695484D02*
X18644348Y-10695484D01*
X18644348Y-10695484D02*
X18625301Y-10685960D01*
X18625301Y-10685960D02*
X18615777Y-10676436D01*
X18615777Y-10676436D02*
X18606253Y-10657389D01*
X18606253Y-10657389D02*
X18596729Y-10619293D01*
X18596729Y-10619293D02*
X18596729Y-10571674D01*
X18596729Y-10571674D02*
X18606253Y-10533579D01*
X18606253Y-10533579D02*
X18615777Y-10514531D01*
X18615777Y-10514531D02*
X18625301Y-10505008D01*
X18625301Y-10505008D02*
X18644348Y-10495484D01*
X18882444Y-10495484D02*
X18844348Y-10495484D01*
X18844348Y-10495484D02*
X18825301Y-10505008D01*
X18825301Y-10505008D02*
X18815777Y-10514531D01*
X18815777Y-10514531D02*
X18796729Y-10543103D01*
X18796729Y-10543103D02*
X18787206Y-10581198D01*
X18787206Y-10581198D02*
X18787206Y-10657389D01*
X18787206Y-10657389D02*
X18796729Y-10676436D01*
X18796729Y-10676436D02*
X18806253Y-10685960D01*
X18806253Y-10685960D02*
X18825301Y-10695484D01*
X18825301Y-10695484D02*
X18863396Y-10695484D01*
X18863396Y-10695484D02*
X18882444Y-10685960D01*
X18882444Y-10685960D02*
X18891968Y-10676436D01*
X18891968Y-10676436D02*
X18901491Y-10657389D01*
X18901491Y-10657389D02*
X18901491Y-10609770D01*
X18901491Y-10609770D02*
X18891968Y-10590722D01*
X18891968Y-10590722D02*
X18882444Y-10581198D01*
X18882444Y-10581198D02*
X18863396Y-10571674D01*
X18863396Y-10571674D02*
X18825301Y-10571674D01*
X18825301Y-10571674D02*
X18806253Y-10581198D01*
X18806253Y-10581198D02*
X18796729Y-10590722D01*
X18796729Y-10590722D02*
X18787206Y-10609770D01*
X18968158Y-10495484D02*
X19091968Y-10495484D01*
X19091968Y-10495484D02*
X19025301Y-10571674D01*
X19025301Y-10571674D02*
X19053872Y-10571674D01*
X19053872Y-10571674D02*
X19072920Y-10581198D01*
X19072920Y-10581198D02*
X19082444Y-10590722D01*
X19082444Y-10590722D02*
X19091968Y-10609770D01*
X19091968Y-10609770D02*
X19091968Y-10657389D01*
X19091968Y-10657389D02*
X19082444Y-10676436D01*
X19082444Y-10676436D02*
X19072920Y-10685960D01*
X19072920Y-10685960D02*
X19053872Y-10695484D01*
X19053872Y-10695484D02*
X18996729Y-10695484D01*
X18996729Y-10695484D02*
X18977682Y-10685960D01*
X18977682Y-10685960D02*
X18968158Y-10676436D01*
X19215777Y-10495484D02*
X19234825Y-10495484D01*
X19234825Y-10495484D02*
X19253872Y-10505008D01*
X19253872Y-10505008D02*
X19263396Y-10514531D01*
X19263396Y-10514531D02*
X19272920Y-10533579D01*
X19272920Y-10533579D02*
X19282444Y-10571674D01*
X19282444Y-10571674D02*
X19282444Y-10619293D01*
X19282444Y-10619293D02*
X19272920Y-10657389D01*
X19272920Y-10657389D02*
X19263396Y-10676436D01*
X19263396Y-10676436D02*
X19253872Y-10685960D01*
X19253872Y-10685960D02*
X19234825Y-10695484D01*
X19234825Y-10695484D02*
X19215777Y-10695484D01*
X19215777Y-10695484D02*
X19196729Y-10685960D01*
X19196729Y-10685960D02*
X19187206Y-10676436D01*
X19187206Y-10676436D02*
X19177682Y-10657389D01*
X19177682Y-10657389D02*
X19168158Y-10619293D01*
X19168158Y-10619293D02*
X19168158Y-10571674D01*
X19168158Y-10571674D02*
X19177682Y-10533579D01*
X19177682Y-10533579D02*
X19187206Y-10514531D01*
X19187206Y-10514531D02*
X19196729Y-10505008D01*
X19196729Y-10505008D02*
X19215777Y-10495484D01*
X19358634Y-10495484D02*
X19358634Y-10533579D01*
X19434825Y-10495484D02*
X19434825Y-10533579D01*
X19730063Y-10771674D02*
X19720539Y-10762150D01*
X19720539Y-10762150D02*
X19701491Y-10733579D01*
X19701491Y-10733579D02*
X19691968Y-10714531D01*
X19691968Y-10714531D02*
X19682444Y-10685960D01*
X19682444Y-10685960D02*
X19672920Y-10638341D01*
X19672920Y-10638341D02*
X19672920Y-10600246D01*
X19672920Y-10600246D02*
X19682444Y-10552627D01*
X19682444Y-10552627D02*
X19691968Y-10524055D01*
X19691968Y-10524055D02*
X19701491Y-10505008D01*
X19701491Y-10505008D02*
X19720539Y-10476436D01*
X19720539Y-10476436D02*
X19730063Y-10466912D01*
X19901491Y-10495484D02*
X19806253Y-10495484D01*
X19806253Y-10495484D02*
X19796730Y-10590722D01*
X19796730Y-10590722D02*
X19806253Y-10581198D01*
X19806253Y-10581198D02*
X19825301Y-10571674D01*
X19825301Y-10571674D02*
X19872920Y-10571674D01*
X19872920Y-10571674D02*
X19891968Y-10581198D01*
X19891968Y-10581198D02*
X19901491Y-10590722D01*
X19901491Y-10590722D02*
X19911015Y-10609770D01*
X19911015Y-10609770D02*
X19911015Y-10657389D01*
X19911015Y-10657389D02*
X19901491Y-10676436D01*
X19901491Y-10676436D02*
X19891968Y-10685960D01*
X19891968Y-10685960D02*
X19872920Y-10695484D01*
X19872920Y-10695484D02*
X19825301Y-10695484D01*
X19825301Y-10695484D02*
X19806253Y-10685960D01*
X19806253Y-10685960D02*
X19796730Y-10676436D01*
X20149111Y-10695484D02*
X20149111Y-10495484D01*
X20234825Y-10695484D02*
X20234825Y-10590722D01*
X20234825Y-10590722D02*
X20225301Y-10571674D01*
X20225301Y-10571674D02*
X20206253Y-10562150D01*
X20206253Y-10562150D02*
X20177682Y-10562150D01*
X20177682Y-10562150D02*
X20158634Y-10571674D01*
X20158634Y-10571674D02*
X20149111Y-10581198D01*
X20358634Y-10695484D02*
X20339587Y-10685960D01*
X20339587Y-10685960D02*
X20330063Y-10676436D01*
X20330063Y-10676436D02*
X20320539Y-10657389D01*
X20320539Y-10657389D02*
X20320539Y-10600246D01*
X20320539Y-10600246D02*
X20330063Y-10581198D01*
X20330063Y-10581198D02*
X20339587Y-10571674D01*
X20339587Y-10571674D02*
X20358634Y-10562150D01*
X20358634Y-10562150D02*
X20387206Y-10562150D01*
X20387206Y-10562150D02*
X20406253Y-10571674D01*
X20406253Y-10571674D02*
X20415777Y-10581198D01*
X20415777Y-10581198D02*
X20425301Y-10600246D01*
X20425301Y-10600246D02*
X20425301Y-10657389D01*
X20425301Y-10657389D02*
X20415777Y-10676436D01*
X20415777Y-10676436D02*
X20406253Y-10685960D01*
X20406253Y-10685960D02*
X20387206Y-10695484D01*
X20387206Y-10695484D02*
X20358634Y-10695484D01*
X20539587Y-10695484D02*
X20520539Y-10685960D01*
X20520539Y-10685960D02*
X20511015Y-10666912D01*
X20511015Y-10666912D02*
X20511015Y-10495484D01*
X20691968Y-10685960D02*
X20672920Y-10695484D01*
X20672920Y-10695484D02*
X20634825Y-10695484D01*
X20634825Y-10695484D02*
X20615777Y-10685960D01*
X20615777Y-10685960D02*
X20606253Y-10666912D01*
X20606253Y-10666912D02*
X20606253Y-10590722D01*
X20606253Y-10590722D02*
X20615777Y-10571674D01*
X20615777Y-10571674D02*
X20634825Y-10562150D01*
X20634825Y-10562150D02*
X20672920Y-10562150D01*
X20672920Y-10562150D02*
X20691968Y-10571674D01*
X20691968Y-10571674D02*
X20701492Y-10590722D01*
X20701492Y-10590722D02*
X20701492Y-10609770D01*
X20701492Y-10609770D02*
X20606253Y-10628817D01*
X20777682Y-10685960D02*
X20796730Y-10695484D01*
X20796730Y-10695484D02*
X20834825Y-10695484D01*
X20834825Y-10695484D02*
X20853873Y-10685960D01*
X20853873Y-10685960D02*
X20863396Y-10666912D01*
X20863396Y-10666912D02*
X20863396Y-10657389D01*
X20863396Y-10657389D02*
X20853873Y-10638341D01*
X20853873Y-10638341D02*
X20834825Y-10628817D01*
X20834825Y-10628817D02*
X20806253Y-10628817D01*
X20806253Y-10628817D02*
X20787206Y-10619293D01*
X20787206Y-10619293D02*
X20777682Y-10600246D01*
X20777682Y-10600246D02*
X20777682Y-10590722D01*
X20777682Y-10590722D02*
X20787206Y-10571674D01*
X20787206Y-10571674D02*
X20806253Y-10562150D01*
X20806253Y-10562150D02*
X20834825Y-10562150D01*
X20834825Y-10562150D02*
X20853873Y-10571674D01*
X20930063Y-10771674D02*
X20939587Y-10762150D01*
X20939587Y-10762150D02*
X20958634Y-10733579D01*
X20958634Y-10733579D02*
X20968158Y-10714531D01*
X20968158Y-10714531D02*
X20977682Y-10685960D01*
X20977682Y-10685960D02*
X20987206Y-10638341D01*
X20987206Y-10638341D02*
X20987206Y-10600246D01*
X20987206Y-10600246D02*
X20977682Y-10552627D01*
X20977682Y-10552627D02*
X20968158Y-10524055D01*
X20968158Y-10524055D02*
X20958634Y-10505008D01*
X20958634Y-10505008D02*
X20939587Y-10476436D01*
X20939587Y-10476436D02*
X20930063Y-10466912D01*
M02*
