%TF.GenerationSoftware,KiCad,Pcbnew,7.0.8*%
%TF.CreationDate,2024-07-12T13:32:42-07:00*%
%TF.ProjectId,RFBackscatterV1,52464261-636b-4736-9361-747465725631,rev?*%
%TF.SameCoordinates,Original*%
%TF.FileFunction,Legend,Top*%
%TF.FilePolarity,Positive*%
%FSLAX46Y46*%
G04 Gerber Fmt 4.6, Leading zero omitted, Abs format (unit mm)*
G04 Created by KiCad (PCBNEW 7.0.8) date 2024-07-12 13:32:42*
%MOMM*%
%LPD*%
G01*
G04 APERTURE LIST*
%ADD10C,0.150000*%
%ADD11C,0.152400*%
%ADD12C,0.120000*%
%ADD13C,0.100000*%
G04 APERTURE END LIST*
D10*
X180090180Y-73558207D02*
X180566371Y-73224874D01*
X180090180Y-72986779D02*
X181090180Y-72986779D01*
X181090180Y-72986779D02*
X181090180Y-73367731D01*
X181090180Y-73367731D02*
X181042561Y-73462969D01*
X181042561Y-73462969D02*
X180994942Y-73510588D01*
X180994942Y-73510588D02*
X180899704Y-73558207D01*
X180899704Y-73558207D02*
X180756847Y-73558207D01*
X180756847Y-73558207D02*
X180661609Y-73510588D01*
X180661609Y-73510588D02*
X180613990Y-73462969D01*
X180613990Y-73462969D02*
X180566371Y-73367731D01*
X180566371Y-73367731D02*
X180566371Y-72986779D01*
X180613990Y-74320112D02*
X180613990Y-73986779D01*
X180090180Y-73986779D02*
X181090180Y-73986779D01*
X181090180Y-73986779D02*
X181090180Y-74462969D01*
X180471133Y-74843922D02*
X180471133Y-75605827D01*
X180613990Y-76415350D02*
X180566371Y-76558207D01*
X180566371Y-76558207D02*
X180518752Y-76605826D01*
X180518752Y-76605826D02*
X180423514Y-76653445D01*
X180423514Y-76653445D02*
X180280657Y-76653445D01*
X180280657Y-76653445D02*
X180185419Y-76605826D01*
X180185419Y-76605826D02*
X180137800Y-76558207D01*
X180137800Y-76558207D02*
X180090180Y-76462969D01*
X180090180Y-76462969D02*
X180090180Y-76082017D01*
X180090180Y-76082017D02*
X181090180Y-76082017D01*
X181090180Y-76082017D02*
X181090180Y-76415350D01*
X181090180Y-76415350D02*
X181042561Y-76510588D01*
X181042561Y-76510588D02*
X180994942Y-76558207D01*
X180994942Y-76558207D02*
X180899704Y-76605826D01*
X180899704Y-76605826D02*
X180804466Y-76605826D01*
X180804466Y-76605826D02*
X180709228Y-76558207D01*
X180709228Y-76558207D02*
X180661609Y-76510588D01*
X180661609Y-76510588D02*
X180613990Y-76415350D01*
X180613990Y-76415350D02*
X180613990Y-76082017D01*
X180090180Y-77510588D02*
X180613990Y-77510588D01*
X180613990Y-77510588D02*
X180709228Y-77462969D01*
X180709228Y-77462969D02*
X180756847Y-77367731D01*
X180756847Y-77367731D02*
X180756847Y-77177255D01*
X180756847Y-77177255D02*
X180709228Y-77082017D01*
X180137800Y-77510588D02*
X180090180Y-77415350D01*
X180090180Y-77415350D02*
X180090180Y-77177255D01*
X180090180Y-77177255D02*
X180137800Y-77082017D01*
X180137800Y-77082017D02*
X180233038Y-77034398D01*
X180233038Y-77034398D02*
X180328276Y-77034398D01*
X180328276Y-77034398D02*
X180423514Y-77082017D01*
X180423514Y-77082017D02*
X180471133Y-77177255D01*
X180471133Y-77177255D02*
X180471133Y-77415350D01*
X180471133Y-77415350D02*
X180518752Y-77510588D01*
X180137800Y-78415350D02*
X180090180Y-78320112D01*
X180090180Y-78320112D02*
X180090180Y-78129636D01*
X180090180Y-78129636D02*
X180137800Y-78034398D01*
X180137800Y-78034398D02*
X180185419Y-77986779D01*
X180185419Y-77986779D02*
X180280657Y-77939160D01*
X180280657Y-77939160D02*
X180566371Y-77939160D01*
X180566371Y-77939160D02*
X180661609Y-77986779D01*
X180661609Y-77986779D02*
X180709228Y-78034398D01*
X180709228Y-78034398D02*
X180756847Y-78129636D01*
X180756847Y-78129636D02*
X180756847Y-78320112D01*
X180756847Y-78320112D02*
X180709228Y-78415350D01*
X180090180Y-78843922D02*
X181090180Y-78843922D01*
X180471133Y-78939160D02*
X180090180Y-79224874D01*
X180756847Y-79224874D02*
X180375895Y-78843922D01*
X180137800Y-79605827D02*
X180090180Y-79701065D01*
X180090180Y-79701065D02*
X180090180Y-79891541D01*
X180090180Y-79891541D02*
X180137800Y-79986779D01*
X180137800Y-79986779D02*
X180233038Y-80034398D01*
X180233038Y-80034398D02*
X180280657Y-80034398D01*
X180280657Y-80034398D02*
X180375895Y-79986779D01*
X180375895Y-79986779D02*
X180423514Y-79891541D01*
X180423514Y-79891541D02*
X180423514Y-79748684D01*
X180423514Y-79748684D02*
X180471133Y-79653446D01*
X180471133Y-79653446D02*
X180566371Y-79605827D01*
X180566371Y-79605827D02*
X180613990Y-79605827D01*
X180613990Y-79605827D02*
X180709228Y-79653446D01*
X180709228Y-79653446D02*
X180756847Y-79748684D01*
X180756847Y-79748684D02*
X180756847Y-79891541D01*
X180756847Y-79891541D02*
X180709228Y-79986779D01*
X180137800Y-80891541D02*
X180090180Y-80796303D01*
X180090180Y-80796303D02*
X180090180Y-80605827D01*
X180090180Y-80605827D02*
X180137800Y-80510589D01*
X180137800Y-80510589D02*
X180185419Y-80462970D01*
X180185419Y-80462970D02*
X180280657Y-80415351D01*
X180280657Y-80415351D02*
X180566371Y-80415351D01*
X180566371Y-80415351D02*
X180661609Y-80462970D01*
X180661609Y-80462970D02*
X180709228Y-80510589D01*
X180709228Y-80510589D02*
X180756847Y-80605827D01*
X180756847Y-80605827D02*
X180756847Y-80796303D01*
X180756847Y-80796303D02*
X180709228Y-80891541D01*
X180090180Y-81748684D02*
X180613990Y-81748684D01*
X180613990Y-81748684D02*
X180709228Y-81701065D01*
X180709228Y-81701065D02*
X180756847Y-81605827D01*
X180756847Y-81605827D02*
X180756847Y-81415351D01*
X180756847Y-81415351D02*
X180709228Y-81320113D01*
X180137800Y-81748684D02*
X180090180Y-81653446D01*
X180090180Y-81653446D02*
X180090180Y-81415351D01*
X180090180Y-81415351D02*
X180137800Y-81320113D01*
X180137800Y-81320113D02*
X180233038Y-81272494D01*
X180233038Y-81272494D02*
X180328276Y-81272494D01*
X180328276Y-81272494D02*
X180423514Y-81320113D01*
X180423514Y-81320113D02*
X180471133Y-81415351D01*
X180471133Y-81415351D02*
X180471133Y-81653446D01*
X180471133Y-81653446D02*
X180518752Y-81748684D01*
X180756847Y-82082018D02*
X180756847Y-82462970D01*
X181090180Y-82224875D02*
X180233038Y-82224875D01*
X180233038Y-82224875D02*
X180137800Y-82272494D01*
X180137800Y-82272494D02*
X180090180Y-82367732D01*
X180090180Y-82367732D02*
X180090180Y-82462970D01*
X180756847Y-82653447D02*
X180756847Y-83034399D01*
X181090180Y-82796304D02*
X180233038Y-82796304D01*
X180233038Y-82796304D02*
X180137800Y-82843923D01*
X180137800Y-82843923D02*
X180090180Y-82939161D01*
X180090180Y-82939161D02*
X180090180Y-83034399D01*
X180137800Y-83748685D02*
X180090180Y-83653447D01*
X180090180Y-83653447D02*
X180090180Y-83462971D01*
X180090180Y-83462971D02*
X180137800Y-83367733D01*
X180137800Y-83367733D02*
X180233038Y-83320114D01*
X180233038Y-83320114D02*
X180613990Y-83320114D01*
X180613990Y-83320114D02*
X180709228Y-83367733D01*
X180709228Y-83367733D02*
X180756847Y-83462971D01*
X180756847Y-83462971D02*
X180756847Y-83653447D01*
X180756847Y-83653447D02*
X180709228Y-83748685D01*
X180709228Y-83748685D02*
X180613990Y-83796304D01*
X180613990Y-83796304D02*
X180518752Y-83796304D01*
X180518752Y-83796304D02*
X180423514Y-83320114D01*
X180090180Y-84224876D02*
X180756847Y-84224876D01*
X180566371Y-84224876D02*
X180661609Y-84272495D01*
X180661609Y-84272495D02*
X180709228Y-84320114D01*
X180709228Y-84320114D02*
X180756847Y-84415352D01*
X180756847Y-84415352D02*
X180756847Y-84510590D01*
X180471133Y-84843924D02*
X180471133Y-85605829D01*
X181090180Y-85939162D02*
X180090180Y-86272495D01*
X180090180Y-86272495D02*
X181090180Y-86605828D01*
X180090180Y-87462971D02*
X180090180Y-86891543D01*
X180090180Y-87177257D02*
X181090180Y-87177257D01*
X181090180Y-87177257D02*
X180947323Y-87082019D01*
X180947323Y-87082019D02*
X180852085Y-86986781D01*
X180852085Y-86986781D02*
X180804466Y-86891543D01*
X180185419Y-87891543D02*
X180137800Y-87939162D01*
X180137800Y-87939162D02*
X180090180Y-87891543D01*
X180090180Y-87891543D02*
X180137800Y-87843924D01*
X180137800Y-87843924D02*
X180185419Y-87891543D01*
X180185419Y-87891543D02*
X180090180Y-87891543D01*
X181090180Y-88558209D02*
X181090180Y-88653447D01*
X181090180Y-88653447D02*
X181042561Y-88748685D01*
X181042561Y-88748685D02*
X180994942Y-88796304D01*
X180994942Y-88796304D02*
X180899704Y-88843923D01*
X180899704Y-88843923D02*
X180709228Y-88891542D01*
X180709228Y-88891542D02*
X180471133Y-88891542D01*
X180471133Y-88891542D02*
X180280657Y-88843923D01*
X180280657Y-88843923D02*
X180185419Y-88796304D01*
X180185419Y-88796304D02*
X180137800Y-88748685D01*
X180137800Y-88748685D02*
X180090180Y-88653447D01*
X180090180Y-88653447D02*
X180090180Y-88558209D01*
X180090180Y-88558209D02*
X180137800Y-88462971D01*
X180137800Y-88462971D02*
X180185419Y-88415352D01*
X180185419Y-88415352D02*
X180280657Y-88367733D01*
X180280657Y-88367733D02*
X180471133Y-88320114D01*
X180471133Y-88320114D02*
X180709228Y-88320114D01*
X180709228Y-88320114D02*
X180899704Y-88367733D01*
X180899704Y-88367733D02*
X180994942Y-88415352D01*
X180994942Y-88415352D02*
X181042561Y-88462971D01*
X181042561Y-88462971D02*
X181090180Y-88558209D01*
X179480180Y-73272493D02*
X178765895Y-73272493D01*
X178765895Y-73272493D02*
X178623038Y-73224874D01*
X178623038Y-73224874D02*
X178527800Y-73129636D01*
X178527800Y-73129636D02*
X178480180Y-72986779D01*
X178480180Y-72986779D02*
X178480180Y-72891541D01*
X178861133Y-73748684D02*
X178861133Y-74510589D01*
X178480180Y-75462969D02*
X178480180Y-74986779D01*
X178480180Y-74986779D02*
X179480180Y-74986779D01*
X178480180Y-76224874D02*
X179003990Y-76224874D01*
X179003990Y-76224874D02*
X179099228Y-76177255D01*
X179099228Y-76177255D02*
X179146847Y-76082017D01*
X179146847Y-76082017D02*
X179146847Y-75891541D01*
X179146847Y-75891541D02*
X179099228Y-75796303D01*
X178527800Y-76224874D02*
X178480180Y-76129636D01*
X178480180Y-76129636D02*
X178480180Y-75891541D01*
X178480180Y-75891541D02*
X178527800Y-75796303D01*
X178527800Y-75796303D02*
X178623038Y-75748684D01*
X178623038Y-75748684D02*
X178718276Y-75748684D01*
X178718276Y-75748684D02*
X178813514Y-75796303D01*
X178813514Y-75796303D02*
X178861133Y-75891541D01*
X178861133Y-75891541D02*
X178861133Y-76129636D01*
X178861133Y-76129636D02*
X178908752Y-76224874D01*
X178480180Y-76701065D02*
X179480180Y-76701065D01*
X179099228Y-76701065D02*
X179146847Y-76796303D01*
X179146847Y-76796303D02*
X179146847Y-76986779D01*
X179146847Y-76986779D02*
X179099228Y-77082017D01*
X179099228Y-77082017D02*
X179051609Y-77129636D01*
X179051609Y-77129636D02*
X178956371Y-77177255D01*
X178956371Y-77177255D02*
X178670657Y-77177255D01*
X178670657Y-77177255D02*
X178575419Y-77129636D01*
X178575419Y-77129636D02*
X178527800Y-77082017D01*
X178527800Y-77082017D02*
X178480180Y-76986779D01*
X178480180Y-76986779D02*
X178480180Y-76796303D01*
X178480180Y-76796303D02*
X178527800Y-76701065D01*
X179480180Y-78367732D02*
X178670657Y-78367732D01*
X178670657Y-78367732D02*
X178575419Y-78415351D01*
X178575419Y-78415351D02*
X178527800Y-78462970D01*
X178527800Y-78462970D02*
X178480180Y-78558208D01*
X178480180Y-78558208D02*
X178480180Y-78748684D01*
X178480180Y-78748684D02*
X178527800Y-78843922D01*
X178527800Y-78843922D02*
X178575419Y-78891541D01*
X178575419Y-78891541D02*
X178670657Y-78939160D01*
X178670657Y-78939160D02*
X179480180Y-78939160D01*
X178575419Y-79986779D02*
X178527800Y-79939160D01*
X178527800Y-79939160D02*
X178480180Y-79796303D01*
X178480180Y-79796303D02*
X178480180Y-79701065D01*
X178480180Y-79701065D02*
X178527800Y-79558208D01*
X178527800Y-79558208D02*
X178623038Y-79462970D01*
X178623038Y-79462970D02*
X178718276Y-79415351D01*
X178718276Y-79415351D02*
X178908752Y-79367732D01*
X178908752Y-79367732D02*
X179051609Y-79367732D01*
X179051609Y-79367732D02*
X179242085Y-79415351D01*
X179242085Y-79415351D02*
X179337323Y-79462970D01*
X179337323Y-79462970D02*
X179432561Y-79558208D01*
X179432561Y-79558208D02*
X179480180Y-79701065D01*
X179480180Y-79701065D02*
X179480180Y-79796303D01*
X179480180Y-79796303D02*
X179432561Y-79939160D01*
X179432561Y-79939160D02*
X179384942Y-79986779D01*
X178527800Y-80367732D02*
X178480180Y-80510589D01*
X178480180Y-80510589D02*
X178480180Y-80748684D01*
X178480180Y-80748684D02*
X178527800Y-80843922D01*
X178527800Y-80843922D02*
X178575419Y-80891541D01*
X178575419Y-80891541D02*
X178670657Y-80939160D01*
X178670657Y-80939160D02*
X178765895Y-80939160D01*
X178765895Y-80939160D02*
X178861133Y-80891541D01*
X178861133Y-80891541D02*
X178908752Y-80843922D01*
X178908752Y-80843922D02*
X178956371Y-80748684D01*
X178956371Y-80748684D02*
X179003990Y-80558208D01*
X179003990Y-80558208D02*
X179051609Y-80462970D01*
X179051609Y-80462970D02*
X179099228Y-80415351D01*
X179099228Y-80415351D02*
X179194466Y-80367732D01*
X179194466Y-80367732D02*
X179289704Y-80367732D01*
X179289704Y-80367732D02*
X179384942Y-80415351D01*
X179384942Y-80415351D02*
X179432561Y-80462970D01*
X179432561Y-80462970D02*
X179480180Y-80558208D01*
X179480180Y-80558208D02*
X179480180Y-80796303D01*
X179480180Y-80796303D02*
X179432561Y-80939160D01*
X178575419Y-81939160D02*
X178527800Y-81891541D01*
X178527800Y-81891541D02*
X178480180Y-81748684D01*
X178480180Y-81748684D02*
X178480180Y-81653446D01*
X178480180Y-81653446D02*
X178527800Y-81510589D01*
X178527800Y-81510589D02*
X178623038Y-81415351D01*
X178623038Y-81415351D02*
X178718276Y-81367732D01*
X178718276Y-81367732D02*
X178908752Y-81320113D01*
X178908752Y-81320113D02*
X179051609Y-81320113D01*
X179051609Y-81320113D02*
X179242085Y-81367732D01*
X179242085Y-81367732D02*
X179337323Y-81415351D01*
X179337323Y-81415351D02*
X179432561Y-81510589D01*
X179432561Y-81510589D02*
X179480180Y-81653446D01*
X179480180Y-81653446D02*
X179480180Y-81748684D01*
X179480180Y-81748684D02*
X179432561Y-81891541D01*
X179432561Y-81891541D02*
X179384942Y-81939160D01*
X163869819Y-90777506D02*
X164584104Y-90777506D01*
X164584104Y-90777506D02*
X164726961Y-90825125D01*
X164726961Y-90825125D02*
X164822200Y-90920363D01*
X164822200Y-90920363D02*
X164869819Y-91063220D01*
X164869819Y-91063220D02*
X164869819Y-91158458D01*
X164869819Y-89777506D02*
X164869819Y-90348934D01*
X164869819Y-90063220D02*
X163869819Y-90063220D01*
X163869819Y-90063220D02*
X164012676Y-90158458D01*
X164012676Y-90158458D02*
X164107914Y-90253696D01*
X164107914Y-90253696D02*
X164155533Y-90348934D01*
X169409670Y-80208820D02*
X169409670Y-81018343D01*
X169409670Y-81018343D02*
X169457289Y-81113581D01*
X169457289Y-81113581D02*
X169504908Y-81161201D01*
X169504908Y-81161201D02*
X169600146Y-81208820D01*
X169600146Y-81208820D02*
X169790622Y-81208820D01*
X169790622Y-81208820D02*
X169885860Y-81161201D01*
X169885860Y-81161201D02*
X169933479Y-81113581D01*
X169933479Y-81113581D02*
X169981098Y-81018343D01*
X169981098Y-81018343D02*
X169981098Y-80208820D01*
X170981098Y-81208820D02*
X170409670Y-81208820D01*
X170695384Y-81208820D02*
X170695384Y-80208820D01*
X170695384Y-80208820D02*
X170600146Y-80351677D01*
X170600146Y-80351677D02*
X170504908Y-80446915D01*
X170504908Y-80446915D02*
X170409670Y-80494534D01*
X162738095Y-79502438D02*
X162642857Y-79454819D01*
X162642857Y-79454819D02*
X162500000Y-79454819D01*
X162500000Y-79454819D02*
X162357143Y-79502438D01*
X162357143Y-79502438D02*
X162261905Y-79597676D01*
X162261905Y-79597676D02*
X162214286Y-79692914D01*
X162214286Y-79692914D02*
X162166667Y-79883390D01*
X162166667Y-79883390D02*
X162166667Y-80026247D01*
X162166667Y-80026247D02*
X162214286Y-80216723D01*
X162214286Y-80216723D02*
X162261905Y-80311961D01*
X162261905Y-80311961D02*
X162357143Y-80407200D01*
X162357143Y-80407200D02*
X162500000Y-80454819D01*
X162500000Y-80454819D02*
X162595238Y-80454819D01*
X162595238Y-80454819D02*
X162738095Y-80407200D01*
X162738095Y-80407200D02*
X162785714Y-80359580D01*
X162785714Y-80359580D02*
X162785714Y-80026247D01*
X162785714Y-80026247D02*
X162595238Y-80026247D01*
X163214286Y-80454819D02*
X163214286Y-79454819D01*
X163214286Y-79454819D02*
X163785714Y-80454819D01*
X163785714Y-80454819D02*
X163785714Y-79454819D01*
X164261905Y-80454819D02*
X164261905Y-79454819D01*
X164261905Y-79454819D02*
X164500000Y-79454819D01*
X164500000Y-79454819D02*
X164642857Y-79502438D01*
X164642857Y-79502438D02*
X164738095Y-79597676D01*
X164738095Y-79597676D02*
X164785714Y-79692914D01*
X164785714Y-79692914D02*
X164833333Y-79883390D01*
X164833333Y-79883390D02*
X164833333Y-80026247D01*
X164833333Y-80026247D02*
X164785714Y-80216723D01*
X164785714Y-80216723D02*
X164738095Y-80311961D01*
X164738095Y-80311961D02*
X164642857Y-80407200D01*
X164642857Y-80407200D02*
X164500000Y-80454819D01*
X164500000Y-80454819D02*
X164261905Y-80454819D01*
X175488095Y-87552438D02*
X175392857Y-87504819D01*
X175392857Y-87504819D02*
X175250000Y-87504819D01*
X175250000Y-87504819D02*
X175107143Y-87552438D01*
X175107143Y-87552438D02*
X175011905Y-87647676D01*
X175011905Y-87647676D02*
X174964286Y-87742914D01*
X174964286Y-87742914D02*
X174916667Y-87933390D01*
X174916667Y-87933390D02*
X174916667Y-88076247D01*
X174916667Y-88076247D02*
X174964286Y-88266723D01*
X174964286Y-88266723D02*
X175011905Y-88361961D01*
X175011905Y-88361961D02*
X175107143Y-88457200D01*
X175107143Y-88457200D02*
X175250000Y-88504819D01*
X175250000Y-88504819D02*
X175345238Y-88504819D01*
X175345238Y-88504819D02*
X175488095Y-88457200D01*
X175488095Y-88457200D02*
X175535714Y-88409580D01*
X175535714Y-88409580D02*
X175535714Y-88076247D01*
X175535714Y-88076247D02*
X175345238Y-88076247D01*
X175964286Y-88504819D02*
X175964286Y-87504819D01*
X175964286Y-87504819D02*
X176535714Y-88504819D01*
X176535714Y-88504819D02*
X176535714Y-87504819D01*
X177011905Y-88504819D02*
X177011905Y-87504819D01*
X177011905Y-87504819D02*
X177250000Y-87504819D01*
X177250000Y-87504819D02*
X177392857Y-87552438D01*
X177392857Y-87552438D02*
X177488095Y-87647676D01*
X177488095Y-87647676D02*
X177535714Y-87742914D01*
X177535714Y-87742914D02*
X177583333Y-87933390D01*
X177583333Y-87933390D02*
X177583333Y-88076247D01*
X177583333Y-88076247D02*
X177535714Y-88266723D01*
X177535714Y-88266723D02*
X177488095Y-88361961D01*
X177488095Y-88361961D02*
X177392857Y-88457200D01*
X177392857Y-88457200D02*
X177250000Y-88504819D01*
X177250000Y-88504819D02*
X177011905Y-88504819D01*
X175504761Y-83354180D02*
X175457142Y-83401800D01*
X175457142Y-83401800D02*
X175314285Y-83449419D01*
X175314285Y-83449419D02*
X175219047Y-83449419D01*
X175219047Y-83449419D02*
X175076190Y-83401800D01*
X175076190Y-83401800D02*
X174980952Y-83306561D01*
X174980952Y-83306561D02*
X174933333Y-83211323D01*
X174933333Y-83211323D02*
X174885714Y-83020847D01*
X174885714Y-83020847D02*
X174885714Y-82877990D01*
X174885714Y-82877990D02*
X174933333Y-82687514D01*
X174933333Y-82687514D02*
X174980952Y-82592276D01*
X174980952Y-82592276D02*
X175076190Y-82497038D01*
X175076190Y-82497038D02*
X175219047Y-82449419D01*
X175219047Y-82449419D02*
X175314285Y-82449419D01*
X175314285Y-82449419D02*
X175457142Y-82497038D01*
X175457142Y-82497038D02*
X175504761Y-82544657D01*
X175695238Y-83544657D02*
X176457142Y-83544657D01*
X176885714Y-82449419D02*
X177076190Y-82449419D01*
X177076190Y-82449419D02*
X177171428Y-82497038D01*
X177171428Y-82497038D02*
X177266666Y-82592276D01*
X177266666Y-82592276D02*
X177314285Y-82782752D01*
X177314285Y-82782752D02*
X177314285Y-83116085D01*
X177314285Y-83116085D02*
X177266666Y-83306561D01*
X177266666Y-83306561D02*
X177171428Y-83401800D01*
X177171428Y-83401800D02*
X177076190Y-83449419D01*
X177076190Y-83449419D02*
X176885714Y-83449419D01*
X176885714Y-83449419D02*
X176790476Y-83401800D01*
X176790476Y-83401800D02*
X176695238Y-83306561D01*
X176695238Y-83306561D02*
X176647619Y-83116085D01*
X176647619Y-83116085D02*
X176647619Y-82782752D01*
X176647619Y-82782752D02*
X176695238Y-82592276D01*
X176695238Y-82592276D02*
X176790476Y-82497038D01*
X176790476Y-82497038D02*
X176885714Y-82449419D01*
X162878571Y-84610219D02*
X163069047Y-84610219D01*
X163069047Y-84610219D02*
X163164285Y-84657838D01*
X163164285Y-84657838D02*
X163259523Y-84753076D01*
X163259523Y-84753076D02*
X163307142Y-84943552D01*
X163307142Y-84943552D02*
X163307142Y-85276885D01*
X163307142Y-85276885D02*
X163259523Y-85467361D01*
X163259523Y-85467361D02*
X163164285Y-85562600D01*
X163164285Y-85562600D02*
X163069047Y-85610219D01*
X163069047Y-85610219D02*
X162878571Y-85610219D01*
X162878571Y-85610219D02*
X162783333Y-85562600D01*
X162783333Y-85562600D02*
X162688095Y-85467361D01*
X162688095Y-85467361D02*
X162640476Y-85276885D01*
X162640476Y-85276885D02*
X162640476Y-84943552D01*
X162640476Y-84943552D02*
X162688095Y-84753076D01*
X162688095Y-84753076D02*
X162783333Y-84657838D01*
X162783333Y-84657838D02*
X162878571Y-84610219D01*
X163688095Y-84705457D02*
X163735714Y-84657838D01*
X163735714Y-84657838D02*
X163830952Y-84610219D01*
X163830952Y-84610219D02*
X164069047Y-84610219D01*
X164069047Y-84610219D02*
X164164285Y-84657838D01*
X164164285Y-84657838D02*
X164211904Y-84705457D01*
X164211904Y-84705457D02*
X164259523Y-84800695D01*
X164259523Y-84800695D02*
X164259523Y-84895933D01*
X164259523Y-84895933D02*
X164211904Y-85038790D01*
X164211904Y-85038790D02*
X163640476Y-85610219D01*
X163640476Y-85610219D02*
X164259523Y-85610219D01*
X171483332Y-77195180D02*
X171149999Y-76195180D01*
X171149999Y-76195180D02*
X170816666Y-77195180D01*
X170483332Y-76195180D02*
X170483332Y-77195180D01*
X170483332Y-77195180D02*
X170245237Y-77195180D01*
X170245237Y-77195180D02*
X170102380Y-77147561D01*
X170102380Y-77147561D02*
X170007142Y-77052323D01*
X170007142Y-77052323D02*
X169959523Y-76957085D01*
X169959523Y-76957085D02*
X169911904Y-76766609D01*
X169911904Y-76766609D02*
X169911904Y-76623752D01*
X169911904Y-76623752D02*
X169959523Y-76433276D01*
X169959523Y-76433276D02*
X170007142Y-76338038D01*
X170007142Y-76338038D02*
X170102380Y-76242800D01*
X170102380Y-76242800D02*
X170245237Y-76195180D01*
X170245237Y-76195180D02*
X170483332Y-76195180D01*
X169483332Y-76195180D02*
X169483332Y-77195180D01*
X169483332Y-77195180D02*
X169245237Y-77195180D01*
X169245237Y-77195180D02*
X169102380Y-77147561D01*
X169102380Y-77147561D02*
X169007142Y-77052323D01*
X169007142Y-77052323D02*
X168959523Y-76957085D01*
X168959523Y-76957085D02*
X168911904Y-76766609D01*
X168911904Y-76766609D02*
X168911904Y-76623752D01*
X168911904Y-76623752D02*
X168959523Y-76433276D01*
X168959523Y-76433276D02*
X169007142Y-76338038D01*
X169007142Y-76338038D02*
X169102380Y-76242800D01*
X169102380Y-76242800D02*
X169245237Y-76195180D01*
X169245237Y-76195180D02*
X169483332Y-76195180D01*
X163333333Y-94859580D02*
X163285714Y-94907200D01*
X163285714Y-94907200D02*
X163142857Y-94954819D01*
X163142857Y-94954819D02*
X163047619Y-94954819D01*
X163047619Y-94954819D02*
X162904762Y-94907200D01*
X162904762Y-94907200D02*
X162809524Y-94811961D01*
X162809524Y-94811961D02*
X162761905Y-94716723D01*
X162761905Y-94716723D02*
X162714286Y-94526247D01*
X162714286Y-94526247D02*
X162714286Y-94383390D01*
X162714286Y-94383390D02*
X162761905Y-94192914D01*
X162761905Y-94192914D02*
X162809524Y-94097676D01*
X162809524Y-94097676D02*
X162904762Y-94002438D01*
X162904762Y-94002438D02*
X163047619Y-93954819D01*
X163047619Y-93954819D02*
X163142857Y-93954819D01*
X163142857Y-93954819D02*
X163285714Y-94002438D01*
X163285714Y-94002438D02*
X163333333Y-94050057D01*
X163666667Y-93954819D02*
X164285714Y-93954819D01*
X164285714Y-93954819D02*
X163952381Y-94335771D01*
X163952381Y-94335771D02*
X164095238Y-94335771D01*
X164095238Y-94335771D02*
X164190476Y-94383390D01*
X164190476Y-94383390D02*
X164238095Y-94431009D01*
X164238095Y-94431009D02*
X164285714Y-94526247D01*
X164285714Y-94526247D02*
X164285714Y-94764342D01*
X164285714Y-94764342D02*
X164238095Y-94859580D01*
X164238095Y-94859580D02*
X164190476Y-94907200D01*
X164190476Y-94907200D02*
X164095238Y-94954819D01*
X164095238Y-94954819D02*
X163809524Y-94954819D01*
X163809524Y-94954819D02*
X163714286Y-94907200D01*
X163714286Y-94907200D02*
X163666667Y-94859580D01*
X166611904Y-77147561D02*
X166707142Y-77195180D01*
X166707142Y-77195180D02*
X166849999Y-77195180D01*
X166849999Y-77195180D02*
X166992856Y-77147561D01*
X166992856Y-77147561D02*
X167088094Y-77052323D01*
X167088094Y-77052323D02*
X167135713Y-76957085D01*
X167135713Y-76957085D02*
X167183332Y-76766609D01*
X167183332Y-76766609D02*
X167183332Y-76623752D01*
X167183332Y-76623752D02*
X167135713Y-76433276D01*
X167135713Y-76433276D02*
X167088094Y-76338038D01*
X167088094Y-76338038D02*
X166992856Y-76242800D01*
X166992856Y-76242800D02*
X166849999Y-76195180D01*
X166849999Y-76195180D02*
X166754761Y-76195180D01*
X166754761Y-76195180D02*
X166611904Y-76242800D01*
X166611904Y-76242800D02*
X166564285Y-76290419D01*
X166564285Y-76290419D02*
X166564285Y-76623752D01*
X166564285Y-76623752D02*
X166754761Y-76623752D01*
X166135713Y-76195180D02*
X166135713Y-77195180D01*
X166135713Y-77195180D02*
X165564285Y-76195180D01*
X165564285Y-76195180D02*
X165564285Y-77195180D01*
X165088094Y-76195180D02*
X165088094Y-77195180D01*
X165088094Y-77195180D02*
X164849999Y-77195180D01*
X164849999Y-77195180D02*
X164707142Y-77147561D01*
X164707142Y-77147561D02*
X164611904Y-77052323D01*
X164611904Y-77052323D02*
X164564285Y-76957085D01*
X164564285Y-76957085D02*
X164516666Y-76766609D01*
X164516666Y-76766609D02*
X164516666Y-76623752D01*
X164516666Y-76623752D02*
X164564285Y-76433276D01*
X164564285Y-76433276D02*
X164611904Y-76338038D01*
X164611904Y-76338038D02*
X164707142Y-76242800D01*
X164707142Y-76242800D02*
X164849999Y-76195180D01*
X164849999Y-76195180D02*
X165088094Y-76195180D01*
X173490419Y-74809932D02*
X173442800Y-74762313D01*
X173442800Y-74762313D02*
X173395180Y-74619456D01*
X173395180Y-74619456D02*
X173395180Y-74524218D01*
X173395180Y-74524218D02*
X173442800Y-74381361D01*
X173442800Y-74381361D02*
X173538038Y-74286123D01*
X173538038Y-74286123D02*
X173633276Y-74238504D01*
X173633276Y-74238504D02*
X173823752Y-74190885D01*
X173823752Y-74190885D02*
X173966609Y-74190885D01*
X173966609Y-74190885D02*
X174157085Y-74238504D01*
X174157085Y-74238504D02*
X174252323Y-74286123D01*
X174252323Y-74286123D02*
X174347561Y-74381361D01*
X174347561Y-74381361D02*
X174395180Y-74524218D01*
X174395180Y-74524218D02*
X174395180Y-74619456D01*
X174395180Y-74619456D02*
X174347561Y-74762313D01*
X174347561Y-74762313D02*
X174299942Y-74809932D01*
X174061847Y-75667075D02*
X173395180Y-75667075D01*
X174442800Y-75428980D02*
X173728514Y-75190885D01*
X173728514Y-75190885D02*
X173728514Y-75809932D01*
X170973976Y-78590067D02*
X171021596Y-78637686D01*
X171021596Y-78637686D02*
X171069215Y-78780543D01*
X171069215Y-78780543D02*
X171069215Y-78875781D01*
X171069215Y-78875781D02*
X171021596Y-79018638D01*
X171021596Y-79018638D02*
X170926357Y-79113876D01*
X170926357Y-79113876D02*
X170831119Y-79161495D01*
X170831119Y-79161495D02*
X170640643Y-79209114D01*
X170640643Y-79209114D02*
X170497786Y-79209114D01*
X170497786Y-79209114D02*
X170307310Y-79161495D01*
X170307310Y-79161495D02*
X170212072Y-79113876D01*
X170212072Y-79113876D02*
X170116834Y-79018638D01*
X170116834Y-79018638D02*
X170069215Y-78875781D01*
X170069215Y-78875781D02*
X170069215Y-78780543D01*
X170069215Y-78780543D02*
X170116834Y-78637686D01*
X170116834Y-78637686D02*
X170164453Y-78590067D01*
X170164453Y-78209114D02*
X170116834Y-78161495D01*
X170116834Y-78161495D02*
X170069215Y-78066257D01*
X170069215Y-78066257D02*
X170069215Y-77828162D01*
X170069215Y-77828162D02*
X170116834Y-77732924D01*
X170116834Y-77732924D02*
X170164453Y-77685305D01*
X170164453Y-77685305D02*
X170259691Y-77637686D01*
X170259691Y-77637686D02*
X170354929Y-77637686D01*
X170354929Y-77637686D02*
X170497786Y-77685305D01*
X170497786Y-77685305D02*
X171069215Y-78256733D01*
X171069215Y-78256733D02*
X171069215Y-77637686D01*
X168809580Y-87266666D02*
X168857200Y-87314285D01*
X168857200Y-87314285D02*
X168904819Y-87457142D01*
X168904819Y-87457142D02*
X168904819Y-87552380D01*
X168904819Y-87552380D02*
X168857200Y-87695237D01*
X168857200Y-87695237D02*
X168761961Y-87790475D01*
X168761961Y-87790475D02*
X168666723Y-87838094D01*
X168666723Y-87838094D02*
X168476247Y-87885713D01*
X168476247Y-87885713D02*
X168333390Y-87885713D01*
X168333390Y-87885713D02*
X168142914Y-87838094D01*
X168142914Y-87838094D02*
X168047676Y-87790475D01*
X168047676Y-87790475D02*
X167952438Y-87695237D01*
X167952438Y-87695237D02*
X167904819Y-87552380D01*
X167904819Y-87552380D02*
X167904819Y-87457142D01*
X167904819Y-87457142D02*
X167952438Y-87314285D01*
X167952438Y-87314285D02*
X168000057Y-87266666D01*
X168904819Y-86314285D02*
X168904819Y-86885713D01*
X168904819Y-86599999D02*
X167904819Y-86599999D01*
X167904819Y-86599999D02*
X168047676Y-86695237D01*
X168047676Y-86695237D02*
X168142914Y-86790475D01*
X168142914Y-86790475D02*
X168190533Y-86885713D01*
X169342171Y-82648820D02*
X169342171Y-83458343D01*
X169342171Y-83458343D02*
X169389790Y-83553581D01*
X169389790Y-83553581D02*
X169437409Y-83601201D01*
X169437409Y-83601201D02*
X169532647Y-83648820D01*
X169532647Y-83648820D02*
X169723123Y-83648820D01*
X169723123Y-83648820D02*
X169818361Y-83601201D01*
X169818361Y-83601201D02*
X169865980Y-83553581D01*
X169865980Y-83553581D02*
X169913599Y-83458343D01*
X169913599Y-83458343D02*
X169913599Y-82648820D01*
X170342171Y-82744058D02*
X170389790Y-82696439D01*
X170389790Y-82696439D02*
X170485028Y-82648820D01*
X170485028Y-82648820D02*
X170723123Y-82648820D01*
X170723123Y-82648820D02*
X170818361Y-82696439D01*
X170818361Y-82696439D02*
X170865980Y-82744058D01*
X170865980Y-82744058D02*
X170913599Y-82839296D01*
X170913599Y-82839296D02*
X170913599Y-82934534D01*
X170913599Y-82934534D02*
X170865980Y-83077391D01*
X170865980Y-83077391D02*
X170294552Y-83648820D01*
X170294552Y-83648820D02*
X170913599Y-83648820D01*
D11*
%TO.C,J1*%
X165481000Y-92417900D02*
G75*
G03*
X165481000Y-92417900I-76200J0D01*
G01*
X171615126Y-95796100D02*
X168744874Y-95796100D01*
X171865351Y-88785700D02*
X168494649Y-88785700D01*
X166547800Y-90732549D02*
X166547800Y-94103251D01*
X168494649Y-96050100D02*
X171865351Y-96050100D01*
X173812200Y-94103251D02*
X173812200Y-90732549D01*
D12*
%TO.C,GND*%
X162179200Y-80880000D02*
X164795400Y-80880000D01*
X162179200Y-83394600D02*
X162179200Y-80880000D01*
X164795400Y-80880000D02*
X164795400Y-83394600D01*
X164795400Y-83394600D02*
X162179200Y-83394600D01*
X174804600Y-84520600D02*
X177420800Y-84520600D01*
X174804600Y-87035200D02*
X174804600Y-84520600D01*
X177420800Y-84520600D02*
X177420800Y-87035200D01*
X177420800Y-87035200D02*
X174804600Y-87035200D01*
%TO.C,C_O*%
X174754600Y-79505400D02*
X177370800Y-79505400D01*
X174754600Y-82020000D02*
X174754600Y-79505400D01*
X177370800Y-79505400D02*
X177370800Y-82020000D01*
X177370800Y-82020000D02*
X174754600Y-82020000D01*
%TO.C,O2*%
X164745400Y-88644600D02*
X162129200Y-88644600D01*
X164745400Y-86130000D02*
X164745400Y-88644600D01*
X162129200Y-88644600D02*
X162129200Y-86130000D01*
X162129200Y-86130000D02*
X164745400Y-86130000D01*
%TO.C,VDD*%
X171370800Y-75820000D02*
X168754600Y-75820000D01*
X171370800Y-73305400D02*
X171370800Y-75820000D01*
X168754600Y-75820000D02*
X168754600Y-73305400D01*
X168754600Y-73305400D02*
X171370800Y-73305400D01*
%TO.C,GND*%
X167195400Y-75794600D02*
X164579200Y-75794600D01*
X167195400Y-73280000D02*
X167195400Y-75794600D01*
X164579200Y-75794600D02*
X164579200Y-73280000D01*
X164579200Y-73280000D02*
X167195400Y-73280000D01*
D13*
%TO.C,U2*%
X169204076Y-84004001D02*
X171004076Y-84004001D01*
X171004076Y-84004001D02*
X171004076Y-85804001D01*
X171004076Y-85804001D02*
X169204076Y-85804001D01*
X169204076Y-85804001D02*
X169204076Y-84004001D01*
X168954077Y-84004001D02*
G75*
G03*
X168954077Y-84004001I-1J0D01*
G01*
%TD*%
M02*
